# WaveFront *.obj file (generated by CINEMA 4D)

v -7872.4482421875 -9126.78515625 -5776.6240234375
v -7835.1357421875 -9011.9482421875 -6779.40966796875
v -8458.2236328125 -9126.78515625 -5776.6240234375
v -8495.5361328125 -9011.9482421875 -6779.40966796875
v -8932.1259765625 -9471.0947265625 -5776.6240234375
v -9029.810546875 -9400.1220703125 -6779.40966796875
v -9113.140625 -10028.2001953125 -5776.6240234375
v -9233.88671875 -10028.2001953125 -6779.40966796875
v -8932.1259765625 -10585.3056640625 -5776.6240234375
v -9029.810546875 -10656.2783203125 -6779.40966796875
v -8458.2236328125 -10929.615234375 -5776.6240234375
v -8495.5361328125 -11044.451171875 -6779.40966796875
v -7872.4482421875 -10929.615234375 -5776.6240234375
v -7835.1357421875 -11044.451171875 -6779.40966796875
v -7398.54736328125 -10585.3056640625 -5776.6240234375
v -7300.861328125 -10656.2783203125 -6779.40966796875
v -7217.53271484375 -10028.2001953125 -5776.6240234375
v -7096.78662109375 -10028.2001953125 -6779.40966796875
v -7398.54736328125 -9471.0947265625 -5776.6240234375
v -7300.861328125 -9400.1220703125 -6779.40966796875
# 20 vertices

vn -0.80321496725082 -0.58357030153275 0.1195465028286
vn -0.9928286075592 0 0.11954662203789
vn -0.3068009018898 0.94423609972 0.11954680085182
vn 0.30680114030838 0.94423598051071 0.11954697221518
vn -0.30680072307587 -0.94423615932465 0.11954636126757
vn 0.30680099129677 -0.94423609972 0.11954653263092
vn -0.80321508646011 0.58357018232346 0.11954661458731
vn 0.80321532487869 -0.58356976509094 0.1195469647646
vn 0.99282854795456 0.00000001565731 0.11954715847969
vn 0.80321538448334 0.58356964588165 0.11954708397388
vn 0 0 1
vn 0 0 -1
# 12 normals

vt 0.71967202425003 0.36618602275848 0
vt 0.74650901556015 0.35933303833008 0
vt 0.75058299303055 0.37682998180389 0
vt 0.72550600767136 0.37926697731018 0
vt 0.71967297792435 0.40619897842407 0
vt 0.72822701931 0.43082702159882 0
vt 0.7119460105896 0.43583297729492 0
vt 0.7051830291748 0.41065204143524 0
vt 0.7051830291748 0.361732006073 0
vt 0.71194499731064 0.33655202388763 0
vt 0.72822600603104 0.34155797958374 0
vt 0.69069302082062 0.36618602275848 0
vt 0.68213802576065 0.34155905246735 0
vt 0.69841802120209 0.33655202388763 0
vt 0.72550600767136 0.39311802387238 0
vt 0.75058400630951 0.39555299282074 0
vt 0.74651098251343 0.41305005550385 0
vt 0.68485897779465 0.37926697731018 0
vt 0.65978199243546 0.37682998180389 0
vt 0.6638560295105 0.35933303833008 0
vt 0.68485897779465 0.39311802387238 0
vt 0.65978199243546 0.39555406570435 0
vt 0.69069302082062 0.40619897842407 0
vt 0.6638560295105 0.41305100917816 0
vt 0.6984189748764 0.43583297729492 0
vt 0.68213802576065 0.43082702159882 0
vt 0.27184900641441 0.29843199253082 0
vt 0.2880499958992 0.30369603633881 0
vt 0.2880499958992 0.34829103946686 0
vt 0.27184900641441 0.35355508327484 0
vt 0.24563600122929 0.31747603416443 0
vt 0.2556479871273 0.30369603633881 0
vt 0.2556479871273 0.34829103946686 0
vt 0.24563600122929 0.33451008796692 0
vt 0.29806199669838 0.31747603416443 0
vt 0.29806199669838 0.33451008796692 0
# 36 texture coordinates

o light
usemtl carPolice_base_color
f 7/4/2 8/3/2 10/2/1 9/1/1
f 1/8/4 2/7/4 4/6/3 3/5/3
f 9/1/1 10/11/1 12/10/5 11/9/5
f 11/9/5 12/14/5 14/13/6 13/12/6
f 3/5/3 4/17/3 6/16/7 5/15/7
f 13/12/6 14/20/6 16/19/8 15/18/8
f 15/18/8 16/19/8 18/22/9 17/21/9
f 5/15/7 6/16/7 8/3/2 7/4/2
f 17/21/9 18/22/9 20/24/10 19/23/10
f 19/23/10 20/26/10 2/25/4 1/8/4
f 1/8/11 11/9/11 13/12/11 19/23/11
f 12/30/12 10/29/12 4/28/12 2/27/12
f 9/1/11 11/9/11 1/8/11 3/5/11
f 13/12/11 15/18/11 17/21/11 19/23/11
f 3/5/11 5/15/11 7/4/11 9/1/11
f 16/34/12 14/33/12 20/32/12 18/31/12
f 14/33/12 12/30/12 2/27/12 20/32/12
f 10/29/12 8/36/12 6/35/12 4/28/12

v 7872.4482421875 -9126.78515625 -5776.6240234375
v 7835.1357421875 -9011.9482421875 -6779.40966796875
v 8458.2236328125 -9126.78515625 -5776.6240234375
v 8495.5361328125 -9011.9482421875 -6779.40966796875
v 8932.1259765625 -9471.0947265625 -5776.6240234375
v 9029.810546875 -9400.1220703125 -6779.40966796875
v 9113.140625 -10028.2001953125 -5776.6240234375
v 9233.88671875 -10028.2001953125 -6779.40966796875
v 8932.1259765625 -10585.3056640625 -5776.6240234375
v 9029.810546875 -10656.2783203125 -6779.40966796875
v 8458.2236328125 -10929.615234375 -5776.6240234375
v 8495.5361328125 -11044.451171875 -6779.40966796875
v 7872.4482421875 -10929.615234375 -5776.6240234375
v 7835.1357421875 -11044.451171875 -6779.40966796875
v 7398.54736328125 -10585.3056640625 -5776.6240234375
v 7300.861328125 -10656.2783203125 -6779.40966796875
v 7217.53271484375 -10028.2001953125 -5776.6240234375
v 7096.78662109375 -10028.2001953125 -6779.40966796875
v 7398.54736328125 -9471.0947265625 -5776.6240234375
v 7300.861328125 -9400.1220703125 -6779.40966796875
# 20 vertices

vn 0.9928286075592 0 0.11954662203789
vn 0.80321496725082 -0.58357030153275 0.1195465028286
vn -0.30680114030838 0.94423598051071 0.11954697221518
vn 0.30680093169212 0.94423604011536 0.11954678595066
vn 0.30680069327354 -0.94423621892929 0.11954636871815
vn -0.30680099129677 -0.94423609972 0.11954655498266
vn 0.80321508646011 0.58357018232346 0.11954662203789
vn -0.80321532487869 -0.58356976509094 0.11954697221518
vn -0.99282854795456 -0.00000001565731 0.11954715847969
vn -0.80321538448334 0.58356964588165 0.11954708397388
# 10 normals

# 0 texture coordinate

o light_1
usemtl carPolice_base_color
f 29/1/14 30/2/14 28/3/13 27/4/13
f 23/5/16 24/6/16 22/7/15 21/8/15
f 31/9/17 32/10/17 30/11/14 29/1/14
f 33/12/18 34/13/18 32/14/17 31/9/17
f 25/15/19 26/16/19 24/17/16 23/5/16
f 35/18/20 36/19/20 34/20/18 33/12/18
f 37/21/21 38/22/21 36/19/20 35/18/20
f 27/4/13 28/3/13 26/16/19 25/15/19
f 39/23/22 40/24/22 38/22/21 37/21/21
f 21/8/15 22/25/15 40/26/22 39/23/22
f 39/23/11 33/12/11 31/9/11 21/8/11
f 22/27/12 24/28/12 30/29/12 32/30/12
f 23/5/11 21/8/11 31/9/11 29/1/11
f 39/23/11 37/21/11 35/18/11 33/12/11
f 29/1/11 27/4/11 25/15/11 23/5/11
f 38/31/12 40/32/12 34/33/12 36/34/12
f 40/32/12 22/27/12 32/30/12 34/33/12
f 24/28/12 26/35/12 28/36/12 30/29/12

v -5436.93896484375 -4726.75146484375 -11991.57421875
v -7923.8173828125 -4726.75146484375 -11991.57421875
v -5436.93896484375 -4726.75146484375 -10455.7587890625
v -7923.8173828125 -4726.75146484375 -10455.7587890625
v -5436.93896484375 -3824.022216796875 -9213.259765625
v -7923.8173828125 -3824.0224609375 -9213.259765625
v -5436.93896484375 -2363.3759765625 -8738.666015625
v -7923.8173828125 -2363.3759765625 -8738.666015625
v -5436.93896484375 -902.7294921875 -9213.259765625
v -7923.8173828125 -902.72967529296875 -9213.259765625
v -5436.93896484375 -0.00045354739996 -10455.7587890625
v -7923.8173828125 -0.00066962710116 -10455.7587890625
v -5436.93896484375 -0.00045354739996 -11991.57421875
v -7923.8173828125 -0.00066962710116 -11991.57421875
v -5436.93896484375 -902.7294921875 -13234.0732421875
v -7923.8173828125 -902.72967529296875 -13234.0732421875
v -5436.93896484375 -2363.3759765625 -13708.6669921875
v -7923.8173828125 -2363.3759765625 -13708.6669921875
v -5436.93896484375 -3824.022216796875 -13234.0732421875
v -7923.8173828125 -3824.0224609375 -13234.0732421875
# 20 vertices

vn 0.00000001924576 0.30901756882668 -0.95105636119843
vn 0 -1 0
vn 0.00000006098757 0.80901682376862 -0.58778548240662
vn 0.00000007669649 1 0
vn -0.00000004993866 -0.80901682376862 -0.58778548240662
vn 0.00000006098757 0.80901682376862 0.58778548240662
vn 0.00000003182572 0.30901724100113 0.95105642080307
vn -0.00000002776315 -0.309017598629 -0.95105630159378
vn -0.00000002923348 -0.30901724100113 0.95105642080307
vn -0.00000004653657 -0.80901682376862 0.58778548240662
vn -1 0 0
vn 1 0 0
# 12 normals

vt 0.90072000026703 0.28941905498505 0
vt 0.96486502885818 0.28941905498505 0
vt 0.96486502885818 0.24980199337006 0
vt 0.90072000026703 0.24980199337006 0
vt 0.90072000026703 0.40826499462128 0
vt 0.96486502885818 0.40826499462128 0
vt 0.96486502885818 0.3686500787735 0
vt 0.90072000026703 0.3686500787735 0
vt 0.96486502885818 0.21018505096436 0
vt 0.90072000026703 0.21018505096436 0
vt 0.96486502885818 0.17056703567505 0
vt 0.90072000026703 0.17056703567505 0
vt 0.96486502885818 0.32903504371643 0
vt 0.90072000026703 0.32903504371643 0
vt 0.96486502885818 0.13094997406006 0
vt 0.90072000026703 0.13094997406006 0
vt 0.96486502885818 0.09133398532867 0
vt 0.90072000026703 0.09133398532867 0
vt 0.96486502885818 0.0517190694809 0
vt 0.90072000026703 0.0517190694809 0
vt 0.96486502885818 0.01210403442383 0
vt 0.90072000026703 0.01210403442383 0
vt 0.73395198583603 0.29896700382233 0
vt 0.86214500665665 0.29896700382233 0
vt 0.84990400075912 0.26129102706909 0
vt 0.74619299173355 0.26129102706909 0
vt 0.73392701148987 0.29891502857208 0
vt 0.74616801738739 0.33659100532532 0
vt 0.84987902641296 0.33659100532532 0
vt 0.86211997270584 0.29891502857208 0
vt 0.84990400075912 0.33664298057556 0
vt 0.74619299173355 0.33664298057556 0
vt 0.81785601377487 0.23800599575043 0
vt 0.7782409787178 0.23800599575043 0
vt 0.7782409787178 0.35992801189423 0
vt 0.81785601377487 0.35992801189423 0
vt 0.7782170176506 0.23795402050018 0
vt 0.74616801738739 0.26123905181885 0
vt 0.84987902641296 0.26123905181885 0
vt 0.81783097982407 0.23795402050018 0
vt 0.7782170176506 0.35987603664398 0
vt 0.81783097982407 0.35987603664398 0
# 42 texture coordinates

o wheel
usemtl carPolice_base_color
f 49/40/23 50/39/23 48/38/23 47/37/23
f 43/44/24 44/43/24 42/42/24 41/41/24
f 51/46/25 52/45/25 50/39/25 49/40/25
f 53/48/26 54/47/26 52/45/26 51/46/26
f 45/50/27 46/49/27 44/43/27 43/44/27
f 55/52/28 56/51/28 54/47/28 53/48/28
f 57/54/29 58/53/29 56/51/29 55/52/29
f 47/37/30 48/38/30 46/49/30 45/50/30
f 59/56/31 60/55/31 58/53/31 57/54/31
f 41/58/32 42/57/32 60/55/32 59/56/32
f 59/62/33 53/61/33 51/60/33 41/59/33
f 42/66/34 44/65/34 50/64/34 52/63/34
f 43/68/33 41/59/33 51/60/33 49/67/33
f 59/62/33 57/70/33 55/69/33 53/61/33
f 49/67/33 47/72/33 45/71/33 43/68/33
f 58/76/34 60/75/34 54/74/34 56/73/34
f 60/75/34 42/66/34 52/63/34 54/74/34
f 44/65/34 46/78/34 48/77/34 50/64/34

v -5436.93896484375 -4726.75146484375 7192.525390625
v -7923.8173828125 -4726.75146484375 7192.525390625
v -5436.93896484375 -4726.75146484375 8728.33984375
v -7923.8173828125 -4726.75146484375 8728.33984375
v -5436.93896484375 -3824.022216796875 9970.83984375
v -7923.8173828125 -3824.0224609375 9970.83984375
v -5436.93896484375 -2363.3759765625 10445.43359375
v -7923.8173828125 -2363.3759765625 10445.43359375
v -5436.93896484375 -902.7294921875 9970.83984375
v -7923.8173828125 -902.72967529296875 9970.83984375
v -5436.93896484375 -0.00045354739996 8728.33984375
v -7923.8173828125 -0.00066962710116 8728.33984375
v -5436.93896484375 -0.00045354739996 7192.525390625
v -7923.8173828125 -0.00066962710116 7192.525390625
v -5436.93896484375 -902.7294921875 5950.02587890625
v -7923.8173828125 -902.72967529296875 5950.02587890625
v -5436.93896484375 -2363.3759765625 5475.4326171875
v -7923.8173828125 -2363.3759765625 5475.4326171875
v -5436.93896484375 -3824.022216796875 5950.02587890625
v -7923.8173828125 -3824.0224609375 5950.02587890625
# 20 vertices

vn -0.00000000447786 -0.00000001566801 -1
vn 0.00000004218115 0.58778542280197 -0.80901688337326
vn -0.00000002446572 -0.95105648040771 0.30901712179184
vn -0.00000002625431 -0.95105648040771 -0.30901712179184
vn 0.00000007238479 0.95105648040771 -0.30901709198952
vn 0.00000007238479 0.95105648040771 0.30901712179184
vn -0.00000004085025 -0.58778536319733 -0.80901694297791
vn 0.00000004879483 0.58778524398804 0.80901700258255
vn 0.00000000136282 0 1
vn -0.00000003983466 -0.58778524398804 0.80901700258255
# 10 normals

# 0 texture coordinate

o wheel_1
usemtl carPolice_base_color
f 69/40/36 70/39/36 68/38/35 67/37/35
f 63/44/38 64/43/38 62/42/37 61/41/37
f 71/46/39 72/45/39 70/39/36 69/40/36
f 73/48/40 74/47/40 72/45/39 71/46/39
f 65/50/41 66/49/41 64/43/38 63/44/38
f 75/52/42 76/51/42 74/47/40 73/48/40
f 77/54/43 78/53/43 76/51/42 75/52/42
f 67/37/35 68/38/35 66/49/41 65/50/41
f 79/56/44 80/55/44 78/53/43 77/54/43
f 61/58/37 62/57/37 80/55/44 79/56/44
f 79/62/33 73/61/33 71/60/33 61/59/33
f 62/66/34 64/65/34 70/64/34 72/63/34
f 63/68/33 61/59/33 71/60/33 69/67/33
f 79/62/33 77/70/33 75/69/33 73/61/33
f 69/67/33 67/72/33 65/71/33 63/68/33
f 78/76/34 80/75/34 74/74/34 76/73/34
f 80/75/34 62/66/34 72/63/34 74/74/34
f 64/65/34 66/78/34 68/77/34 70/64/34

v 5436.93896484375 -4726.75146484375 8728.3408203125
v 7923.8173828125 -4726.75146484375 8728.3408203125
v 5436.93896484375 -4726.75146484375 7192.52587890625
v 7923.8173828125 -4726.75146484375 7192.52587890625
v 5436.93896484375 -3824.022216796875 5950.0263671875
v 7923.8173828125 -3824.0224609375 5950.0263671875
v 5436.93896484375 -2363.3759765625 5475.4326171875
v 7923.8173828125 -2363.3759765625 5475.4326171875
v 5436.93896484375 -902.7294921875 5950.0263671875
v 7923.8173828125 -902.72967529296875 5950.0263671875
v 5436.93896484375 -0.00045354739996 7192.52587890625
v 7923.8173828125 -0.00066962710116 7192.52587890625
v 5436.93896484375 -0.00045354739996 8728.3408203125
v 7923.8173828125 -0.00066962710116 8728.3408203125
v 5436.93896484375 -902.7294921875 9970.83984375
v 7923.8173828125 -902.72967529296875 9970.83984375
v 5436.93896484375 -2363.3759765625 10445.43359375
v 7923.8173828125 -2363.3759765625 10445.43359375
v 5436.93896484375 -3824.022216796875 9970.83984375
v 7923.8173828125 -3824.0224609375 9970.83984375
# 20 vertices

# 0 normal

# 0 texture coordinate

o wheel_2
usemtl carPolice_base_color
f 89/40/23 90/39/23 88/38/23 87/37/23
f 83/44/24 84/43/24 82/42/24 81/41/24
f 91/46/25 92/45/25 90/39/25 89/40/25
f 93/48/26 94/47/26 92/45/26 91/46/26
f 85/50/27 86/49/27 84/43/27 83/44/27
f 95/52/28 96/51/28 94/47/28 93/48/28
f 97/54/29 98/53/29 96/51/29 95/52/29
f 87/37/30 88/38/30 86/49/30 85/50/30
f 99/56/31 100/55/31 98/53/31 97/54/31
f 81/58/32 82/57/32 100/55/32 99/56/32
f 99/62/33 93/61/33 91/60/33 81/59/33
f 82/66/34 84/65/34 90/64/34 92/63/34
f 83/68/33 81/59/33 91/60/33 89/67/33
f 99/62/33 97/70/33 95/69/33 93/61/33
f 89/67/33 87/72/33 85/71/33 83/68/33
f 98/76/34 100/75/34 94/74/34 96/73/34
f 100/75/34 82/66/34 92/63/34 94/74/34
f 84/65/34 86/78/34 88/77/34 90/64/34

v 5436.93896484375 -4726.75146484375 -10455.7587890625
v 7923.8173828125 -4726.75146484375 -10455.7587890625
v 5436.93896484375 -4726.75146484375 -11991.5732421875
v 7923.8173828125 -4726.75146484375 -11991.5732421875
v 5436.93896484375 -3824.022216796875 -13234.0732421875
v 7923.8173828125 -3824.0224609375 -13234.0732421875
v 5436.93896484375 -2363.3759765625 -13708.6669921875
v 7923.8173828125 -2363.3759765625 -13708.6669921875
v 5436.93896484375 -902.7294921875 -13234.0732421875
v 7923.8173828125 -902.72967529296875 -13234.0732421875
v 5436.93896484375 -0.00045354739996 -11991.5732421875
v 7923.8173828125 -0.00066962710116 -11991.5732421875
v 5436.93896484375 -0.00045354739996 -10455.7587890625
v 7923.8173828125 -0.00066962710116 -10455.7587890625
v 5436.93896484375 -902.7294921875 -9213.2587890625
v 7923.8173828125 -902.72967529296875 -9213.2587890625
v 5436.93896484375 -2363.3759765625 -8738.666015625
v 7923.8173828125 -2363.3759765625 -8738.666015625
v 5436.93896484375 -3824.022216796875 -9213.2587890625
v 7923.8173828125 -3824.0224609375 -9213.2587890625
# 20 vertices

# 0 normal

# 0 texture coordinate

o wheel_3
usemtl carPolice_base_color
f 109/40/36 110/39/36 108/38/35 107/37/35
f 103/44/38 104/43/38 102/42/37 101/41/37
f 111/46/39 112/45/39 110/39/36 109/40/36
f 113/48/40 114/47/40 112/45/39 111/46/39
f 105/50/41 106/49/41 104/43/38 103/44/38
f 115/52/42 116/51/42 114/47/40 113/48/40
f 117/54/43 118/53/43 116/51/42 115/52/42
f 107/37/35 108/38/35 106/49/41 105/50/41
f 119/56/44 120/55/44 118/53/43 117/54/43
f 101/58/37 102/57/37 120/55/44 119/56/44
f 119/62/33 113/61/33 111/60/33 101/59/33
f 102/66/34 104/65/34 110/64/34 112/63/34
f 103/68/33 101/59/33 111/60/33 109/67/33
f 119/62/33 117/70/33 115/69/33 113/61/33
f 109/67/33 107/72/33 105/71/33 103/68/33
f 118/76/34 120/75/34 114/74/34 116/73/34
f 120/75/34 102/66/34 112/63/34 114/74/34
f 104/65/34 106/78/34 108/77/34 110/64/34

v -7604.54736328125 -3555.574462890625 10627.7080078125
v 5000 -17227.158203125 512.5350341796875
v 5000 -17227.158203125 -2533.08349609375
v 0.85016232728958 -5823.76904296875 -18606.34765625
v -7930 -5915.6083984375 12922.1376953125
v 5000 -15306.55859375 -3656.351318359375
v 0.85016232728958 -5915.6083984375 12922.1376953125
v 5000 -15306.55859375 1635.8028564453125
v 6442.30908203125 -13565.2724609375 6871.498046875
v -7930 -5283.57421875 -10191.0576171875
v 4666.5166015625 -3555.574462890625 5213.6044921875
v 4666.5166015625 -3555.574462890625 -13877.162109375
v 7199.60498046875 -2109.89306640625 4996.36962890625
v 4666.5166015625 -3555.574462890625 10627.7080078125
v 4666.5166015625 -4777.455078125 5719.7236328125
v 4666.5166015625 -4777.455078125 10121.5888671875
v 4666.5166015625 -5283.57421875 6941.6044921875
v 4666.5166015625 -2109.89306640625 4996.36962890625
v -4666.5166015625 -3555.574462890625 -8463.0576171875
v 4666.5166015625 -4777.455078125 -8969.1767578125
v 4666.5166015625 -5283.57421875 8899.708984375
v 7984.05126953125 -7568.9912109375 -6205.99365234375
v 9546.845703125 -7568.9912109375 -5303.7138671875
v 7984.05126953125 -8822.0400390625 -6205.99365234375
v 9546.845703125 -8822.0400390625 -5303.7138671875
v 8185.6240234375 -8822.0400390625 -6555.1279296875
v 9748.41796875 -8822.0400390625 -5652.8486328125
v 8185.6240234375 -7568.9912109375 -6555.1279296875
v 9748.41796875 -7568.9912109375 -5652.8486328125
v 8765.4482421875 -7568.9912109375 -5754.853515625
v 7930 -4717.47314453125 -7930
v 7930 -5915.6083984375 12922.1376953125
v 8967.021484375 -7568.9912109375 -6103.98828125
v 7604.54736328125 -3555.574462890625 -13877.162109375
v 7199.60498046875 -2109.89306640625 -14094.396484375
v 4666.5166015625 -2109.89306640625 -8245.822265625
v 7930 -4717.47314453125 10146.4345703125
v 4666.5166015625 -5283.57421875 -12149.1611328125
v 7199.60498046875 -2109.89306640625 -8245.822265625
v 7930 -7293.1953125 -6735.4912109375
v 7199.60498046875 -2109.89306640625 13443.841796875
v 7930 -7293.1953125 -6256.4482421875
v 4666.5166015625 -3555.574462890625 -8463.0576171875
v 7930 -4777.455078125 5719.7236328125
v 7871.98974609375 -7537.765625 -6272.63671875
v 4666.5166015625 -2109.89306640625 10844.943359375
v 4666.5166015625 -2109.89306640625 -14094.396484375
v 7930 -4777.455078125 -8969.1767578125
v 4666.5166015625 -4777.455078125 -13371.0419921875
v 7930 -4717.47314453125 13244.93359375
v 7199.60498046875 -2109.89306640625 10844.943359375
v 7930 -4747.4638671875 -13383.46484375
v 7903.5908203125 -7404.53564453125 -6754.56298828125
v -9748.41796875 -7568.9912109375 -5652.8486328125
v 7604.54736328125 -3555.574462890625 -8463.0576171875
v 7930 -5283.57421875 -12149.1611328125
v 7930 -5283.57421875 6941.6044921875
v 6029.28857421875 -15306.55859375 -5200.04443359375
v 7604.54736328125 -3555.574462890625 5213.6044921875
v 7930 -5283.57421875 8899.708984375
v 7930 -5283.57421875 -10191.0576171875
v 6143.33056640625 -14851.6298828125 6087.7080078125
v 7930 -7293.1953125 -7930
v 4666.5166015625 -5283.57421875 -10191.0576171875
v 7604.54736328125 -3555.574462890625 10627.7080078125
v 7930 -7293.1953125 7930
v 7199.60498046875 -2109.89306640625 -19288.068359375
v -7199.60498046875 -2109.89306640625 10844.943359375
v -4666.5166015625 -4777.455078125 -13371.0419921875
v -0.85016232728958 -17227.158203125 512.5350341796875
v -0.85016232728958 -17227.158203125 -2533.08349609375
v -6143.33056640625 -14851.6298828125 6087.7080078125
v 6029.28857421875 -15306.55859375 4643.67578125
v -8765.4482421875 -7568.9912109375 -5754.853515625
v -0.85016232728958 -15306.55859375 -3656.351318359375
v -0.85016232728958 -13565.2724609375 6871.498046875
v -0.85016232728958 -15306.55859375 4643.67578125
v -7199.60498046875 -2109.89306640625 13443.841796875
v -7199.60498046875 -2109.89306640625 -19288.068359375
v 7930 -5823.76904296875 -18606.34765625
v -0.85016232728958 -14851.6298828125 6087.7080078125
v -4666.5166015625 -2109.89306640625 -14094.396484375
v -0.85016232728958 -7293.1953125 7930
v -0.85016232728958 -2109.89306640625 -19288.068359375
v -7930 -5823.76904296875 -18606.34765625
v -0.85016232728958 -2109.89306640625 13443.841796875
v -7930 -4717.47314453125 10146.4345703125
v -7604.54736328125 -3555.574462890625 -8463.0576171875
v -0.85016232728958 -4717.47314453125 13244.93359375
v -7930 -7293.1953125 -7930
v -0.85016232728958 -2109.89306640625 7928.93115234375
v 0.85016232728958 -15306.55859375 -5200.04443359375
v -6029.28857421875 -15306.55859375 4643.67578125
v -7930 -4747.4638671875 -13383.46484375
v 0.85016232728958 -7293.1953125 -7930
v -0.85016232728958 -2109.89306640625 -8268.427734375
v -0.85016232728958 -15306.55859375 1635.8028564453125
v -7930 -5283.57421875 -12149.1611328125
v -7930 -4777.455078125 5719.7236328125
v -7871.98974609375 -7537.765625 -6272.63671875
v -7930 -5283.57421875 6941.6044921875
v -6029.28857421875 -15306.55859375 -5200.04443359375
v -7930 -4777.455078125 -8969.1767578125
v -7930 -4717.47314453125 -7930
v -4666.5166015625 -5283.57421875 -12149.1611328125
v -7903.5908203125 -7404.53564453125 -6754.56298828125
v -8967.021484375 -7568.9912109375 -6103.98828125
v -4666.5166015625 -5283.57421875 -10191.0576171875
v -7604.54736328125 -3555.574462890625 5213.6044921875
v -7930 -7293.1953125 7930
v -7604.54736328125 -3555.574462890625 -13877.162109375
v -7199.60498046875 -2109.89306640625 -8245.822265625
v -7930 -7293.1953125 -6256.4482421875
v -7199.60498046875 -2109.89306640625 -14094.396484375
v -5000 -17227.158203125 512.5350341796875
v -5000 -17227.158203125 -2533.08349609375
v -7930 -4717.47314453125 13244.93359375
v -7930 -7293.1953125 -6735.4912109375
v -5000 -15306.55859375 -3656.351318359375
v -4666.5166015625 -2109.89306640625 -8245.822265625
v -5000 -15306.55859375 1635.8028564453125
v -6442.30908203125 -13565.2724609375 6871.498046875
v -7930 -5283.57421875 8899.708984375
v -4666.5166015625 -3555.574462890625 5213.6044921875
v -4666.5166015625 -3555.574462890625 -13877.162109375
v -7199.60498046875 -2109.89306640625 4996.36962890625
v -4666.5166015625 -3555.574462890625 10627.7080078125
v -4666.5166015625 -4777.455078125 5719.7236328125
v -4666.5166015625 -4777.455078125 10121.5888671875
v -4666.5166015625 -5283.57421875 6941.6044921875
v -4666.5166015625 -2109.89306640625 4996.36962890625
v -4666.5166015625 -2109.89306640625 10844.943359375
v -4666.5166015625 -4777.455078125 -8969.1767578125
v -4666.5166015625 -5283.57421875 8899.708984375
v -7984.05126953125 -7568.9912109375 -6205.99365234375
v -9546.845703125 -7568.9912109375 -5303.7138671875
v -7984.05126953125 -8822.0400390625 -6205.99365234375
v -9546.845703125 -8822.0400390625 -5303.7138671875
v -8185.6240234375 -8822.0400390625 -6555.1279296875
v -9748.41796875 -8822.0400390625 -5652.8486328125
v -8185.6240234375 -7568.9912109375 -6555.1279296875
# 141 vertices

vn 0 -0.86742413043976 0.49756947159767
vn 0 -0.94543504714966 0.32581070065498
vn 0 -0.86742413043976 0.49756950139999
vn 0.97398573160172 -0.22658270597458 -0.00346990744583
vn 0.99700045585632 -0.07739544659853 0.00000005690854
vn 0.97349846363068 -0.22868685424328 -0.00173489900772
vn 0 0 0
vn 0 -0.86742413043976 -0.49756950139999
vn 0 -0.94543504714966 -0.32581070065498
vn 0.97300374507904 -0.23078925907612 0.00000014221915
vn 0.97300374507904 -0.23078934848309 0.00000011706958
vn 0 1 0
vn -0.00346964574419 0.97910994291306 -0.20330205559731
vn 0 0.9807853102684 0.19509020447731
vn 0.99354261159897 0.11300256103277 -0.01017090398818
vn 0.99700057506561 -0.07739447057247 0.00000003925942
vn 0.96293789148331 0.2697232067585 0.00000005075989
vn 0.99588215351105 0.09065741300583 0.00000003412212
vn 0.99069118499756 0.13612866401672 0.00000005123684
vn 0 0.14859664440155 0.98889791965485
vn 0 0.26762172579765 0.96352404356003
vn 0.99700045585632 -0.07739539444447 0.00000006456124
vn 0 -0.70495277643204 0.7092542052269
vn 0 -0.16883753240108 0.98564392328262
vn 0 -0.70495277643204 0.70925426483154
vn 0 -0.1805441826582 -0.98356688022614
vn 0 0.70710700750351 -0.70710653066635
vn 0 0.26762199401855 -0.96352398395538
vn 0 -0.32247567176819 -0.94657772779465
vn 0 -0.77149188518524 -0.63623911142349
vn -0.00000004097417 0.26762211322784 0.96352392435074
vn -0.00190005474724 0.70408302545547 0.71011513471603
vn 0.4983628988266 0.06054507941008 0.86485183238983
vn 0.4994108080864 0.0302863009274 0.86583578586578
vn 0.49965822696686 0.02018983848393 0.8659873008728
vn 0.99111443758011 0.13279102742672 -0.00766477268189
vn 0.99607026576996 0.08853249996901 -0.00245722336695
vn 0.964075922966 0.26558205485344 -0.00487576797605
vn 0.96293783187866 0.26972353458405 0
vn -0.00179445545655 0.97994297742844 0.1992701292038
vn 0 0.9807853102684 -0.19509024918079
vn 0.96890813112259 0.24721427261829 -0.01010848395526
vn 0.96740013360977 -0.08751903474331 -0.23764984309673
vn -0.4994108080864 0.0302863009274 0.86583578586578
vn -0.49965819716454 0.02018983662128 0.8659873008728
vn -0.50000023841858 -0.00000013496174 0.86602526903152
vn -0.50000041723251 -0.00000026992348 0.86602514982224
vn 0.50000023841858 0.00000006748089 -0.86602526903152
vn 0.50000005960464 0.00000003374045 -0.86602538824081
vn 0.50390189886093 -0.02814324200153 -0.86330229043961
vn 0.50570058822632 -0.04221916943789 -0.86167538166046
vn 0.12787961959839 0.9913934469223 0.02803303860128
vn 0.86602526903152 0 0.50000023841858
vn -0.86602503061295 0 -0.50000065565109
vn -0.49999994039536 0 0.86602544784546
vn 0 0.14859637618065 -0.98889791965485
vn 0.49999994039536 0 -0.86602544784546
vn 0.25355803966522 0.96572190523148 0.05558354407549
vn 0.9242051243782 -0.20539724826813 -0.32195791602135
vn 0.99606502056122 0.08862546831369 0.0001903322991
vn -0.26959839463234 -0.94300538301468 -0.19508345425129
vn -0.4983628988266 0.06054507941008 0.86485183238983
vn 0 0.14859640598297 0.98889791965485
vn 0 -0.67011773586273 0.7422548532486
vn 0 -0.07605951279402 0.99710327386856
vn 0.96293783187866 0.26972350478172 0
vn 0 -0.99066096544266 -0.13634842634201
vn 0 -0.77149194478989 -0.63623911142349
vn 0.97493785619736 -0.22236907482147 -0.00693985493854
vn 0.00190005474724 0.70408302545547 0.71011513471603
vn 0.00179445545655 0.97994297742844 0.1992701292038
vn 0 -0.78730010986328 0.61656999588013
vn 0 -0.99486553668976 0.10120529681444
vn 0 -0.9883793592453 0.15200728178024
vn 0 0.70710676908493 0.70710676908493
vn -0.00000001419102 0.26762181520462 -0.96352404356003
vn -0.0036645012442 0.70114606618881 -0.71300822496414
vn 0.96376550197601 0.26675084233284 0.00028324394953
vn 0 -0.34966436028481 0.93687504529953
vn 0 -0.86742413043976 0.49756944179535
vn 0 -0.16883753240108 0.98564392328262
vn 0.00000004097417 0.26762211322784 0.96352392435074
vn 0 -0.94543504714966 0.32581064105034
vn 0 -0.0760595202446 0.99710327386856
vn 0 -0.32247570157051 -0.94657772779465
vn 0.00346964574419 0.97910994291306 -0.20330205559731
vn 0.0036645012442 0.70114606618881 -0.71300822496414
vn -0.99588215351105 0.09065741300583 0.00000003412212
vn -0.99069118499756 0.13612866401672 0.00000005123684
vn -0.97300374507904 -0.23078934848309 0.00000011706958
vn -0.99700057506561 -0.07739447802305 0.00000003925942
vn -0.9242051243782 -0.20539724826813 -0.32195791602135
vn -0.97300374507904 -0.23078927397728 0.00000014221916
vn -0.96890813112259 0.24721427261829 -0.01010848395526
vn -0.96293783187866 0.26972350478172 0
vn -0.99607026576996 0.08853250741959 -0.00245722359978
vn -0.964075922966 0.26558205485344 -0.00487576797605
vn -0.96376550197601 0.26675084233284 0.00028324394953
vn -0.99606502056122 0.08862546831369 0.0001903322991
vn -0.96740013360977 -0.08751903474331 -0.23764984309673
vn -0.99700045585632 -0.07739539444447 0.00000006456124
vn 0.00000001419102 0.26762181520462 -0.96352404356003
vn -0.99700045585632 -0.07739544659853 0.00000005690854
vn -0.97398573160172 -0.22658270597458 -0.00346990744583
vn -0.97349846363068 -0.22868685424328 -0.00173489900772
vn -0.99354261159897 0.11300256103277 -0.01017090398818
vn -0.96293789148331 0.2697232067585 0.00000005075989
vn -0.97493785619736 -0.22236907482147 -0.00693985493854
vn -0.99111443758011 0.13279102742672 -0.00766477268189
vn -0.96293783187866 0.26972353458405 0
vn 0.50000041723251 -0.00000026992348 0.86602514982224
vn 0.50000023841858 -0.00000013496174 0.86602526903152
vn -0.50000023841858 0.00000006748089 -0.86602526903152
vn -0.50570058822632 -0.04221916943789 -0.86167538166046
vn -0.50390189886093 -0.02814324200153 -0.86330229043961
vn -0.50000005960464 0.00000003374045 -0.86602538824081
vn -0.12787961959839 0.9913934469223 0.02803303860128
vn -0.86602526903152 0 0.50000023841858
vn 0.86602503061295 0 -0.50000065565109
vn 0.49999994039536 0 0.86602544784546
vn -0.49999994039536 0 -0.86602544784546
vn -0.25355803966522 0.96572190523148 0.05558354407549
vn 0.26959839463234 -0.94300538301468 -0.19508345425129
# 123 normals

vt 0.65024799108505 0.63653701543808 0
vt 0.77925902605057 0.63655602931976 0
vt 0.77926898002625 0.57915902137756 0
vt 0.65025699138641 0.5791540145874 0
vt 0.68308401107788 0.31097006797791 0
vt 0.71037101745605 0.144700050354 0
vt 0.62562799453735 0.3571400642395 0
vt 0.82880902290344 0.60812801122665 0
vt 0.82880198955536 0.4716249704361 0
vt 0.77926498651505 0.50059801340103 0
vt 0.65024900436401 0.44321703910828 0
vt 0.65025299787521 0.50060600042343 0
vt 0.77926099300385 0.44320702552795 0
vt 0.34402099251747 0.15123605728149 0
vt 0.37170499563217 0.3571720123291 0
vt 0.57496899366379 0.79330199956894 0
vt 0.6402969956398 0.79331201314926 0
vt 0.64034497737885 0.45174908638 0
vt 0.57499897480011 0.45173907279968 0
vt 0.84635502099991 0.94740098714828 0
vt 0.84644401073456 0.86322402954102 0
vt 0.79577797651291 0.86321800947189 0
vt 0.79584801197052 0.94739502668381 0
vt 0.16074299812317 0.0787490606308 0
vt 0.02595799975097 0.1061509847641 0
vt 0.30125299096107 0.14474701881409 0
vt 0.19253399968147 0.09267103672028 0
vt 0.77987498044968 0.04709601402283 0
vt 0.76749300956726 0.07822501659393 0
vt 0.84741401672363 0.07814800739288 0
vt 0.85246598720551 0.0082870721817 0
vt 0.68066799640656 0.7985030412674 0
vt 0.68025398254395 0.8380960226059 0
vt 0.75231897830963 0.81836402416229 0
vt 0.74479198455811 0.78170800209045 0
vt 0.34444299340248 0.14475297927856 0
vt 0.43594700098038 0.46552908420563 0
vt 0.43595498800278 0.43353199958801 0
vt 0.23141300678253 0.43347597122192 0
vt 0.23140500485897 0.46550703048706 0
vt 0.19404399394989 0.15289199352264 0
vt 0.00833499990404 0.15293300151825 0
vt 0.00836899969727 0.25032305717468 0
vt 0.21290700137615 0.25029504299164 0
vt 0.49483698606491 0.80013704299927 0
vt 0.41914701461792 0.92048299312592 0
vt 0.57000601291656 0.92050898075104 0
vt 0.961629986763 0.87573003768921 0
vt 0.9631490111351 0.84015500545502 0
vt 0.89108997583389 0.82040399312973 0
vt 0.87955802679062 0.85232299566269 0
vt 0.16383700072765 0.74667000770569 0
vt 0.21292099356651 0.52830499410629 0
vt 0.0083799995482 0.52828699350357 0
vt 0.00831400044262 0.74663800001144 0
vt 0.68143302202225 0.84011399745941 0
vt 0.68270999193192 0.87488400936127 0
vt 0.76502001285553 0.85230803489685 0
vt 0.75349700450897 0.82038605213165 0
vt 0.73572701215744 0.21167206764221 0
vt 0.72923302650452 0.21148502826691 0
vt 0.72932797670364 0.20802903175354 0
vt 0.73538100719452 0.18555998802185 0
vt 0.00969399977475 0.80861604213715 0
vt 0.00968000013381 0.99431502819061 0
vt 0.1436430066824 0.99432498216629 0
vt 0.1436489969492 0.92898398637772 0
vt 0.27451199293137 0.0798100233078 0
vt 0.30129998922348 0.07830107212067 0
vt 0.28754299879074 0.04718506336212 0
vt 0.24300700426102 0.09281003475189 0
vt 0.78543102741241 0.00836908817291 0
vt 0.79702299833298 0.94941699504852 0
vt 0.8475289940834 0.94942402839661 0
vt 0.84762001037598 0.86524701118469 0
vt 0.79695498943329 0.86523902416229 0
vt 0.14790700376034 0.04697203636169 0
vt 0.00826399959624 0.00853908061981 0
vt 0.29392999410629 0.80861103534698 0
vt 0.29450500011444 0.92899000644684 0
vt 0.33207699656487 0.14475202560425 0
vt 0.83303499221802 0.20952498912811 0
vt 0.83303499221802 0.18625199794769 0
vt 0.80071502923965 0.16297900676727 0
vt 0.80071502923965 0.20952498912811 0
vt 0.78850197792053 0.20884299278259 0
vt 0.78849101066589 0.16229701042175 0
vt 0.77809399366379 0.16229903697968 0
vt 0.77810001373291 0.2088440656662 0
vt 0.74577099084854 0.18557107448578 0
vt 0.74577897787094 0.20884799957275 0
vt 0.7457759976387 0.16229403018951 0
vt 0.73537999391556 0.16229200363159 0
vt 0.7457759976387 0.15189599990845 0
vt 0.77809798717499 0.15190303325653 0
vt 0.7457799911499 0.21924102306366 0
vt 0.77810001373291 0.21924304962158 0
vt 0.83303499221802 0.16297900676727 0
vt 0.96274602413177 0.80056297779083 0
vt 0.89862698316574 0.78375101089478 0
vt 0.74649697542191 0.21767497062683 0
vt 0.74946701526642 0.21779298782349 0
vt 0.75146299600601 0.20813405513763 0
vt 0.68485897779465 0.0928750038147 0
vt 0.65335500240326 0.07982897758484 0
vt 0.73535299301147 0.0928510427475 0
vt 0.74236297607422 0.21922099590302 0
vt 0.73596101999283 0.20800805091858 0
vt 0.89744502305984 0.78172898292542 0
vt 0.8899120092392 0.81838297843933 0
vt 0.87935501337051 0.94321203231812 0
vt 0.91097700595856 0.93041598796844 0
vt 0.68184798955917 0.80052304267883 0
vt 0.74597197771072 0.78373098373413 0
vt 0.23140500485897 0.59911400079727 0
vt 0.43594500422478 0.59909600019455 0
vt 0.43598398566246 0.36608099937439 0
vt 0.25027799606323 0.36601805686951 0
vt 0.14222499728203 0.00826406478882 0
vt 0.45460298657417 0.37606608867645 0
vt 0.45463499426842 0.79387903213501 0
vt 0.76384299993515 0.85028600692749 0
vt 0.8783820271492 0.85030299425125 0
vt 0.57001298666 0.9858490228653 0
vt 0.6370450258255 0.98584300279617 0
vt 0.6370570063591 0.80013298988342 0
vt 0.33158400654793 0.14770197868347 0
vt 0.66287499666214 0.3450380563736 0
vt 0.73303198814392 0.93017303943634 0
vt 0.76520502567291 0.94319802522659 0
vt 0.98946702480316 0.72842401266098 0
vt 0.98650097846985 0.68938404321671 0
vt 0.8309959769249 0.68944203853607 0
vt 0.83101099729538 0.72849702835083 0
vt 0.68176400661469 0.87367099523544 0
vt 0.83911401033401 0.10906505584717 0
vt 0.96197402477264 0.83812201023102 0
vt 0.96156597137451 0.79853099584579 0
vt 0.96092200279236 0.87208604812622 0
vt 0.73240500688553 0.92837202548981 0
vt 0.76402497291565 0.94117599725723 0
vt 0.87815701961517 0.94119501113892 0
vt 0.91089600324631 0.9279620051384 0
vt 0.64031302928925 0.04720902442932 0
vt 0.63471102714539 0.00847506523132 0
vt 0.2931469976902 0.00846898555756 0
vt 0.26981601119041 0.76319599151611 0
vt 0.27754199504852 0.80205404758453 0
vt 0.43599998950958 0.80200499296188 0
vt 0.43598899245262 0.76315402984619 0
vt 0.98666900396347 0.43550097942352 0
vt 0.83116602897644 0.43522500991821 0
vt 0.83109301328659 0.47504198551178 0
vt 0.96006900072098 0.47528398036957 0
vt 0.95996201038361 0.61180001497269 0
vt 0.83096897602081 0.61185503005981 0
vt 0.4258486032486 0.46552801132202 0
# 157 texture coordinates

o body
usemtl carPolice_base_color
f 190/82/45 122/81/47 128/80/46 217/79/45
f 193/85/50 186/84/49 129/83/48
f 123/88/34 126/87/34 128/86/34 122/81/34
f 126/91/53 123/88/52 191/90/52 195/89/52
f 193/85/50 178/93/55 165/92/54
f 138/97/56 133/96/56 159/95/56 156/94/56
f 177/101/58 137/100/58 141/99/57 180/98/57
f 176/105/34 183/104/60 200/103/59 172/102/59
f 161/109/61 170/108/63 157/107/62 185/106/61
f 138/113/64 131/112/65 179/111/65 133/110/64
f 186/84/49 193/85/50 165/92/54 162/114/66
f 152/118/69 170/117/68 209/116/68 127/115/67
f 200/122/70 124/121/70 204/120/70 187/119/70
f 166/125/56 138/124/56 211/123/56
f 140/129/71 163/128/72 175/127/72 168/126/71
f 212/133/73 215/132/74 183/131/74 178/130/73
f 132/137/75 169/136/76 172/135/76 154/134/75
f 194/141/79 255/140/78 220/139/77 233/138/77
f 167/145/56 155/144/56 187/143/56 204/142/56
f 175/148/82 151/147/81 168/146/80
f 181/149/34 168/146/80 151/147/81 183/104/60
f 185/106/61 171/150/83 161/109/61
f 158/154/84 184/153/85 181/152/85 176/151/84
f 200/103/59 187/156/86 154/155/86 172/102/59
f 156/158/56 167/145/56 204/142/56 216/157/56
f 160/159/87 183/104/60 151/147/81
f 144/163/91 145/162/90 150/161/89 142/160/88
f 146/167/24 147/166/24 145/165/24 144/164/24
f 148/169/95 153/168/94 147/166/93 146/167/92
f 150/141/96 143/171/56 149/170/56 153/168/96
f 145/173/97 147/166/97 149/170/97 143/172/97
f 146/167/98 144/175/98 142/174/98 148/169/98
f 145/162/90 143/176/99 150/161/89
f 163/128/72 156/178/100 159/177/100 175/127/72
f 153/168/94 149/170/101 147/166/93
f 162/138/102 150/141/96 153/168/96 160/179/102
f 132/137/34 163/128/34 140/129/34 169/136/34
f 148/181/95 173/180/103 160/179/87 153/168/94
f 186/84/49 164/183/104 177/182/34
f 177/182/34 180/184/34 186/84/49
f 173/186/105 148/169/105 142/174/105 165/185/105
f 134/188/34 131/112/34 138/113/34 166/187/34
f 165/139/106 142/140/88 150/141/89 162/138/106
f 184/153/85 140/129/71 168/190/71 181/189/85
f 167/192/107 132/137/75 154/134/75 155/191/107
f 127/115/67 203/194/108 186/193/108 152/118/69
f 170/117/68 161/196/109 206/195/109 209/116/68
f 167/192/34 156/178/34 163/128/34 132/137/34
f 187/156/86 155/197/110 154/155/86
f 200/122/111 183/131/74 215/132/74 124/121/111
f 138/97/56 156/94/56 216/199/56 211/198/56
f 136/201/34 135/200/34 131/112/34 134/188/34
f 166/125/56 161/203/56 171/202/56
f 166/125/56 211/123/56 206/204/56 161/203/56
f 151/147/81 162/114/66 160/159/87
f 164/183/104 186/84/49 162/114/66 151/147/81
f 223/190/71 253/129/71 228/153/85 130/189/85
f 202/145/56 240/158/56 216/157/56 204/142/56
f 183/104/60 173/205/103 165/92/54 178/93/55
f 210/131/112 205/122/111 124/121/111 215/132/74
f 169/136/34 140/129/34 184/153/34 158/154/34
f 183/104/60 160/159/87 173/205/103
f 129/83/48 182/206/113 193/85/50
f 218/208/115 225/154/115 189/136/114 214/207/114
f 201/212/116 197/211/118 193/210/117 182/209/116
f 251/124/56 252/125/56 211/123/56
f 131/112/65 135/200/119 164/213/119 179/111/65
f 206/204/56 211/123/56 252/125/56 198/203/56
f 157/107/62 170/108/63 152/214/34
f 134/188/120 166/187/100 171/216/100 185/215/120
f 136/201/121 134/188/120 185/215/120 157/217/121
f 135/200/119 137/100/58 177/219/58 164/218/119
f 141/99/57 136/201/121 157/221/121 180/220/57
f 186/84/49 180/184/34 157/107/62 152/214/34
f 175/148/82 159/224/83 133/223/83 179/222/122
f 175/148/82 179/222/122 164/183/104 151/147/81
f 196/228/123 201/227/116 182/226/116 129/225/123
f 126/232/53 195/231/52 212/230/24 178/229/24
f 193/210/117 197/211/118 217/234/45 128/233/46
f 128/233/46 126/232/53 178/229/24 193/210/117
f 191/90/52 123/88/52 122/81/47 190/82/45
f 230/193/108 242/225/123 196/228/123 203/194/108
f 199/143/56 234/144/56 202/145/56 204/142/56
f 204/120/70 124/121/70 205/122/70 199/119/70
f 235/81/124 236/88/52 191/90/52 190/82/45
f 237/117/125 125/118/69 127/115/67 209/116/68
f 203/194/108 127/115/67 125/235/69 230/193/108
f 176/105/34 181/149/34 183/104/60
f 231/134/126 245/137/126 202/192/107 234/191/107
f 135/200/34 136/201/34 141/99/34 137/100/34
f 169/136/76 158/154/84 176/208/84 172/207/76
f 217/234/45 197/211/118 213/210/117 241/233/127
f 241/80/127 235/81/124 190/82/45 217/79/45
f 198/196/128 237/117/125 209/116/68 206/195/109
f 215/132/74 212/133/73 222/130/129 210/131/112
f 207/221/131 249/201/131 254/99/130 243/220/130
f 139/128/33 240/178/33 202/192/33 245/137/33
f 192/209/116 213/210/117 197/211/118 201/212/116
f 198/203/56 252/125/56 188/202/56
f 237/108/133 207/107/132 125/214/33
f 129/225/123 186/193/108 203/194/108 196/228/123
f 240/94/56 251/97/56 211/198/56 216/199/56
f 220/92/137 226/205/136 210/104/135 222/93/134
f 228/153/33 253/129/33 189/136/33 225/154/33
f 234/197/139 199/156/138 231/155/138
f 219/183/143 229/222/142 208/148/141 224/147/140
f 219/213/119 248/200/119 244/112/65 229/111/65
f 221/219/58 250/100/58 248/200/119 219/218/119
f 233/114/145 224/147/140 238/159/144
f 238/159/144 210/104/135 226/205/136
f 201/227/116 196/228/123 242/225/123 192/226/116
f 121/215/146 247/188/146 249/201/131 207/217/131
f 222/229/24 239/232/53 241/233/127 213/210/117
f 207/107/132 243/184/33 230/84/147 125/214/33
f 212/230/24 195/231/52 239/232/53 222/229/24
f 230/84/147 213/85/149 242/83/148
f 241/86/33 239/87/33 236/88/33 235/81/33
f 191/90/52 236/88/52 239/91/53 195/89/52
f 222/93/134 213/85/149 220/92/137
f 232/95/56 246/96/56 251/97/56 240/94/56
f 254/99/130 250/100/58 221/101/58 243/98/130
f 205/103/150 210/104/135 218/105/33 214/102/150
f 207/107/132 237/108/133 198/109/151 121/106/151
f 229/111/65 244/112/65 251/113/64 246/110/64
f 220/92/137 213/85/149 230/84/147 233/114/145
f 130/149/33 218/105/33 210/104/135
f 254/99/33 249/201/33 248/200/33 250/100/33
f 233/114/145 230/84/147 219/183/143 224/147/140
f 208/127/72 139/128/72 253/129/71 223/126/71
f 188/216/100 252/187/100 247/188/146 121/215/146
f 214/135/114 189/136/114 245/137/126 231/134/126
f 244/112/33 248/200/33 249/201/33 247/188/33
f 192/206/152 242/83/148 213/85/149
f 224/147/140 208/148/141 223/146/153
f 224/147/140 223/146/153 130/149/33 210/104/135
f 188/150/154 121/106/151 198/109/151
f 130/152/85 228/153/85 225/154/115 218/151/115
f 231/155/138 199/156/138 205/103/150 214/102/150
f 246/223/154 232/224/154 208/148/141 229/222/142
f 210/104/135 238/159/144 224/147/140
f 194/161/79 258/162/156 257/163/155 255/160/78
f 258/165/24 260/166/24 259/167/24 257/164/24
f 260/166/160 227/168/159 261/169/158 259/167/157
f 174/170/56 256/171/56 194/141/161 227/168/161
f 174/170/162 260/166/162 258/173/162 256/172/162
f 255/174/163 257/175/163 259/167/163 261/169/163
f 256/176/164 258/162/156 194/161/79
f 232/177/100 240/178/100 139/128/72 208/127/72
f 174/170/165 227/168/159 260/166/160
f 227/168/161 194/141/161 233/138/166 238/179/166
f 253/129/33 139/128/33 245/137/33 189/136/33
f 238/179/144 226/180/136 261/181/158 227/168/159
f 219/183/143 230/84/147 221/182/33
f 243/184/33 221/182/33 230/84/147
f 255/174/167 261/169/167 226/186/167 220/185/167
f 251/113/33 244/112/33 247/188/33 252/187/33

# 0 vertex

# 0 normal

# 0 texture coordinate

o light_2
usemtl carPolice_base_color
f 7/4/2 8/3/2 10/2/1 9/1/1
f 1/8/4 2/7/4 4/6/3 3/5/3
f 9/1/1 10/11/1 12/10/5 11/9/5
f 11/9/5 12/14/5 14/13/6 13/12/6
f 3/5/3 4/17/3 6/16/7 5/15/7
f 13/12/6 14/20/6 16/19/8 15/18/8
f 15/18/8 16/19/8 18/22/9 17/21/9
f 5/15/7 6/16/7 8/3/2 7/4/2
f 17/21/9 18/22/9 20/24/10 19/23/10
f 19/23/10 20/26/10 2/25/4 1/8/4
f 1/8/11 11/9/11 13/12/11 19/23/11
f 12/30/12 10/29/12 4/28/12 2/27/12
f 9/1/11 11/9/11 1/8/11 3/5/11
f 13/12/11 15/18/11 17/21/11 19/23/11
f 3/5/11 5/15/11 7/4/11 9/1/11
f 16/34/12 14/33/12 20/32/12 18/31/12
f 14/33/12 12/30/12 2/27/12 20/32/12
f 10/29/12 8/36/12 6/35/12 4/28/12

# 0 vertex

# 0 normal

# 0 texture coordinate

o light_3
usemtl carPolice_base_color
f 29/1/14 30/2/14 28/3/13 27/4/13
f 23/5/16 24/6/16 22/7/15 21/8/15
f 31/9/17 32/10/17 30/11/14 29/1/14
f 33/12/18 34/13/18 32/14/17 31/9/17
f 25/15/19 26/16/19 24/17/16 23/5/16
f 35/18/20 36/19/20 34/20/18 33/12/18
f 37/21/21 38/22/21 36/19/20 35/18/20
f 27/4/13 28/3/13 26/16/19 25/15/19
f 39/23/22 40/24/22 38/22/21 37/21/21
f 21/8/15 22/25/15 40/26/22 39/23/22
f 39/23/11 33/12/11 31/9/11 21/8/11
f 22/27/12 24/28/12 30/29/12 32/30/12
f 23/5/11 21/8/11 31/9/11 29/1/11
f 39/23/11 37/21/11 35/18/11 33/12/11
f 29/1/11 27/4/11 25/15/11 23/5/11
f 38/31/12 40/32/12 34/33/12 36/34/12
f 40/32/12 22/27/12 32/30/12 34/33/12
f 24/28/12 26/35/12 28/36/12 30/29/12

# 0 vertex

# 0 normal

# 0 texture coordinate

o wheel_4
usemtl carPolice_base_color
f 49/40/23 50/39/23 48/38/23 47/37/23
f 43/44/24 44/43/24 42/42/24 41/41/24
f 51/46/25 52/45/25 50/39/25 49/40/25
f 53/48/26 54/47/26 52/45/26 51/46/26
f 45/50/27 46/49/27 44/43/27 43/44/27
f 55/52/28 56/51/28 54/47/28 53/48/28
f 57/54/29 58/53/29 56/51/29 55/52/29
f 47/37/30 48/38/30 46/49/30 45/50/30
f 59/56/31 60/55/31 58/53/31 57/54/31
f 41/58/32 42/57/32 60/55/32 59/56/32
f 59/62/33 53/61/33 51/60/33 41/59/33
f 42/66/34 44/65/34 50/64/34 52/63/34
f 43/68/33 41/59/33 51/60/33 49/67/33
f 59/62/33 57/70/33 55/69/33 53/61/33
f 49/67/33 47/72/33 45/71/33 43/68/33
f 58/76/34 60/75/34 54/74/34 56/73/34
f 60/75/34 42/66/34 52/63/34 54/74/34
f 44/65/34 46/78/34 48/77/34 50/64/34

# 0 vertex

# 0 normal

# 0 texture coordinate

o wheel_5
usemtl carPolice_base_color
f 69/40/36 70/39/36 68/38/35 67/37/35
f 63/44/38 64/43/38 62/42/37 61/41/37
f 71/46/39 72/45/39 70/39/36 69/40/36
f 73/48/40 74/47/40 72/45/39 71/46/39
f 65/50/41 66/49/41 64/43/38 63/44/38
f 75/52/42 76/51/42 74/47/40 73/48/40
f 77/54/43 78/53/43 76/51/42 75/52/42
f 67/37/35 68/38/35 66/49/41 65/50/41
f 79/56/44 80/55/44 78/53/43 77/54/43
f 61/58/37 62/57/37 80/55/44 79/56/44
f 79/62/33 73/61/33 71/60/33 61/59/33
f 62/66/34 64/65/34 70/64/34 72/63/34
f 63/68/33 61/59/33 71/60/33 69/67/33
f 79/62/33 77/70/33 75/69/33 73/61/33
f 69/67/33 67/72/33 65/71/33 63/68/33
f 78/76/34 80/75/34 74/74/34 76/73/34
f 80/75/34 62/66/34 72/63/34 74/74/34
f 64/65/34 66/78/34 68/77/34 70/64/34

# 0 vertex

# 0 normal

# 0 texture coordinate

o wheel_6
usemtl carPolice_base_color
f 89/40/23 90/39/23 88/38/23 87/37/23
f 83/44/24 84/43/24 82/42/24 81/41/24
f 91/46/25 92/45/25 90/39/25 89/40/25
f 93/48/26 94/47/26 92/45/26 91/46/26
f 85/50/27 86/49/27 84/43/27 83/44/27
f 95/52/28 96/51/28 94/47/28 93/48/28
f 97/54/29 98/53/29 96/51/29 95/52/29
f 87/37/30 88/38/30 86/49/30 85/50/30
f 99/56/31 100/55/31 98/53/31 97/54/31
f 81/58/32 82/57/32 100/55/32 99/56/32
f 99/62/33 93/61/33 91/60/33 81/59/33
f 82/66/34 84/65/34 90/64/34 92/63/34
f 83/68/33 81/59/33 91/60/33 89/67/33
f 99/62/33 97/70/33 95/69/33 93/61/33
f 89/67/33 87/72/33 85/71/33 83/68/33
f 98/76/34 100/75/34 94/74/34 96/73/34
f 100/75/34 82/66/34 92/63/34 94/74/34
f 84/65/34 86/78/34 88/77/34 90/64/34

# 0 vertex

# 0 normal

# 0 texture coordinate

o wheel_7
usemtl carPolice_base_color
f 109/40/36 110/39/36 108/38/35 107/37/35
f 103/44/38 104/43/38 102/42/37 101/41/37
f 111/46/39 112/45/39 110/39/36 109/40/36
f 113/48/40 114/47/40 112/45/39 111/46/39
f 105/50/41 106/49/41 104/43/38 103/44/38
f 115/52/42 116/51/42 114/47/40 113/48/40
f 117/54/43 118/53/43 116/51/42 115/52/42
f 107/37/35 108/38/35 106/49/41 105/50/41
f 119/56/44 120/55/44 118/53/43 117/54/43
f 101/58/37 102/57/37 120/55/44 119/56/44
f 119/62/33 113/61/33 111/60/33 101/59/33
f 102/66/34 104/65/34 110/64/34 112/63/34
f 103/68/33 101/59/33 111/60/33 109/67/33
f 119/62/33 117/70/33 115/69/33 113/61/33
f 109/67/33 107/72/33 105/71/33 103/68/33
f 118/76/34 120/75/34 114/74/34 116/73/34
f 120/75/34 102/66/34 112/63/34 114/74/34
f 104/65/34 106/78/34 108/77/34 110/64/34

# 0 vertex

# 0 normal

# 0 texture coordinate

o body_1
usemtl carPolice_base_color
f 190/82/45 122/81/47 128/80/46 217/79/45
f 193/85/50 186/84/49 129/83/48
f 123/88/34 126/87/34 128/86/34 122/81/34
f 126/91/53 123/88/52 191/90/52 195/89/52
f 193/85/50 178/93/55 165/92/54
f 138/97/56 133/96/56 159/95/56 156/94/56
f 177/101/58 137/100/58 141/99/57 180/98/57
f 176/105/34 183/104/60 200/103/59 172/102/59
f 161/109/61 170/108/63 157/107/62 185/106/61
f 138/113/64 131/112/65 179/111/65 133/110/64
f 186/84/49 193/85/50 165/92/54 162/114/66
f 152/118/69 170/117/68 209/116/68 127/115/67
f 200/122/70 124/121/70 204/120/70 187/119/70
f 166/125/56 138/124/56 211/123/56
f 140/129/71 163/128/72 175/127/72 168/126/71
f 212/133/73 215/132/74 183/131/74 178/130/73
f 132/137/75 169/136/76 172/135/76 154/134/75
f 194/141/79 255/140/78 220/139/77 233/138/77
f 167/145/56 155/144/56 187/143/56 204/142/56
f 175/148/82 151/147/81 168/146/80
f 181/149/34 168/146/80 151/147/81 183/104/60
f 185/106/61 171/150/83 161/109/61
f 158/154/84 184/153/85 181/152/85 176/151/84
f 200/103/59 187/156/86 154/155/86 172/102/59
f 156/158/56 167/145/56 204/142/56 216/157/56
f 160/159/87 183/104/60 151/147/81
f 144/163/91 145/162/90 150/161/89 142/160/88
f 146/167/24 147/166/24 145/165/24 144/164/24
f 148/169/95 153/168/94 147/166/93 146/167/92
f 150/141/96 143/171/56 149/170/56 153/168/96
f 145/173/97 147/166/97 149/170/97 143/172/97
f 146/167/98 144/175/98 142/174/98 148/169/98
f 145/162/90 143/176/99 150/161/89
f 163/128/72 156/178/100 159/177/100 175/127/72
f 153/168/94 149/170/101 147/166/93
f 162/138/102 150/141/96 153/168/96 160/179/102
f 132/137/34 163/128/34 140/129/34 169/136/34
f 148/181/95 173/180/103 160/179/87 153/168/94
f 186/84/49 164/183/104 177/182/34
f 177/182/34 180/184/34 186/84/49
f 173/186/105 148/169/105 142/174/105 165/185/105
f 134/188/34 131/112/34 138/113/34 166/187/34
f 165/139/106 142/140/88 150/141/89 162/138/106
f 184/153/85 140/129/71 168/190/71 181/189/85
f 167/192/107 132/137/75 154/134/75 155/191/107
f 127/115/67 203/194/108 186/193/108 152/118/69
f 170/117/68 161/196/109 206/195/109 209/116/68
f 167/192/34 156/178/34 163/128/34 132/137/34
f 187/156/86 155/197/110 154/155/86
f 200/122/111 183/131/74 215/132/74 124/121/111
f 138/97/56 156/94/56 216/199/56 211/198/56
f 136/201/34 135/200/34 131/112/34 134/188/34
f 166/125/56 161/203/56 171/202/56
f 166/125/56 211/123/56 206/204/56 161/203/56
f 151/147/81 162/114/66 160/159/87
f 164/183/104 186/84/49 162/114/66 151/147/81
f 223/190/71 253/129/71 228/153/85 130/189/85
f 202/145/56 240/158/56 216/157/56 204/142/56
f 183/104/60 173/205/103 165/92/54 178/93/55
f 210/131/112 205/122/111 124/121/111 215/132/74
f 169/136/34 140/129/34 184/153/34 158/154/34
f 183/104/60 160/159/87 173/205/103
f 129/83/48 182/206/113 193/85/50
f 218/208/115 225/154/115 189/136/114 214/207/114
f 201/212/116 197/211/118 193/210/117 182/209/116
f 251/124/56 252/125/56 211/123/56
f 131/112/65 135/200/119 164/213/119 179/111/65
f 206/204/56 211/123/56 252/125/56 198/203/56
f 157/107/62 170/108/63 152/214/34
f 134/188/120 166/187/100 171/216/100 185/215/120
f 136/201/121 134/188/120 185/215/120 157/217/121
f 135/200/119 137/100/58 177/219/58 164/218/119
f 141/99/57 136/201/121 157/221/121 180/220/57
f 186/84/49 180/184/34 157/107/62 152/214/34
f 175/148/82 159/224/83 133/223/83 179/222/122
f 175/148/82 179/222/122 164/183/104 151/147/81
f 196/228/123 201/227/116 182/226/116 129/225/123
f 126/232/53 195/231/52 212/230/24 178/229/24
f 193/210/117 197/211/118 217/234/45 128/233/46
f 128/233/46 126/232/53 178/229/24 193/210/117
f 191/90/52 123/88/52 122/81/47 190/82/45
f 230/193/108 242/225/123 196/228/123 203/194/108
f 199/143/56 234/144/56 202/145/56 204/142/56
f 204/120/70 124/121/70 205/122/70 199/119/70
f 235/81/124 236/88/52 191/90/52 190/82/45
f 237/117/125 125/118/69 127/115/67 209/116/68
f 203/194/108 127/115/67 125/235/69 230/193/108
f 176/105/34 181/149/34 183/104/60
f 231/134/126 245/137/126 202/192/107 234/191/107
f 135/200/34 136/201/34 141/99/34 137/100/34
f 169/136/76 158/154/84 176/208/84 172/207/76
f 217/234/45 197/211/118 213/210/117 241/233/127
f 241/80/127 235/81/124 190/82/45 217/79/45
f 198/196/128 237/117/125 209/116/68 206/195/109
f 215/132/74 212/133/73 222/130/129 210/131/112
f 207/221/131 249/201/131 254/99/130 243/220/130
f 139/128/33 240/178/33 202/192/33 245/137/33
f 192/209/116 213/210/117 197/211/118 201/212/116
f 198/203/56 252/125/56 188/202/56
f 237/108/133 207/107/132 125/214/33
f 129/225/123 186/193/108 203/194/108 196/228/123
f 240/94/56 251/97/56 211/198/56 216/199/56
f 220/92/137 226/205/136 210/104/135 222/93/134
f 228/153/33 253/129/33 189/136/33 225/154/33
f 234/197/139 199/156/138 231/155/138
f 219/183/143 229/222/142 208/148/141 224/147/140
f 219/213/119 248/200/119 244/112/65 229/111/65
f 221/219/58 250/100/58 248/200/119 219/218/119
f 233/114/145 224/147/140 238/159/144
f 238/159/144 210/104/135 226/205/136
f 201/227/116 196/228/123 242/225/123 192/226/116
f 121/215/146 247/188/146 249/201/131 207/217/131
f 222/229/24 239/232/53 241/233/127 213/210/117
f 207/107/132 243/184/33 230/84/147 125/214/33
f 212/230/24 195/231/52 239/232/53 222/229/24
f 230/84/147 213/85/149 242/83/148
f 241/86/33 239/87/33 236/88/33 235/81/33
f 191/90/52 236/88/52 239/91/53 195/89/52
f 222/93/134 213/85/149 220/92/137
f 232/95/56 246/96/56 251/97/56 240/94/56
f 254/99/130 250/100/58 221/101/58 243/98/130
f 205/103/150 210/104/135 218/105/33 214/102/150
f 207/107/132 237/108/133 198/109/151 121/106/151
f 229/111/65 244/112/65 251/113/64 246/110/64
f 220/92/137 213/85/149 230/84/147 233/114/145
f 130/149/33 218/105/33 210/104/135
f 254/99/33 249/201/33 248/200/33 250/100/33
f 233/114/145 230/84/147 219/183/143 224/147/140
f 208/127/72 139/128/72 253/129/71 223/126/71
f 188/216/100 252/187/100 247/188/146 121/215/146
f 214/135/114 189/136/114 245/137/126 231/134/126
f 244/112/33 248/200/33 249/201/33 247/188/33
f 192/206/152 242/83/148 213/85/149
f 224/147/140 208/148/141 223/146/153
f 224/147/140 223/146/153 130/149/33 210/104/135
f 188/150/154 121/106/151 198/109/151
f 130/152/85 228/153/85 225/154/115 218/151/115
f 231/155/138 199/156/138 205/103/150 214/102/150
f 246/223/154 232/224/154 208/148/141 229/222/142
f 210/104/135 238/159/144 224/147/140
f 194/161/79 258/162/156 257/163/155 255/160/78
f 258/165/24 260/166/24 259/167/24 257/164/24
f 260/166/160 227/168/159 261/169/158 259/167/157
f 174/170/56 256/171/56 194/141/161 227/168/161
f 174/170/162 260/166/162 258/173/162 256/172/162
f 255/174/163 257/175/163 259/167/163 261/169/163
f 256/176/164 258/162/156 194/161/79
f 232/177/100 240/178/100 139/128/72 208/127/72
f 174/170/165 227/168/159 260/166/160
f 227/168/161 194/141/161 233/138/166 238/179/166
f 253/129/33 139/128/33 245/137/33 189/136/33
f 238/179/144 226/180/136 261/181/158 227/168/159
f 219/183/143 230/84/147 221/182/33
f 243/184/33 221/182/33 230/84/147
f 255/174/167 261/169/167 226/186/167 220/185/167
f 251/113/33 244/112/33 247/188/33 252/187/33

# 0 vertex

# 0 normal

# 0 texture coordinate

o light_4
usemtl carPolice_base_color
f 7/4/2 8/3/2 10/2/1 9/1/1
f 1/8/4 2/7/4 4/6/3 3/5/3
f 9/1/1 10/11/1 12/10/5 11/9/5
f 11/9/5 12/14/5 14/13/6 13/12/6
f 3/5/3 4/17/3 6/16/7 5/15/7
f 13/12/6 14/20/6 16/19/8 15/18/8
f 15/18/8 16/19/8 18/22/9 17/21/9
f 5/15/7 6/16/7 8/3/2 7/4/2
f 17/21/9 18/22/9 20/24/10 19/23/10
f 19/23/10 20/26/10 2/25/4 1/8/4
f 1/8/11 11/9/11 13/12/11 19/23/11
f 12/30/12 10/29/12 4/28/12 2/27/12
f 9/1/11 11/9/11 1/8/11 3/5/11
f 13/12/11 15/18/11 17/21/11 19/23/11
f 3/5/11 5/15/11 7/4/11 9/1/11
f 16/34/12 14/33/12 20/32/12 18/31/12
f 14/33/12 12/30/12 2/27/12 20/32/12
f 10/29/12 8/36/12 6/35/12 4/28/12

# 0 vertex

# 0 normal

# 0 texture coordinate

o light_5
usemtl carPolice_base_color
f 29/1/14 30/2/14 28/3/13 27/4/13
f 23/5/16 24/6/16 22/7/15 21/8/15
f 31/9/17 32/10/17 30/11/14 29/1/14
f 33/12/18 34/13/18 32/14/17 31/9/17
f 25/15/19 26/16/19 24/17/16 23/5/16
f 35/18/20 36/19/20 34/20/18 33/12/18
f 37/21/21 38/22/21 36/19/20 35/18/20
f 27/4/13 28/3/13 26/16/19 25/15/19
f 39/23/22 40/24/22 38/22/21 37/21/21
f 21/8/15 22/25/15 40/26/22 39/23/22
f 39/23/11 33/12/11 31/9/11 21/8/11
f 22/27/12 24/28/12 30/29/12 32/30/12
f 23/5/11 21/8/11 31/9/11 29/1/11
f 39/23/11 37/21/11 35/18/11 33/12/11
f 29/1/11 27/4/11 25/15/11 23/5/11
f 38/31/12 40/32/12 34/33/12 36/34/12
f 40/32/12 22/27/12 32/30/12 34/33/12
f 24/28/12 26/35/12 28/36/12 30/29/12

# 0 vertex

# 0 normal

# 0 texture coordinate

o wheel_8
usemtl carPolice_base_color
f 49/40/23 50/39/23 48/38/23 47/37/23
f 43/44/24 44/43/24 42/42/24 41/41/24
f 51/46/25 52/45/25 50/39/25 49/40/25
f 53/48/26 54/47/26 52/45/26 51/46/26
f 45/50/27 46/49/27 44/43/27 43/44/27
f 55/52/28 56/51/28 54/47/28 53/48/28
f 57/54/29 58/53/29 56/51/29 55/52/29
f 47/37/30 48/38/30 46/49/30 45/50/30
f 59/56/31 60/55/31 58/53/31 57/54/31
f 41/58/32 42/57/32 60/55/32 59/56/32
f 59/62/33 53/61/33 51/60/33 41/59/33
f 42/66/34 44/65/34 50/64/34 52/63/34
f 43/68/33 41/59/33 51/60/33 49/67/33
f 59/62/33 57/70/33 55/69/33 53/61/33
f 49/67/33 47/72/33 45/71/33 43/68/33
f 58/76/34 60/75/34 54/74/34 56/73/34
f 60/75/34 42/66/34 52/63/34 54/74/34
f 44/65/34 46/78/34 48/77/34 50/64/34

# 0 vertex

# 0 normal

# 0 texture coordinate

o wheel_9
usemtl carPolice_base_color
f 69/40/36 70/39/36 68/38/35 67/37/35
f 63/44/38 64/43/38 62/42/37 61/41/37
f 71/46/39 72/45/39 70/39/36 69/40/36
f 73/48/40 74/47/40 72/45/39 71/46/39
f 65/50/41 66/49/41 64/43/38 63/44/38
f 75/52/42 76/51/42 74/47/40 73/48/40
f 77/54/43 78/53/43 76/51/42 75/52/42
f 67/37/35 68/38/35 66/49/41 65/50/41
f 79/56/44 80/55/44 78/53/43 77/54/43
f 61/58/37 62/57/37 80/55/44 79/56/44
f 79/62/33 73/61/33 71/60/33 61/59/33
f 62/66/34 64/65/34 70/64/34 72/63/34
f 63/68/33 61/59/33 71/60/33 69/67/33
f 79/62/33 77/70/33 75/69/33 73/61/33
f 69/67/33 67/72/33 65/71/33 63/68/33
f 78/76/34 80/75/34 74/74/34 76/73/34
f 80/75/34 62/66/34 72/63/34 74/74/34
f 64/65/34 66/78/34 68/77/34 70/64/34

# 0 vertex

# 0 normal

# 0 texture coordinate

o wheel_10
usemtl carPolice_base_color
f 89/40/23 90/39/23 88/38/23 87/37/23
f 83/44/24 84/43/24 82/42/24 81/41/24
f 91/46/25 92/45/25 90/39/25 89/40/25
f 93/48/26 94/47/26 92/45/26 91/46/26
f 85/50/27 86/49/27 84/43/27 83/44/27
f 95/52/28 96/51/28 94/47/28 93/48/28
f 97/54/29 98/53/29 96/51/29 95/52/29
f 87/37/30 88/38/30 86/49/30 85/50/30
f 99/56/31 100/55/31 98/53/31 97/54/31
f 81/58/32 82/57/32 100/55/32 99/56/32
f 99/62/33 93/61/33 91/60/33 81/59/33
f 82/66/34 84/65/34 90/64/34 92/63/34
f 83/68/33 81/59/33 91/60/33 89/67/33
f 99/62/33 97/70/33 95/69/33 93/61/33
f 89/67/33 87/72/33 85/71/33 83/68/33
f 98/76/34 100/75/34 94/74/34 96/73/34
f 100/75/34 82/66/34 92/63/34 94/74/34
f 84/65/34 86/78/34 88/77/34 90/64/34

# 0 vertex

# 0 normal

# 0 texture coordinate

o wheel_11
usemtl carPolice_base_color
f 109/40/36 110/39/36 108/38/35 107/37/35
f 103/44/38 104/43/38 102/42/37 101/41/37
f 111/46/39 112/45/39 110/39/36 109/40/36
f 113/48/40 114/47/40 112/45/39 111/46/39
f 105/50/41 106/49/41 104/43/38 103/44/38
f 115/52/42 116/51/42 114/47/40 113/48/40
f 117/54/43 118/53/43 116/51/42 115/52/42
f 107/37/35 108/38/35 106/49/41 105/50/41
f 119/56/44 120/55/44 118/53/43 117/54/43
f 101/58/37 102/57/37 120/55/44 119/56/44
f 119/62/33 113/61/33 111/60/33 101/59/33
f 102/66/34 104/65/34 110/64/34 112/63/34
f 103/68/33 101/59/33 111/60/33 109/67/33
f 119/62/33 117/70/33 115/69/33 113/61/33
f 109/67/33 107/72/33 105/71/33 103/68/33
f 118/76/34 120/75/34 114/74/34 116/73/34
f 120/75/34 102/66/34 112/63/34 114/74/34
f 104/65/34 106/78/34 108/77/34 110/64/34

# 0 vertex

# 0 normal

# 0 texture coordinate

o body_2
usemtl carPolice_base_color
f 190/82/45 122/81/47 128/80/46 217/79/45
f 193/85/50 186/84/49 129/83/48
f 123/88/34 126/87/34 128/86/34 122/81/34
f 126/91/53 123/88/52 191/90/52 195/89/52
f 193/85/50 178/93/55 165/92/54
f 138/97/56 133/96/56 159/95/56 156/94/56
f 177/101/58 137/100/58 141/99/57 180/98/57
f 176/105/34 183/104/60 200/103/59 172/102/59
f 161/109/61 170/108/63 157/107/62 185/106/61
f 138/113/64 131/112/65 179/111/65 133/110/64
f 186/84/49 193/85/50 165/92/54 162/114/66
f 152/118/69 170/117/68 209/116/68 127/115/67
f 200/122/70 124/121/70 204/120/70 187/119/70
f 166/125/56 138/124/56 211/123/56
f 140/129/71 163/128/72 175/127/72 168/126/71
f 212/133/73 215/132/74 183/131/74 178/130/73
f 132/137/75 169/136/76 172/135/76 154/134/75
f 194/141/79 255/140/78 220/139/77 233/138/77
f 167/145/56 155/144/56 187/143/56 204/142/56
f 175/148/82 151/147/81 168/146/80
f 181/149/34 168/146/80 151/147/81 183/104/60
f 185/106/61 171/150/83 161/109/61
f 158/154/84 184/153/85 181/152/85 176/151/84
f 200/103/59 187/156/86 154/155/86 172/102/59
f 156/158/56 167/145/56 204/142/56 216/157/56
f 160/159/87 183/104/60 151/147/81
f 144/163/91 145/162/90 150/161/89 142/160/88
f 146/167/24 147/166/24 145/165/24 144/164/24
f 148/169/95 153/168/94 147/166/93 146/167/92
f 150/141/96 143/171/56 149/170/56 153/168/96
f 145/173/97 147/166/97 149/170/97 143/172/97
f 146/167/98 144/175/98 142/174/98 148/169/98
f 145/162/90 143/176/99 150/161/89
f 163/128/72 156/178/100 159/177/100 175/127/72
f 153/168/94 149/170/101 147/166/93
f 162/138/102 150/141/96 153/168/96 160/179/102
f 132/137/34 163/128/34 140/129/34 169/136/34
f 148/181/95 173/180/103 160/179/87 153/168/94
f 186/84/49 164/183/104 177/182/34
f 177/182/34 180/184/34 186/84/49
f 173/186/105 148/169/105 142/174/105 165/185/105
f 134/188/34 131/112/34 138/113/34 166/187/34
f 165/139/106 142/140/88 150/141/89 162/138/106
f 184/153/85 140/129/71 168/190/71 181/189/85
f 167/192/107 132/137/75 154/134/75 155/191/107
f 127/115/67 203/194/108 186/193/108 152/118/69
f 170/117/68 161/196/109 206/195/109 209/116/68
f 167/192/34 156/178/34 163/128/34 132/137/34
f 187/156/86 155/197/110 154/155/86
f 200/122/111 183/131/74 215/132/74 124/121/111
f 138/97/56 156/94/56 216/199/56 211/198/56
f 136/201/34 135/200/34 131/112/34 134/188/34
f 166/125/56 161/203/56 171/202/56
f 166/125/56 211/123/56 206/204/56 161/203/56
f 151/147/81 162/114/66 160/159/87
f 164/183/104 186/84/49 162/114/66 151/147/81
f 223/190/71 253/129/71 228/153/85 130/189/85
f 202/145/56 240/158/56 216/157/56 204/142/56
f 183/104/60 173/205/103 165/92/54 178/93/55
f 210/131/112 205/122/111 124/121/111 215/132/74
f 169/136/34 140/129/34 184/153/34 158/154/34
f 183/104/60 160/159/87 173/205/103
f 129/83/48 182/206/113 193/85/50
f 218/208/115 225/154/115 189/136/114 214/207/114
f 201/212/116 197/211/118 193/210/117 182/209/116
f 251/124/56 252/125/56 211/123/56
f 131/112/65 135/200/119 164/213/119 179/111/65
f 206/204/56 211/123/56 252/125/56 198/203/56
f 157/107/62 170/108/63 152/214/34
f 134/188/120 166/187/100 171/216/100 185/215/120
f 136/201/121 134/188/120 185/215/120 157/217/121
f 135/200/119 137/100/58 177/219/58 164/218/119
f 141/99/57 136/201/121 157/221/121 180/220/57
f 186/84/49 180/184/34 157/107/62 152/214/34
f 175/148/82 159/224/83 133/223/83 179/222/122
f 175/148/82 179/222/122 164/183/104 151/147/81
f 196/228/123 201/227/116 182/226/116 129/225/123
f 126/232/53 195/231/52 212/230/24 178/229/24
f 193/210/117 197/211/118 217/234/45 128/233/46
f 128/233/46 126/232/53 178/229/24 193/210/117
f 191/90/52 123/88/52 122/81/47 190/82/45
f 230/193/108 242/225/123 196/228/123 203/194/108
f 199/143/56 234/144/56 202/145/56 204/142/56
f 204/120/70 124/121/70 205/122/70 199/119/70
f 235/81/124 236/88/52 191/90/52 190/82/45
f 237/117/125 125/118/69 127/115/67 209/116/68
f 203/194/108 127/115/67 125/235/69 230/193/108
f 176/105/34 181/149/34 183/104/60
f 231/134/126 245/137/126 202/192/107 234/191/107
f 135/200/34 136/201/34 141/99/34 137/100/34
f 169/136/76 158/154/84 176/208/84 172/207/76
f 217/234/45 197/211/118 213/210/117 241/233/127
f 241/80/127 235/81/124 190/82/45 217/79/45
f 198/196/128 237/117/125 209/116/68 206/195/109
f 215/132/74 212/133/73 222/130/129 210/131/112
f 207/221/131 249/201/131 254/99/130 243/220/130
f 139/128/33 240/178/33 202/192/33 245/137/33
f 192/209/116 213/210/117 197/211/118 201/212/116
f 198/203/56 252/125/56 188/202/56
f 237/108/133 207/107/132 125/214/33
f 129/225/123 186/193/108 203/194/108 196/228/123
f 240/94/56 251/97/56 211/198/56 216/199/56
f 220/92/137 226/205/136 210/104/135 222/93/134
f 228/153/33 253/129/33 189/136/33 225/154/33
f 234/197/139 199/156/138 231/155/138
f 219/183/143 229/222/142 208/148/141 224/147/140
f 219/213/119 248/200/119 244/112/65 229/111/65
f 221/219/58 250/100/58 248/200/119 219/218/119
f 233/114/145 224/147/140 238/159/144
f 238/159/144 210/104/135 226/205/136
f 201/227/116 196/228/123 242/225/123 192/226/116
f 121/215/146 247/188/146 249/201/131 207/217/131
f 222/229/24 239/232/53 241/233/127 213/210/117
f 207/107/132 243/184/33 230/84/147 125/214/33
f 212/230/24 195/231/52 239/232/53 222/229/24
f 230/84/147 213/85/149 242/83/148
f 241/86/33 239/87/33 236/88/33 235/81/33
f 191/90/52 236/88/52 239/91/53 195/89/52
f 222/93/134 213/85/149 220/92/137
f 232/95/56 246/96/56 251/97/56 240/94/56
f 254/99/130 250/100/58 221/101/58 243/98/130
f 205/103/150 210/104/135 218/105/33 214/102/150
f 207/107/132 237/108/133 198/109/151 121/106/151
f 229/111/65 244/112/65 251/113/64 246/110/64
f 220/92/137 213/85/149 230/84/147 233/114/145
f 130/149/33 218/105/33 210/104/135
f 254/99/33 249/201/33 248/200/33 250/100/33
f 233/114/145 230/84/147 219/183/143 224/147/140
f 208/127/72 139/128/72 253/129/71 223/126/71
f 188/216/100 252/187/100 247/188/146 121/215/146
f 214/135/114 189/136/114 245/137/126 231/134/126
f 244/112/33 248/200/33 249/201/33 247/188/33
f 192/206/152 242/83/148 213/85/149
f 224/147/140 208/148/141 223/146/153
f 224/147/140 223/146/153 130/149/33 210/104/135
f 188/150/154 121/106/151 198/109/151
f 130/152/85 228/153/85 225/154/115 218/151/115
f 231/155/138 199/156/138 205/103/150 214/102/150
f 246/223/154 232/224/154 208/148/141 229/222/142
f 210/104/135 238/159/144 224/147/140
f 194/161/79 258/162/156 257/163/155 255/160/78
f 258/165/24 260/166/24 259/167/24 257/164/24
f 260/166/160 227/168/159 261/169/158 259/167/157
f 174/170/56 256/171/56 194/141/161 227/168/161
f 174/170/162 260/166/162 258/173/162 256/172/162
f 255/174/163 257/175/163 259/167/163 261/169/163
f 256/176/164 258/162/156 194/161/79
f 232/177/100 240/178/100 139/128/72 208/127/72
f 174/170/165 227/168/159 260/166/160
f 227/168/161 194/141/161 233/138/166 238/179/166
f 253/129/33 139/128/33 245/137/33 189/136/33
f 238/179/144 226/180/136 261/181/158 227/168/159
f 219/183/143 230/84/147 221/182/33
f 243/184/33 221/182/33 230/84/147
f 255/174/167 261/169/167 226/186/167 220/185/167
f 251/113/33 244/112/33 247/188/33 252/187/33

