# 3ds Max Wavefront OBJ Exporter v0.97b - (c)2007 guruware
# File Created: 19.11.2015 01:03:22

mtllib 3d-model.mtl

#
# object Layer0_001
#

v  1.4993 1.6518 -1.0844
v  1.4993 1.2817 -1.0844
v  1.1676 1.2817 -1.4355
v  1.1676 1.6518 -1.4355
v  -1.8407 1.2817 0.1895
v  -1.7289 1.2817 0.6594
v  -1.7289 1.6518 0.6594
v  -1.8407 1.6518 0.1895
v  -1.4993 1.2817 1.0844
v  -1.4993 1.6518 1.0844
v  -1.8270 1.2817 -0.2934
v  -1.8270 1.6518 -0.2934
v  -1.6888 1.2817 -0.7563
v  -1.6888 1.6518 -0.7563
v  -1.4355 1.2817 -1.1676
v  -1.4355 1.6518 -1.1676
v  -1.0844 1.6518 -1.4993
v  -1.0844 1.2817 -1.4993
v  -0.6594 1.6518 -1.7289
v  -0.6594 1.2817 -1.7289
v  -0.1895 1.6518 -1.8407
v  -0.1895 1.2817 -1.8407
v  0.2934 1.2817 -1.8270
v  0.2934 1.6518 -1.8270
v  0.7563 1.2817 -1.6888
v  0.7563 1.6518 -1.6888
v  -1.1676 1.2817 1.4355
v  -1.1676 1.6518 1.4355
v  -0.7563 1.2817 1.6888
v  -0.7563 1.6518 1.6888
v  -0.2934 1.2817 1.8270
v  -0.2934 1.6518 1.8270
v  0.1895 1.2817 1.8407
v  0.1895 1.6518 1.8407
v  0.6594 1.2817 1.7289
v  0.6594 1.6518 1.7289
v  1.0844 1.2817 1.4993
v  1.0844 1.6518 1.4993
v  1.4355 1.2817 1.1676
v  1.4355 1.6518 1.1676
v  1.6888 1.2817 0.7563
v  1.6888 1.6518 0.7563
v  1.8270 1.2817 0.2934
v  1.8270 1.6518 0.2934
v  1.8407 1.2817 -0.1895
v  1.8407 1.6518 -0.1895
v  1.7289 1.2817 -0.6594
v  1.7289 1.6518 -0.6594
v  -1.5646 1.3704 0.5967
v  -1.6657 1.3704 0.1714
v  -1.6533 1.3704 -0.2655
v  -1.5283 1.3704 -0.6844
v  -1.3568 1.3704 0.9813
v  -1.2991 1.3704 -1.0566
v  -1.0566 1.3704 1.2991
v  -0.9813 1.3704 -1.3568
v  -0.6844 1.3704 1.5283
v  -0.5967 1.3704 -1.5646
v  -0.2655 1.3704 1.6533
v  -0.1714 1.3704 -1.6657
v  0.1714 1.3704 1.6657
v  0.2655 1.3704 -1.6533
v  0.5967 1.3704 1.5646
v  0.6844 1.3704 -1.5283
v  0.9813 1.3704 1.3568
v  1.0566 1.3704 -1.2991
v  1.2991 1.3704 1.0566
v  1.3568 1.3704 -0.9813
v  1.5283 1.3704 0.6844
v  1.5646 1.3704 -0.5967
v  1.6533 1.3704 0.2655
v  1.6657 1.3704 -0.1714
v  1.0564 1.3821 -1.2989
v  0.6843 1.3821 -1.5280
v  1.3566 1.3821 -0.9812
v  1.5643 1.3821 -0.5966
v  1.6654 1.3821 -0.1714
v  1.6531 1.3821 0.2655
v  1.5280 1.3821 0.6843
v  1.2989 1.3821 1.0564
v  0.9812 1.3821 1.3566
v  0.5966 1.3821 1.5643
v  0.1714 1.3821 1.6654
v  -0.2655 1.3821 1.6531
v  -0.6843 1.3821 1.5280
v  -1.0564 1.3821 1.2989
v  -1.3566 1.3821 0.9812
v  -1.5643 1.3821 0.5966
v  -1.6654 1.3821 0.1714
v  -1.6531 1.3821 -0.2655
v  -1.5280 1.3821 -0.6843
v  -1.2989 1.3821 -1.0564
v  -0.9812 1.3821 -1.3566
v  -0.5966 1.3821 -1.5643
v  -0.1714 1.3821 -1.6654
v  0.2655 1.3821 -1.6531
v  1.3982 0.7157 0.2245
v  1.5836 1.0320 0.2543
v  1.5954 1.0320 -0.1642
v  1.4086 0.7157 -0.1450
v  1.1376 0.4476 -0.1171
v  1.1291 0.4476 0.1813
v  0.7984 0.2437 -0.0822
v  0.7925 0.2437 0.1273
v  0.4115 0.1163 -0.0424
v  0.4085 0.1163 0.0656
v  0.0848 0.0819 -0.0087
v  0.0842 0.0819 0.0135
v  0.4323 0.0455 -0.0445
v  0.0000 0.0000 -0.0000
v  0.4291 0.0455 0.0689
v  0.8324 0.1793 0.1337
v  0.8387 0.1793 -0.0863
v  1.1860 0.3935 0.1905
v  1.1949 0.3935 -0.1230
v  1.4686 0.6751 0.2358
v  1.4796 0.6751 -0.1523
v  1.6634 1.0074 0.2671
v  1.6758 1.0074 -0.1725
v  1.6657 1.2979 -0.1714
v  1.6533 1.2979 0.2655
v  1.2924 0.7157 0.5788
v  1.4638 1.0320 0.6555
v  1.0437 0.4476 0.4674
v  0.7326 0.2437 0.3280
v  0.3776 0.1163 0.1691
v  0.0778 0.0819 0.0348
v  0.3966 0.0455 0.1776
v  0.7695 0.1793 0.3446
v  1.0963 0.3935 0.4909
v  1.3575 0.6751 0.6079
v  1.5375 1.0074 0.6885
v  1.5283 1.2979 0.6844
v  1.0986 0.7157 0.8935
v  1.2442 1.0320 1.0120
v  0.8872 0.4476 0.7216
v  0.6227 0.2437 0.5065
v  0.3209 0.1163 0.2610
v  0.0661 0.0819 0.0538
v  0.3371 0.0455 0.2742
v  0.6541 0.1793 0.5320
v  0.9319 0.3935 0.7580
v  1.1539 0.6751 0.9386
v  1.3070 1.0074 1.0630
v  1.2991 1.2979 1.0566
v  0.8299 0.7157 1.1474
v  0.9399 1.0320 1.2996
v  0.6702 0.4476 0.9266
v  0.4704 0.2437 0.6504
v  0.2424 0.1163 0.3352
v  0.0499 0.0819 0.0691
v  0.2547 0.0455 0.3521
v  0.4941 0.1793 0.6831
v  0.7040 0.3935 0.9733
v  0.8717 0.6751 1.2052
v  0.9873 1.0074 1.3651
v  0.9813 1.2979 1.3568
v  0.5046 0.7157 1.3231
v  0.5715 1.0320 1.4986
v  0.4075 0.4476 1.0685
v  0.2860 0.2437 0.7500
v  0.1474 0.1163 0.3865
v  0.0304 0.0819 0.0796
v  0.1549 0.0455 0.4060
v  0.3004 0.1793 0.7877
v  0.4281 0.3935 1.1223
v  0.5301 0.6751 1.3898
v  0.6003 1.0074 1.5741
v  0.5967 1.2979 1.5646
v  0.1450 0.7157 1.4086
v  0.1642 1.0320 1.5954
v  0.1171 0.4476 1.1376
v  0.0822 0.2437 0.7984
v  0.0424 0.1163 0.4115
v  0.0087 0.0819 0.0848
v  0.0445 0.0455 0.4323
v  0.0863 0.1793 0.8387
v  0.1230 0.3935 1.1949
v  0.1523 0.6751 1.4796
v  0.1725 1.0074 1.6758
v  0.1714 1.2979 1.6657
v  -0.2245 0.7157 1.3982
v  -0.2543 1.0320 1.5836
v  -0.1813 0.4476 1.1291
v  -0.1273 0.2437 0.7925
v  -0.0656 0.1163 0.4085
v  -0.0135 0.0819 0.0842
v  -0.0689 0.0455 0.4291
v  -0.1337 0.1793 0.8324
v  -0.1905 0.3935 1.1860
v  -0.2358 0.6751 1.4686
v  -0.2671 1.0074 1.6634
v  -0.2655 1.2979 1.6533
v  -0.5788 0.7157 1.2924
v  -0.6555 1.0320 1.4638
v  -0.4674 0.4476 1.0437
v  -0.3280 0.2437 0.7326
v  -0.1691 0.1163 0.3776
v  -0.0348 0.0819 0.0778
v  -0.1776 0.0455 0.3966
v  -0.3446 0.1793 0.7695
v  -0.4909 0.3935 1.0963
v  -0.6079 0.6751 1.3575
v  -0.6885 1.0074 1.5375
v  -0.6844 1.2979 1.5283
v  -0.8935 0.7157 1.0986
v  -1.0120 1.0320 1.2442
v  -0.7216 0.4476 0.8872
v  -0.5065 0.2437 0.6227
v  -0.2610 0.1163 0.3209
v  -0.0538 0.0819 0.0661
v  -0.2742 0.0455 0.3371
v  -0.5320 0.1793 0.6541
v  -0.7580 0.3935 0.9319
v  -0.9386 0.6751 1.1539
v  -1.0630 1.0074 1.3070
v  -1.0566 1.2979 1.2991
v  -1.2996 1.0320 0.9399
v  -1.1474 0.7157 0.8299
v  -0.9266 0.4476 0.6702
v  -0.6504 0.2437 0.4704
v  -0.3352 0.1163 0.2424
v  -0.0691 0.0819 0.0499
v  -0.3521 0.0455 0.2547
v  -0.6831 0.1793 0.4941
v  -0.9733 0.3935 0.7040
v  -1.2052 0.6751 0.8717
v  -1.3651 1.0074 0.9873
v  -1.3568 1.2979 0.9813
v  -1.4986 1.0320 0.5715
v  -1.3231 0.7157 0.5046
v  -1.0685 0.4476 0.4075
v  -0.7500 0.2437 0.2860
v  -0.3865 0.1163 0.1474
v  -0.0796 0.0819 0.0304
v  -0.4060 0.0455 0.1549
v  -0.7877 0.1793 0.3004
v  -1.1223 0.3935 0.4281
v  -1.3898 0.6751 0.5301
v  -1.5741 1.0074 0.6003
v  -1.5646 1.2979 0.5967
v  -1.5954 1.0320 0.1642
v  -1.4086 0.7157 0.1450
v  -1.1376 0.4476 0.1171
v  -0.7984 0.2437 0.0822
v  -0.4115 0.1163 0.0424
v  -0.0848 0.0819 0.0087
v  -0.4323 0.0455 0.0445
v  -0.8387 0.1793 0.0863
v  -1.1949 0.3935 0.1230
v  -1.4796 0.6751 0.1523
v  -1.6758 1.0074 0.1725
v  -1.6657 1.2979 0.1714
v  -1.5836 1.0320 -0.2543
v  -1.3982 0.7157 -0.2245
v  -1.1291 0.4476 -0.1813
v  -0.7925 0.2437 -0.1273
v  -0.4085 0.1163 -0.0656
v  -0.0842 0.0819 -0.0135
v  -0.4291 0.0455 -0.0689
v  -0.8324 0.1793 -0.1337
v  -1.1860 0.3935 -0.1905
v  -1.4686 0.6751 -0.2358
v  -1.6634 1.0074 -0.2671
v  -1.6533 1.2979 -0.2655
v  -1.2924 0.7157 -0.5788
v  -1.4638 1.0320 -0.6555
v  -1.0437 0.4476 -0.4674
v  -0.7326 0.2437 -0.3280
v  -0.3776 0.1163 -0.1691
v  -0.0778 0.0819 -0.0348
v  -0.3966 0.0455 -0.1776
v  -0.7695 0.1793 -0.3446
v  -1.0963 0.3935 -0.4909
v  -1.3575 0.6751 -0.6079
v  -1.5375 1.0074 -0.6885
v  -1.5283 1.2979 -0.6844
v  -1.0986 0.7157 -0.8935
v  -1.2442 1.0320 -1.0120
v  -0.8872 0.4476 -0.7216
v  -0.6227 0.2437 -0.5065
v  -0.3209 0.1163 -0.2610
v  -0.0661 0.0819 -0.0538
v  -0.3371 0.0455 -0.2742
v  -0.6541 0.1793 -0.5320
v  -0.9319 0.3935 -0.7580
v  -1.1539 0.6751 -0.9386
v  -1.3070 1.0074 -1.0630
v  -1.2991 1.2979 -1.0566
v  -0.8299 0.7157 -1.1474
v  -0.9399 1.0320 -1.2996
v  -0.6702 0.4476 -0.9266
v  -0.4704 0.2437 -0.6504
v  -0.2424 0.1163 -0.3352
v  -0.0499 0.0819 -0.0691
v  -0.2547 0.0455 -0.3521
v  -0.4941 0.1793 -0.6831
v  -0.7040 0.3935 -0.9733
v  -0.8717 0.6751 -1.2052
v  -0.9873 1.0074 -1.3651
v  -0.9813 1.2979 -1.3568
v  -0.5046 0.7157 -1.3231
v  -0.5715 1.0320 -1.4986
v  -0.4075 0.4476 -1.0685
v  -0.2860 0.2437 -0.7500
v  -0.1474 0.1163 -0.3865
v  -0.0304 0.0819 -0.0796
v  -0.1549 0.0455 -0.4060
v  -0.3004 0.1793 -0.7877
v  -0.4281 0.3935 -1.1223
v  -0.5301 0.6751 -1.3898
v  -0.6003 1.0074 -1.5741
v  -0.5967 1.2979 -1.5646
v  -0.1450 0.7157 -1.4086
v  -0.1642 1.0320 -1.5954
v  -0.1171 0.4476 -1.1376
v  -0.0822 0.2437 -0.7984
v  -0.0424 0.1163 -0.4115
v  -0.0087 0.0819 -0.0848
v  -0.0445 0.0455 -0.4323
v  -0.0863 0.1793 -0.8387
v  -0.1230 0.3935 -1.1949
v  -0.1523 0.6751 -1.4796
v  -0.1725 1.0074 -1.6758
v  -0.1714 1.2979 -1.6657
v  0.2245 0.7157 -1.3982
v  0.2543 1.0320 -1.5836
v  0.1813 0.4476 -1.1291
v  0.1273 0.2437 -0.7925
v  0.0656 0.1163 -0.4085
v  0.0135 0.0819 -0.0842
v  0.0689 0.0455 -0.4291
v  0.1337 0.1793 -0.8324
v  0.1905 0.3935 -1.1860
v  0.2358 0.6751 -1.4686
v  0.2671 1.0074 -1.6634
v  0.2655 1.2979 -1.6533
v  0.5788 0.7157 -1.2924
v  0.6555 1.0320 -1.4638
v  0.4674 0.4476 -1.0437
v  0.3280 0.2437 -0.7326
v  0.1691 0.1163 -0.3776
v  0.0348 0.0819 -0.0778
v  0.1776 0.0455 -0.3966
v  0.3446 0.1793 -0.7695
v  0.4909 0.3935 -1.0963
v  0.6079 0.6751 -1.3575
v  0.6885 1.0074 -1.5375
v  0.6844 1.2979 -1.5283
v  0.8935 0.7157 -1.0986
v  1.0120 1.0320 -1.2442
v  0.7216 0.4476 -0.8872
v  0.5065 0.2437 -0.6227
v  0.2610 0.1163 -0.3209
v  0.0538 0.0819 -0.0661
v  0.2742 0.0455 -0.3371
v  0.5320 0.1793 -0.6541
v  0.7580 0.3935 -0.9319
v  0.9386 0.6751 -1.1539
v  1.0630 1.0074 -1.3070
v  1.0566 1.2979 -1.2991
v  1.1474 0.7157 -0.8299
v  1.2996 1.0320 -0.9399
v  0.9266 0.4476 -0.6702
v  0.6504 0.2437 -0.4704
v  0.3352 0.1163 -0.2424
v  0.0691 0.0819 -0.0499
v  0.3521 0.0455 -0.2547
v  0.6831 0.1793 -0.4941
v  0.9733 0.3935 -0.7040
v  1.2052 0.6751 -0.8717
v  1.3651 1.0074 -0.9873
v  1.3568 1.2979 -0.9813
v  1.3231 0.7157 -0.5046
v  1.4986 1.0320 -0.5715
v  1.0685 0.4476 -0.4075
v  0.7500 0.2437 -0.2860
v  0.3865 0.1163 -0.1474
v  0.0796 0.0819 -0.0304
v  0.4060 0.0455 -0.1549
v  0.7877 0.1793 -0.3004
v  1.1223 0.3935 -0.4281
v  1.3898 0.6751 -0.5301
v  1.5741 1.0074 -0.6003
v  1.5646 1.2979 -0.5967
# 385 vertices

vn 0.8103 -0.0000 -0.5860
vn 0.6310 -0.0000 -0.7758
vn -0.9947 0.0000 0.1024
vn -0.9343 0.0000 0.3564
vn -0.8103 0.0000 0.5860
vn -0.9873 -0.0000 -0.1586
vn -0.9127 -0.0000 -0.4087
vn -0.7758 -0.0000 -0.6310
vn -0.5860 -0.0000 -0.8103
vn -0.3564 -0.0000 -0.9343
vn -0.1024 -0.0000 -0.9947
vn 0.1586 -0.0000 -0.9873
vn 0.4087 -0.0000 -0.9127
vn -0.6310 0.0000 0.7758
vn -0.4087 0.0000 0.9127
vn -0.1586 0.0000 0.9873
vn 0.1024 0.0000 0.9947
vn 0.3564 0.0000 0.9343
vn 0.5860 0.0000 0.8103
vn 0.7758 0.0000 0.6310
vn 0.9127 0.0000 0.4087
vn 0.9873 0.0000 0.1586
vn 0.9947 -0.0000 -0.1024
vn 0.9343 -0.0000 -0.3564
vn 0.0000 -1.0000 0.0000
vn 0.0000 1.0000 -0.0000
vn -0.3125 -0.8688 0.3842
vn -0.2024 -0.8688 0.4520
vn -0.4013 -0.8688 0.2902
vn -0.4627 -0.8688 0.1765
vn -0.4926 -0.8688 0.0507
vn -0.4890 -0.8688 -0.0785
vn -0.4520 -0.8688 -0.2024
vn -0.3842 -0.8688 -0.3125
vn -0.2902 -0.8688 -0.4013
vn -0.1765 -0.8688 -0.4627
vn -0.0507 -0.8688 -0.4926
vn 0.0785 -0.8688 -0.4890
vn 0.2024 -0.8688 -0.4520
vn 0.3125 -0.8688 -0.3842
vn 0.4013 -0.8688 -0.2902
vn 0.4627 -0.8688 -0.1765
vn 0.4926 -0.8688 -0.0507
vn 0.4890 -0.8688 0.0785
vn 0.4520 -0.8688 0.2024
vn 0.3842 -0.8688 0.3125
vn 0.2902 -0.8688 0.4013
vn 0.1765 -0.8688 0.4627
vn 0.0507 -0.8688 0.4926
vn -0.0785 -0.8688 0.4890
vn -0.7811 0.6116 -0.1254
vn -0.9120 0.3833 -0.1465
vn -0.9188 0.3833 0.0946
vn -0.7870 0.6116 0.0810
vn -0.6145 0.7864 0.0632
vn -0.6099 0.7864 -0.0979
vn -0.4202 0.9064 0.0432
vn -0.4171 0.9064 -0.0670
vn -0.2162 0.9761 0.0223
vn -0.2146 0.9761 -0.0345
vn -0.1036 0.9946 0.0107
vn -0.1029 0.9946 -0.0165
vn -0.0000 1.0000 -0.0000
vn -0.9571 0.2457 -0.1537
vn -0.9643 0.2457 0.0992
vn -0.9865 0.1281 0.1015
vn -0.9792 0.1281 -0.1573
vn -0.7221 0.6116 -0.3233
vn -0.8430 0.3833 -0.3775
vn -0.5638 0.7864 -0.2525
vn -0.3855 0.9064 -0.1726
vn -0.1983 0.9761 -0.0888
vn -0.0951 0.9946 -0.0426
vn -0.8847 0.2457 -0.3962
vn -0.9051 0.1281 -0.4053
vn -0.6138 0.6116 -0.4992
vn -0.7166 0.3833 -0.5828
vn -0.4792 0.7864 -0.3898
vn -0.3277 0.9064 -0.2665
vn -0.1686 0.9761 -0.1371
vn -0.0808 0.9946 -0.0657
vn -0.7520 0.2457 -0.6117
vn -0.7694 0.1281 -0.6258
vn -0.4636 0.6116 -0.6411
vn -0.5413 0.3833 -0.7484
vn -0.3620 0.7864 -0.5005
vn -0.2475 0.9064 -0.3423
vn -0.1274 0.9761 -0.1761
vn -0.0611 0.9946 -0.0844
vn -0.5681 0.2457 -0.7854
vn -0.5812 0.1281 -0.8036
vn -0.2819 0.6116 -0.7392
vn -0.3291 0.3833 -0.8630
vn -0.2201 0.7864 -0.5772
vn -0.1505 0.9064 -0.3947
vn -0.0774 0.9761 -0.2030
vn -0.0371 0.9946 -0.0973
vn -0.3454 0.2457 -0.9057
vn -0.3534 0.1281 -0.9267
vn -0.0810 0.6116 -0.7870
vn -0.0946 0.3833 -0.9188
vn -0.0632 0.7864 -0.6145
vn -0.0432 0.9064 -0.4202
vn -0.0223 0.9761 -0.2162
vn -0.0107 0.9946 -0.1036
vn -0.0992 0.2457 -0.9643
vn -0.1015 0.1281 -0.9865
vn 0.1254 0.6116 -0.7811
vn 0.1465 0.3833 -0.9120
vn 0.0979 0.7864 -0.6099
vn 0.0670 0.9064 -0.4171
vn 0.0345 0.9761 -0.2146
vn 0.0165 0.9946 -0.1029
vn 0.1537 0.2457 -0.9571
vn 0.1573 0.1281 -0.9792
vn 0.3233 0.6116 -0.7221
vn 0.3775 0.3833 -0.8430
vn 0.2525 0.7864 -0.5638
vn 0.1726 0.9064 -0.3855
vn 0.0888 0.9761 -0.1983
vn 0.0426 0.9946 -0.0951
vn 0.3962 0.2457 -0.8847
vn 0.4053 0.1281 -0.9051
vn 0.4992 0.6116 -0.6138
vn 0.5828 0.3833 -0.7166
vn 0.3898 0.7864 -0.4792
vn 0.2665 0.9064 -0.3277
vn 0.1371 0.9761 -0.1686
vn 0.0657 0.9946 -0.0808
vn 0.6117 0.2457 -0.7520
vn 0.6258 0.1281 -0.7694
vn 0.7484 0.3833 -0.5413
vn 0.6411 0.6116 -0.4636
vn 0.5005 0.7864 -0.3620
vn 0.3423 0.9064 -0.2475
vn 0.1761 0.9761 -0.1274
vn 0.0844 0.9946 -0.0611
vn 0.7854 0.2457 -0.5681
vn 0.8036 0.1281 -0.5812
vn 0.8630 0.3833 -0.3291
vn 0.7392 0.6116 -0.2819
vn 0.5772 0.7864 -0.2201
vn 0.3947 0.9064 -0.1505
vn 0.2030 0.9761 -0.0774
vn 0.0973 0.9946 -0.0371
vn 0.9057 0.2457 -0.3454
vn 0.9267 0.1281 -0.3534
vn 0.9188 0.3833 -0.0946
vn 0.7870 0.6116 -0.0810
vn 0.6145 0.7864 -0.0632
vn 0.4202 0.9064 -0.0432
vn 0.2162 0.9761 -0.0223
vn 0.1036 0.9946 -0.0107
vn 0.9643 0.2457 -0.0992
vn 0.9865 0.1281 -0.1015
vn 0.9120 0.3833 0.1465
vn 0.7811 0.6116 0.1254
vn 0.6099 0.7864 0.0979
vn 0.4171 0.9064 0.0670
vn 0.2146 0.9761 0.0345
vn 0.1029 0.9946 0.0165
vn 0.9571 0.2457 0.1537
vn 0.9792 0.1281 0.1573
vn 0.7221 0.6116 0.3233
vn 0.8430 0.3833 0.3775
vn 0.5638 0.7864 0.2525
vn 0.3855 0.9064 0.1726
vn 0.1983 0.9761 0.0888
vn 0.0951 0.9946 0.0426
vn 0.8847 0.2457 0.3962
vn 0.9051 0.1281 0.4053
vn 0.6138 0.6116 0.4992
vn 0.7166 0.3833 0.5828
vn 0.4792 0.7864 0.3898
vn 0.3277 0.9064 0.2665
vn 0.1686 0.9761 0.1371
vn 0.0808 0.9946 0.0657
vn 0.7520 0.2457 0.6117
vn 0.7694 0.1281 0.6258
vn 0.4636 0.6116 0.6411
vn 0.5413 0.3833 0.7484
vn 0.3620 0.7864 0.5005
vn 0.2475 0.9064 0.3423
vn 0.1274 0.9761 0.1761
vn 0.0611 0.9946 0.0844
vn 0.5681 0.2457 0.7854
vn 0.5812 0.1281 0.8036
vn 0.2819 0.6116 0.7392
vn 0.3291 0.3833 0.8630
vn 0.2201 0.7864 0.5772
vn 0.1505 0.9064 0.3947
vn 0.0774 0.9761 0.2030
vn 0.0371 0.9946 0.0973
vn 0.3454 0.2457 0.9057
vn 0.3534 0.1281 0.9267
vn 0.0810 0.6116 0.7870
vn 0.0946 0.3833 0.9188
vn 0.0632 0.7864 0.6145
vn 0.0432 0.9064 0.4202
vn 0.0223 0.9761 0.2162
vn 0.0107 0.9946 0.1036
vn 0.0992 0.2457 0.9643
vn 0.1015 0.1281 0.9865
vn -0.1254 0.6116 0.7811
vn -0.1465 0.3833 0.9120
vn -0.0979 0.7864 0.6099
vn -0.0670 0.9064 0.4171
vn -0.0345 0.9761 0.2146
vn -0.0165 0.9946 0.1029
vn -0.1537 0.2457 0.9571
vn -0.1573 0.1281 0.9792
vn -0.3233 0.6116 0.7221
vn -0.3775 0.3833 0.8430
vn -0.2525 0.7864 0.5638
vn -0.1726 0.9064 0.3855
vn -0.0888 0.9761 0.1983
vn -0.0426 0.9946 0.0951
vn -0.3962 0.2457 0.8847
vn -0.4053 0.1281 0.9051
vn -0.4992 0.6116 0.6138
vn -0.5828 0.3833 0.7166
vn -0.3898 0.7864 0.4792
vn -0.2665 0.9064 0.3277
vn -0.1371 0.9761 0.1686
vn -0.0657 0.9946 0.0808
vn -0.6117 0.2457 0.7520
vn -0.6258 0.1281 0.7694
vn -0.6411 0.6116 0.4636
vn -0.7484 0.3833 0.5413
vn -0.5005 0.7864 0.3620
vn -0.3423 0.9064 0.2475
vn -0.1761 0.9761 0.1274
vn -0.0844 0.9946 0.0611
vn -0.7854 0.2457 0.5681
vn -0.8036 0.1281 0.5812
vn -0.7392 0.6116 0.2819
vn -0.8630 0.3833 0.3291
vn -0.5772 0.7864 0.2201
vn -0.3947 0.9064 0.1505
vn -0.2030 0.9761 0.0774
vn -0.0973 0.9946 0.0371
vn -0.9057 0.2457 0.3454
vn -0.9267 0.1281 0.3534
vn -0.7755 -0.0280 -0.6307
vn -0.9123 -0.0280 -0.4085
vn -0.9870 -0.0280 -0.1585
vn -0.9944 -0.0280 0.1023
vn -0.5858 -0.0280 -0.8100
vn -0.3562 -0.0280 -0.9340
vn 0.9123 -0.0280 0.4085
vn 0.9870 -0.0280 0.1585
vn 0.7755 -0.0280 0.6307
vn 0.5858 -0.0280 0.8100
vn 0.3562 -0.0280 0.9340
vn -0.9340 -0.0280 0.3562
vn -0.8100 -0.0280 0.5858
vn 0.1023 -0.0280 0.9944
vn -0.1585 -0.0280 0.9870
vn -0.4085 -0.0280 0.9123
vn -0.6307 -0.0280 0.7755
vn -0.1023 -0.0280 -0.9944
vn 0.1585 -0.0280 -0.9870
vn 0.4085 -0.0280 -0.9123
vn 0.6307 -0.0280 -0.7755
vn 0.8100 -0.0280 -0.5858
vn 0.9340 -0.0280 -0.3562
vn 0.9944 -0.0280 -0.1023
vn 0.8101 0.0210 -0.5859
vn 0.9341 0.0210 -0.3563
vn 0.9945 0.0210 -0.1024
vn 0.6309 0.0210 -0.7756
vn 0.4086 0.0210 -0.9125
vn 0.1585 0.0210 -0.9871
vn -0.1024 0.0210 -0.9945
vn -0.3563 0.0210 -0.9341
vn -0.5859 0.0210 -0.8101
vn -0.7756 0.0210 -0.6309
vn -0.9125 0.0210 -0.4086
vn -0.9871 0.0210 -0.1585
vn -0.9945 0.0210 0.1024
vn -0.9341 0.0210 0.3563
vn -0.8101 0.0210 0.5859
vn -0.6309 0.0210 0.7756
vn -0.4086 0.0210 0.9125
vn -0.1585 0.0210 0.9871
vn 0.1024 0.0210 0.9945
vn 0.3563 0.0210 0.9341
vn 0.5859 0.0210 0.8101
vn 0.7756 0.0210 0.6309
vn 0.9125 0.0210 0.4086
vn 0.9871 0.0210 0.1585
# 291 vertex normals

vt 0.0000 0.0000 0.0000
vt 0.0290 0.0127 0.0000
vt 0.0293 0.0178 0.0000
vt 0.0235 0.0178 0.0000
vt 0.0238 0.0127 0.0000
vt 0.0243 0.0191 0.0000
vt 0.0285 0.0191 0.0000
vt 0.0290 0.0244 0.0000
vt 0.0238 0.0244 0.0000
vt 0.0250 0.0232 0.0000
vt 0.0279 0.0232 0.0000
vt 0.0285 0.0287 0.0000
vt 0.0243 0.0287 0.0000
vt 0.0257 0.0252 0.0000
vt 0.0272 0.0252 0.0000
vt 0.0279 0.0309 0.0000
vt 0.0250 0.0309 0.0000
vt 0.0263 0.0267 0.0000
vt -11.0027 2.7874 0.0000
vt -11.0019 2.7817 0.0000
vt -11.0011 2.7874 0.0000
vt -10.9891 2.7931 0.0000
vt -10.9876 2.7928 0.0000
vt -10.9855 2.7980 0.0000
vt -10.9883 2.7987 0.0000
vt -11.0034 2.7808 0.0000
vt -11.0004 2.7808 0.0000
vt -10.9997 2.7862 0.0000
vt -11.0041 2.7862 0.0000
vt -10.9889 2.7866 0.0000
vt -10.9849 2.7858 0.0000
vt -10.9834 2.7908 0.0000
vt -10.9992 2.7736 0.0000
vt -10.9989 2.7786 0.0000
vt -11.0050 2.7786 0.0000
vt -11.0046 2.7736 0.0000
vt 0.0234 -0.0051 0.0000
vt 0.0295 -0.0051 0.0000
vt 0.0295 -0.0041 0.0000
vt 0.0234 -0.0041 0.0000
vt 0.0293 0.0043 0.0000
vt 0.0295 0.0081 0.0000
vt 0.0234 0.0081 0.0000
vt 0.0235 0.0043 0.0000
vt 0.0208 0.0157 0.0000
vt 0.0212 0.0208 0.0000
vt 0.0154 0.0208 0.0000
vt 0.0157 0.0157 0.0000
vt 0.0162 0.0233 0.0000
vt 0.0204 0.0233 0.0000
vt 0.0208 0.0286 0.0000
vt 0.0157 0.0286 0.0000
vt 0.0168 0.0283 0.0000
vt 0.0197 0.0283 0.0000
vt 0.0204 0.0337 0.0000
vt 0.0162 0.0337 0.0000
vt 0.0175 0.0308 0.0000
vt 0.0190 0.0308 0.0000
vt 0.0197 0.0364 0.0000
vt 0.0168 0.0364 0.0000
vt 0.0181 0.0325 0.0000
vt -11.0062 2.7701 0.0000
vt -11.0054 2.7641 0.0000
vt -11.0046 2.7701 0.0000
vt -11.0038 2.7757 0.0000
vt -11.0069 2.7757 0.0000
vt -11.0045 2.7578 0.0000
vt -11.0017 2.7584 0.0000
vt -11.0024 2.7639 0.0000
vt -11.0064 2.7629 0.0000
vt -11.0076 2.7693 0.0000
vt -11.0032 2.7693 0.0000
vt -11.0027 2.7745 0.0000
vt -11.0081 2.7745 0.0000
vt -11.0023 2.7799 0.0000
vt -11.0084 2.7799 0.0000
vt 0.0152 -0.0051 0.0000
vt 0.0213 -0.0051 0.0000
vt 0.0213 -0.0041 0.0000
vt 0.0152 -0.0041 0.0000
vt 0.0212 0.0058 0.0000
vt 0.0213 0.0096 0.0000
vt 0.0152 0.0096 0.0000
vt 0.0154 0.0058 0.0000
vt 0.0115 0.0175 0.0000
vt 0.0118 0.0226 0.0000
vt 0.0060 0.0226 0.0000
vt 0.0063 0.0175 0.0000
vt 0.0068 0.0258 0.0000
vt 0.0110 0.0258 0.0000
vt 0.0115 0.0311 0.0000
vt 0.0063 0.0311 0.0000
vt 0.0074 0.0313 0.0000
vt 0.0104 0.0313 0.0000
vt 0.0110 0.0368 0.0000
vt 0.0068 0.0368 0.0000
vt 0.0081 0.0342 0.0000
vt 0.0096 0.0342 0.0000
vt 0.0104 0.0398 0.0000
vt 0.0074 0.0398 0.0000
vt 0.0087 0.0361 0.0000
vt -11.0053 2.7567 0.0000
vt -11.0045 2.7624 0.0000
vt -10.9983 2.7451 0.0000
vt -10.9969 2.7455 0.0000
vt -10.9976 2.7511 0.0000
vt -11.0004 2.7503 0.0000
vt -11.0069 2.7592 0.0000
vt -11.0038 2.7592 0.0000
vt -11.0075 2.7646 0.0000
vt -11.0036 2.7499 0.0000
vt -11.0001 2.7560 0.0000
vt -11.0051 2.7550 0.0000
vt -11.0026 2.7608 0.0000
vt -11.0023 2.7659 0.0000
vt -11.0084 2.7659 0.0000
vt -11.0080 2.7608 0.0000
vt 0.0059 -0.0051 0.0000
vt 0.0119 -0.0051 0.0000
vt 0.0119 -0.0041 0.0000
vt 0.0059 -0.0041 0.0000
vt 0.0118 0.0067 0.0000
vt 0.0119 0.0105 0.0000
vt 0.0059 0.0105 0.0000
vt 0.0060 0.0067 0.0000
vt -0.0040 0.0231 0.0000
vt -0.0037 0.0180 0.0000
vt 0.0015 0.0180 0.0000
vt 0.0018 0.0231 0.0000
vt -0.0032 0.0266 0.0000
vt 0.0010 0.0266 0.0000
vt 0.0015 0.0319 0.0000
vt -0.0037 0.0319 0.0000
vt -0.0025 0.0322 0.0000
vt 0.0004 0.0322 0.0000
vt 0.0010 0.0377 0.0000
vt -0.0032 0.0377 0.0000
vt -0.0018 0.0352 0.0000
vt -0.0003 0.0352 0.0000
vt 0.0004 0.0408 0.0000
vt -0.0025 0.0408 0.0000
vt -0.0012 0.0371 0.0000
vt -10.9916 2.7380 0.0000
vt -10.9894 2.7327 0.0000
vt -10.9901 2.7384 0.0000
vt -11.0025 2.7463 0.0000
vt -11.0010 2.7463 0.0000
vt -11.0002 2.7519 0.0000
vt -11.0033 2.7519 0.0000
vt -10.9945 2.7378 0.0000
vt -10.9923 2.7439 0.0000
vt -10.9963 2.7430 0.0000
vt -10.9991 2.7567 0.0000
vt -10.9987 2.7620 0.0000
vt -0.0041 -0.0041 0.0000
vt -0.0041 -0.0051 0.0000
vt 0.0019 -0.0051 0.0000
vt 0.0019 -0.0041 0.0000
vt -0.0041 0.0108 0.0000
vt -0.0040 0.0069 0.0000
vt 0.0018 0.0069 0.0000
vt 0.0019 0.0108 0.0000
vt -0.0139 0.0223 0.0000
vt -0.0136 0.0172 0.0000
vt -0.0084 0.0172 0.0000
vt -0.0081 0.0223 0.0000
vt -0.0131 0.0254 0.0000
vt -0.0089 0.0254 0.0000
vt -0.0084 0.0307 0.0000
vt -0.0136 0.0307 0.0000
vt -0.0125 0.0308 0.0000
vt -0.0095 0.0308 0.0000
vt -0.0089 0.0363 0.0000
vt -0.0131 0.0363 0.0000
vt -0.0118 0.0337 0.0000
vt -0.0103 0.0337 0.0000
vt -0.0095 0.0393 0.0000
vt -0.0125 0.0393 0.0000
vt -0.0112 0.0355 0.0000
vt -10.9962 2.7507 0.0000
vt -10.9948 2.7503 0.0000
vt -10.9830 2.7262 0.0000
vt -10.9815 2.7266 0.0000
vt -10.9823 2.7322 0.0000
vt -10.9851 2.7314 0.0000
vt -10.9961 2.7493 0.0000
vt -10.9933 2.7486 0.0000
vt -10.9915 2.7538 0.0000
vt -10.9955 2.7547 0.0000
vt -10.9880 2.7359 0.0000
vt -10.9840 2.7366 0.0000
vt -10.9845 2.7419 0.0000
vt -10.9895 2.7409 0.0000
vt -10.9980 2.7540 0.0000
vt -10.9976 2.7490 0.0000
vt -10.9922 2.7490 0.0000
vt -0.0140 -0.0041 0.0000
vt -0.0140 -0.0051 0.0000
vt -0.0080 -0.0051 0.0000
vt -0.0080 -0.0041 0.0000
vt -0.0140 0.0103 0.0000
vt -0.0139 0.0065 0.0000
vt -0.0081 0.0065 0.0000
vt -0.0080 0.0103 0.0000
vt -0.0231 0.0203 0.0000
vt -0.0227 0.0152 0.0000
vt -0.0176 0.0152 0.0000
vt -0.0173 0.0203 0.0000
vt -0.0222 0.0225 0.0000
vt -0.0181 0.0225 0.0000
vt -0.0176 0.0278 0.0000
vt -0.0227 0.0278 0.0000
vt -0.0216 0.0273 0.0000
vt -0.0187 0.0273 0.0000
vt -0.0181 0.0328 0.0000
vt -0.0222 0.0328 0.0000
vt -0.0209 0.0298 0.0000
vt -0.0194 0.0298 0.0000
vt -0.0187 0.0354 0.0000
vt -0.0216 0.0354 0.0000
vt -0.0203 0.0314 0.0000
vt -10.9861 2.7302 0.0000
vt -10.9853 2.7245 0.0000
vt -10.9845 2.7302 0.0000
vt -10.9868 2.7361 0.0000
vt -10.9868 2.7315 0.0000
vt -10.9838 2.7315 0.0000
vt -10.9826 2.7425 0.0000
vt -10.9880 2.7425 0.0000
vt -10.9883 2.7574 0.0000
vt -10.9880 2.7521 0.0000
vt -10.9826 2.7521 0.0000
vt -10.9822 2.7574 0.0000
vt -0.0232 -0.0041 0.0000
vt -0.0232 -0.0051 0.0000
vt -0.0171 -0.0051 0.0000
vt -0.0171 -0.0041 0.0000
vt -0.0232 0.0093 0.0000
vt -0.0231 0.0055 0.0000
vt -0.0173 0.0055 0.0000
vt -0.0171 0.0093 0.0000
vt -0.0305 0.0119 0.0000
vt -0.0254 0.0119 0.0000
vt -0.0250 0.0170 0.0000
vt -0.0309 0.0170 0.0000
vt -0.0254 0.0233 0.0000
vt -0.0305 0.0233 0.0000
vt -0.0265 0.0219 0.0000
vt -0.0259 0.0274 0.0000
vt -0.0300 0.0274 0.0000
vt -0.0294 0.0219 0.0000
vt -0.0272 0.0237 0.0000
vt -0.0265 0.0294 0.0000
vt -0.0294 0.0294 0.0000
vt -0.0287 0.0237 0.0000
vt -0.0278 0.0251 0.0000
vt -10.9603 2.7199 0.0000
vt -10.9581 2.7146 0.0000
vt -10.9588 2.7203 0.0000
vt -10.9727 2.7212 0.0000
vt -10.9720 2.7268 0.0000
vt -10.9750 2.7268 0.0000
vt -10.9743 2.7212 0.0000
vt -10.9599 2.7230 0.0000
vt -10.9606 2.7284 0.0000
vt -10.9646 2.7274 0.0000
vt -10.9627 2.7223 0.0000
vt -10.9713 2.7327 0.0000
vt -10.9708 2.7379 0.0000
vt -10.9762 2.7379 0.0000
vt -10.9757 2.7327 0.0000
vt -10.9704 2.7433 0.0000
vt -10.9765 2.7433 0.0000
vt -0.0310 -0.0051 0.0000
vt -0.0249 -0.0051 0.0000
vt -0.0249 -0.0041 0.0000
vt -0.0310 -0.0041 0.0000
vt -0.0309 0.0039 0.0000
vt -0.0250 0.0039 0.0000
vt -0.0249 0.0077 0.0000
vt -0.0310 0.0077 0.0000
vt -0.0364 0.0078 0.0000
vt -0.0367 0.0129 0.0000
vt -0.0318 0.0123 0.0000
vt -0.0364 0.0175 0.0000
vt -0.0324 0.0149 0.0000
vt -0.0318 0.0204 0.0000
vt -0.0359 0.0204 0.0000
vt -0.0353 0.0149 0.0000
vt -0.0331 0.0160 0.0000
vt -0.0324 0.0217 0.0000
vt -0.0353 0.0217 0.0000
vt -0.0346 0.0160 0.0000
vt -0.0337 0.0170 0.0000
vt -10.9604 2.7149 0.0000
vt -10.9468 2.7181 0.0000
vt -10.9476 2.7236 0.0000
vt -10.9503 2.7229 0.0000
vt -10.9483 2.7177 0.0000
vt -10.9588 2.7233 0.0000
vt -10.9582 2.7287 0.0000
vt -10.9625 2.7287 0.0000
vt -10.9484 2.7303 0.0000
vt -10.9489 2.7356 0.0000
vt -10.9539 2.7346 0.0000
vt -10.9524 2.7296 0.0000
vt -10.9630 2.7523 0.0000
vt -10.9577 2.7523 0.0000
vt -10.9573 2.7577 0.0000
vt -10.9634 2.7577 0.0000
vt -0.0369 -0.0051 0.0000
vt -0.0369 -0.0041 0.0000
vt -0.0367 0.0018 0.0000
vt -0.0309 0.0018 0.0000
vt -0.0308 0.0056 0.0000
vt -0.0369 0.0056 0.0000
vt -0.0400 0.0031 0.0000
vt -0.0349 0.0031 0.0000
vt -0.0345 0.0082 0.0000
vt -0.0403 0.0082 0.0000
vt -0.0353 0.0056 0.0000
vt -0.0349 0.0109 0.0000
vt -0.0400 0.0109 0.0000
vt -0.0395 0.0056 0.0000
vt -0.0353 0.0124 0.0000
vt -0.0395 0.0124 0.0000
vt -0.0389 0.0069 0.0000
vt -0.0382 0.0123 0.0000
vt -0.0376 0.0077 0.0000
vt -10.9345 2.7184 0.0000
vt -10.9352 2.7241 0.0000
vt -10.9367 2.7237 0.0000
vt -10.9452 2.7237 0.0000
vt -10.9359 2.7263 0.0000
vt -10.9365 2.7317 0.0000
vt -10.9405 2.7308 0.0000
vt -10.9387 2.7256 0.0000
vt -10.9446 2.7304 0.0000
vt -10.9441 2.7357 0.0000
vt -10.9437 2.7410 0.0000
vt -10.9498 2.7410 0.0000
vt -0.0405 -0.0051 0.0000
vt -0.0344 -0.0051 0.0000
vt -0.0344 -0.0041 0.0000
vt -0.0405 -0.0041 0.0000
vt -0.0403 -0.0006 0.0000
vt -0.0345 -0.0006 0.0000
vt -0.0414 0.0031 0.0000
vt -0.0410 -0.0020 0.0000
vt -0.0359 -0.0020 0.0000
vt -0.0359 0.0038 0.0000
vt -0.0370 -0.0017 0.0000
vt -0.0399 -0.0017 0.0000
vt -0.0370 0.0033 0.0000
vt -0.0383 -0.0022 0.0000
vt -10.9329 2.7240 0.0000
vt -10.9249 2.7278 0.0000
vt -10.9257 2.7333 0.0000
vt -10.9284 2.7326 0.0000
vt -10.9263 2.7274 0.0000
vt -10.9321 2.7262 0.0000
vt -10.9315 2.7316 0.0000
vt -10.9258 2.7377 0.0000
vt -10.9263 2.7429 0.0000
vt -10.9313 2.7419 0.0000
vt -10.9298 2.7369 0.0000
vt -10.9306 2.7576 0.0000
vt -10.9367 2.7576 0.0000
vt -10.9363 2.7522 0.0000
vt -10.9310 2.7522 0.0000
vt -0.0415 -0.0041 0.0000
vt -0.0415 -0.0051 0.0000
vt -0.0354 -0.0051 0.0000
vt -0.0354 -0.0041 0.0000
vt -0.0354 0.0007 0.0000
vt -0.0415 0.0007 0.0000
vt -0.0339 -0.0019 0.0000
vt -0.0394 -0.0070 0.0000
vt -0.0343 -0.0070 0.0000
vt -0.0348 -0.0085 0.0000
vt -0.0394 -0.0032 0.0000
vt -0.0389 -0.0085 0.0000
vt -0.0354 -0.0101 0.0000
vt -0.0389 -0.0047 0.0000
vt -0.0383 -0.0101 0.0000
vt -0.0361 -0.0118 0.0000
vt -0.0354 -0.0061 0.0000
vt -0.0383 -0.0061 0.0000
vt -0.0376 -0.0118 0.0000
vt -0.0361 -0.0075 0.0000
vt -0.0376 -0.0075 0.0000
vt -10.9160 2.7342 0.0000
vt -10.9168 2.7399 0.0000
vt -10.9182 2.7395 0.0000
vt -10.9211 2.7274 0.0000
vt -10.9204 2.7330 0.0000
vt -10.9234 2.7330 0.0000
vt -10.9227 2.7274 0.0000
vt -10.9177 2.7453 0.0000
vt -10.9217 2.7444 0.0000
vt -10.9198 2.7393 0.0000
vt -10.9197 2.7374 0.0000
vt -10.9192 2.7426 0.0000
vt -10.9246 2.7426 0.0000
vt -10.9241 2.7374 0.0000
vt -10.9189 2.7480 0.0000
vt -10.9250 2.7480 0.0000
vt -0.0298 -0.0066 0.0000
vt -0.0302 -0.0117 0.0000
vt -0.0307 -0.0150 0.0000
vt -0.0302 -0.0097 0.0000
vt -0.0348 -0.0150 0.0000
vt -0.0313 -0.0180 0.0000
vt -0.0348 -0.0125 0.0000
vt -0.0342 -0.0180 0.0000
vt -0.0320 -0.0205 0.0000
vt -0.0335 -0.0205 0.0000
vt -0.0320 -0.0166 0.0000
vt -0.0335 -0.0166 0.0000
vt -10.9123 2.7337 0.0000
vt -10.9115 2.7394 0.0000
vt -10.9131 2.7394 0.0000
vt -10.9109 2.7472 0.0000
vt -10.9117 2.7528 0.0000
vt -10.9145 2.7521 0.0000
vt -10.9124 2.7469 0.0000
vt -10.9102 2.7449 0.0000
vt -10.9145 2.7449 0.0000
vt -10.9118 2.7575 0.0000
vt -10.9167 2.7565 0.0000
vt -10.9093 2.7572 0.0000
vt -10.9154 2.7572 0.0000
vt -10.9096 2.7518 0.0000
vt -0.0297 -0.0051 0.0000
vt -0.0297 -0.0041 0.0000
vt -0.0298 -0.0080 0.0000
vt -0.0235 -0.0105 0.0000
vt -0.0290 -0.0156 0.0000
vt -0.0238 -0.0156 0.0000
vt -0.0285 -0.0206 0.0000
vt -0.0243 -0.0206 0.0000
vt -0.0243 -0.0192 0.0000
vt -0.0285 -0.0192 0.0000
vt -0.0279 -0.0247 0.0000
vt -0.0250 -0.0247 0.0000
vt -0.0250 -0.0222 0.0000
vt -0.0279 -0.0222 0.0000
vt -0.0272 -0.0279 0.0000
vt -0.0257 -0.0279 0.0000
vt -0.0266 -0.0289 0.0000
vt -10.9179 2.7330 0.0000
vt -10.9157 2.7383 0.0000
vt -10.9171 2.7386 0.0000
vt -10.9041 2.7522 0.0000
vt -10.9071 2.7522 0.0000
vt -10.9064 2.7466 0.0000
vt -10.9048 2.7466 0.0000
vt -10.9091 2.7657 0.0000
vt -10.9131 2.7647 0.0000
vt -10.9112 2.7596 0.0000
vt -10.9084 2.7603 0.0000
vt -10.9029 2.7569 0.0000
vt -10.9083 2.7569 0.0000
vt -10.9025 2.7623 0.0000
vt -10.9086 2.7623 0.0000
vt -0.0234 -0.0062 0.0000
vt -0.0212 -0.0135 0.0000
vt -0.0208 -0.0186 0.0000
vt -0.0157 -0.0186 0.0000
vt -0.0154 -0.0135 0.0000
vt -0.0204 -0.0247 0.0000
vt -0.0162 -0.0247 0.0000
vt -0.0197 -0.0297 0.0000
vt -0.0168 -0.0297 0.0000
vt -0.0168 -0.0278 0.0000
vt -0.0197 -0.0278 0.0000
vt -0.0190 -0.0335 0.0000
vt -0.0175 -0.0335 0.0000
vt -0.0184 -0.0348 0.0000
vt -10.9013 2.7627 0.0000
vt -10.9006 2.7686 0.0000
vt -10.9036 2.7686 0.0000
vt -10.8999 2.7649 0.0000
vt -10.9043 2.7649 0.0000
vt -10.9036 2.7595 0.0000
vt -10.9006 2.7595 0.0000
vt -10.8994 2.7705 0.0000
vt -10.9048 2.7705 0.0000
vt -10.9052 2.7660 0.0000
vt -10.9048 2.7610 0.0000
vt -10.8994 2.7610 0.0000
vt -10.8991 2.7660 0.0000
vt -0.0213 -0.0041 0.0000
vt -0.0213 -0.0051 0.0000
vt -0.0152 -0.0051 0.0000
vt -0.0152 -0.0041 0.0000
vt -0.0213 -0.0077 0.0000
vt -0.0212 -0.0115 0.0000
vt -0.0154 -0.0115 0.0000
vt -0.0152 -0.0077 0.0000
vt -0.0118 -0.0153 0.0000
vt -0.0115 -0.0204 0.0000
vt -0.0063 -0.0204 0.0000
vt -0.0060 -0.0153 0.0000
vt -0.0063 -0.0220 0.0000
vt -0.0115 -0.0220 0.0000
vt -0.0110 -0.0273 0.0000
vt -0.0068 -0.0273 0.0000
vt -0.0104 -0.0328 0.0000
vt -0.0074 -0.0328 0.0000
vt -0.0074 -0.0312 0.0000
vt -0.0104 -0.0312 0.0000
vt -0.0096 -0.0369 0.0000
vt -0.0081 -0.0369 0.0000
vt -0.0081 -0.0338 0.0000
vt -0.0096 -0.0338 0.0000
vt -0.0091 -0.0384 0.0000
vt -10.9117 2.7828 0.0000
vt -10.9125 2.7885 0.0000
vt -10.9139 2.7881 0.0000
vt -10.9006 2.7760 0.0000
vt -10.9037 2.7760 0.0000
vt -10.9030 2.7705 0.0000
vt -10.9014 2.7705 0.0000
vt -10.9170 2.7863 0.0000
vt -10.9152 2.7812 0.0000
vt -10.9124 2.7818 0.0000
vt -10.8995 2.7748 0.0000
vt -10.9049 2.7748 0.0000
vt -10.9052 2.7801 0.0000
vt -10.8991 2.7801 0.0000
vt -0.0119 -0.0041 0.0000
vt -0.0119 -0.0051 0.0000
vt -0.0059 -0.0051 0.0000
vt -0.0059 -0.0041 0.0000
vt -0.0119 -0.0086 0.0000
vt -0.0118 -0.0124 0.0000
vt -0.0060 -0.0124 0.0000
vt -0.0059 -0.0086 0.0000
vt -0.0015 -0.0210 0.0000
vt 0.0037 -0.0210 0.0000
vt 0.0040 -0.0159 0.0000
vt -0.0018 -0.0159 0.0000
vt 0.0037 -0.0227 0.0000
vt -0.0015 -0.0227 0.0000
vt -0.0010 -0.0280 0.0000
vt 0.0032 -0.0280 0.0000
vt -0.0004 -0.0336 0.0000
vt 0.0025 -0.0336 0.0000
vt 0.0025 -0.0322 0.0000
vt -0.0004 -0.0322 0.0000
vt 0.0003 -0.0378 0.0000
vt 0.0018 -0.0378 0.0000
vt 0.0018 -0.0348 0.0000
vt 0.0003 -0.0348 0.0000
vt 0.0009 -0.0394 0.0000
vt -10.9057 2.7820 0.0000
vt -10.9049 2.7877 0.0000
vt -10.9065 2.7877 0.0000
vt -10.9194 2.7990 0.0000
vt -10.9222 2.7982 0.0000
vt -10.9201 2.7930 0.0000
vt -10.9186 2.7934 0.0000
vt -10.9036 2.7865 0.0000
vt -10.9079 2.7865 0.0000
vt -10.9073 2.7810 0.0000
vt -10.9042 2.7810 0.0000
vt -10.9193 2.7920 0.0000
vt -10.9243 2.7910 0.0000
vt -10.9228 2.7860 0.0000
vt -10.9188 2.7868 0.0000
vt -10.9084 2.7737 0.0000
vt -10.9030 2.7737 0.0000
vt -10.9027 2.7788 0.0000
vt -10.9088 2.7788 0.0000
vt -0.0019 -0.0051 0.0000
vt 0.0041 -0.0051 0.0000
vt 0.0041 -0.0041 0.0000
vt -0.0019 -0.0041 0.0000
vt -0.0018 -0.0126 0.0000
vt 0.0040 -0.0126 0.0000
vt 0.0041 -0.0088 0.0000
vt -0.0019 -0.0088 0.0000
vt 0.0084 -0.0201 0.0000
vt 0.0136 -0.0201 0.0000
vt 0.0139 -0.0151 0.0000
vt 0.0081 -0.0151 0.0000
vt 0.0136 -0.0216 0.0000
vt 0.0084 -0.0216 0.0000
vt 0.0089 -0.0269 0.0000
vt 0.0131 -0.0269 0.0000
vt 0.0095 -0.0323 0.0000
vt 0.0125 -0.0323 0.0000
vt 0.0125 -0.0307 0.0000
vt 0.0095 -0.0307 0.0000
vt 0.0103 -0.0363 0.0000
vt 0.0118 -0.0363 0.0000
vt 0.0108 -0.0378 0.0000
vt -10.9270 2.8026 0.0000
vt -10.9278 2.8083 0.0000
vt -10.9292 2.8079 0.0000
vt -10.9110 2.7982 0.0000
vt -10.9141 2.7982 0.0000
vt -10.9134 2.7927 0.0000
vt -10.9118 2.7927 0.0000
vt -10.9285 2.8042 0.0000
vt -10.9325 2.8033 0.0000
vt -10.9306 2.7982 0.0000
vt -10.9278 2.7988 0.0000
vt -10.9099 2.7913 0.0000
vt -10.9153 2.7913 0.0000
vt -10.9147 2.7861 0.0000
vt -10.9104 2.7861 0.0000
vt -10.9095 2.7967 0.0000
vt -10.9156 2.7967 0.0000
vt 0.0080 -0.0051 0.0000
vt 0.0140 -0.0051 0.0000
vt 0.0140 -0.0041 0.0000
vt 0.0080 -0.0041 0.0000
vt 0.0081 -0.0122 0.0000
vt 0.0139 -0.0122 0.0000
vt 0.0140 -0.0084 0.0000
vt 0.0080 -0.0084 0.0000
vt 0.0176 -0.0181 0.0000
vt 0.0227 -0.0181 0.0000
vt 0.0231 -0.0130 0.0000
vt 0.0173 -0.0130 0.0000
vt 0.0181 -0.0240 0.0000
vt 0.0222 -0.0240 0.0000
vt 0.0187 -0.0288 0.0000
vt 0.0216 -0.0288 0.0000
vt 0.0216 -0.0268 0.0000
vt 0.0187 -0.0268 0.0000
vt 0.0194 -0.0324 0.0000
vt 0.0209 -0.0324 0.0000
vt 0.0200 -0.0337 0.0000
vt -10.9222 2.8020 0.0000
vt -10.9214 2.8076 0.0000
vt -10.9230 2.8076 0.0000
vt -10.9390 2.8133 0.0000
vt -10.9418 2.8126 0.0000
vt -10.9397 2.8073 0.0000
vt -10.9383 2.8077 0.0000
vt -10.9200 2.8036 0.0000
vt -10.9244 2.8036 0.0000
vt -10.9237 2.7982 0.0000
vt -10.9207 2.7982 0.0000
vt -10.9394 2.8027 0.0000
vt -10.9443 2.8017 0.0000
vt -10.9429 2.7967 0.0000
vt -10.9388 2.7975 0.0000
vt -10.9249 2.7839 0.0000
vt -10.9195 2.7839 0.0000
vt -10.9192 2.7889 0.0000
vt -10.9253 2.7889 0.0000
vt 0.0171 -0.0051 0.0000
vt 0.0171 -0.0041 0.0000
vt 0.0173 -0.0112 0.0000
vt 0.0231 -0.0112 0.0000
vt 0.0232 -0.0074 0.0000
vt 0.0171 -0.0074 0.0000
vt 0.0250 -0.0098 0.0000
vt 0.0254 -0.0149 0.0000
vt 0.0305 -0.0149 0.0000
vt 0.0309 -0.0098 0.0000
vt 0.0259 -0.0195 0.0000
vt 0.0300 -0.0195 0.0000
vt 0.0300 -0.0179 0.0000
vt 0.0259 -0.0179 0.0000
vt 0.0265 -0.0233 0.0000
vt 0.0294 -0.0233 0.0000
vt 0.0294 -0.0208 0.0000
vt 0.0265 -0.0208 0.0000
vt 0.0272 -0.0264 0.0000
vt 0.0287 -0.0264 0.0000
vt -10.9502 2.8175 0.0000
vt -10.9516 2.8171 0.0000
vt -10.9494 2.8118 0.0000
vt -10.9325 2.8128 0.0000
vt -10.9355 2.8128 0.0000
vt -10.9348 2.8072 0.0000
vt -10.9332 2.8072 0.0000
vt -10.9513 2.8122 0.0000
vt -10.9553 2.8112 0.0000
vt -10.9534 2.8061 0.0000
vt -10.9506 2.8067 0.0000
vt -10.9313 2.8022 0.0000
vt -10.9367 2.8022 0.0000
vt -10.9362 2.7970 0.0000
vt -10.9318 2.7970 0.0000
vt -10.9371 2.7551 0.0000
vt -10.9367 2.7497 0.0000
vt -10.9313 2.7497 0.0000
vt -10.9309 2.7551 0.0000
vt 0.0249 -0.0041 0.0000
vt 0.0249 -0.0051 0.0000
vt 0.0310 -0.0051 0.0000
vt 0.0310 -0.0041 0.0000
vt 0.0364 -0.0107 0.0000
vt 0.0367 -0.0056 0.0000
vt 0.0313 -0.0084 0.0000
vt 0.0318 -0.0137 0.0000
vt 0.0359 -0.0137 0.0000
vt 0.0364 -0.0084 0.0000
vt 0.0318 -0.0109 0.0000
vt 0.0324 -0.0164 0.0000
vt 0.0353 -0.0164 0.0000
vt 0.0331 -0.0187 0.0000
vt 0.0346 -0.0187 0.0000
vt 0.0331 -0.0148 0.0000
vt 0.0346 -0.0148 0.0000
vt -10.9464 2.8172 0.0000
vt -10.9479 2.8172 0.0000
vt -10.9471 2.8115 0.0000
vt -10.9658 2.8152 0.0000
vt -10.9637 2.8100 0.0000
vt -10.9622 2.8104 0.0000
vt -10.9630 2.8160 0.0000
vt -10.9487 2.8064 0.0000
vt -10.9456 2.8064 0.0000
vt -10.9450 2.8119 0.0000
vt -10.9690 2.8037 0.0000
vt -10.9675 2.7986 0.0000
vt -10.9635 2.7994 0.0000
vt -10.9640 2.8046 0.0000
vt -10.9502 2.7938 0.0000
vt -10.9498 2.7888 0.0000
vt -10.9444 2.7888 0.0000
vt -10.9441 2.7938 0.0000
vt 0.0369 -0.0041 0.0000
vt 0.0345 -0.0009 0.0000
vt 0.0349 -0.0060 0.0000
vt 0.0400 -0.0060 0.0000
vt 0.0403 -0.0009 0.0000
vt 0.0353 -0.0070 0.0000
vt 0.0395 -0.0070 0.0000
vt 0.0353 -0.0029 0.0000
vt 0.0389 -0.0083 0.0000
vt 0.0395 -0.0029 0.0000
vt 0.0382 -0.0098 0.0000
vt 0.0389 -0.0041 0.0000
vt 0.0382 -0.0054 0.0000
vt -10.9738 2.8137 0.0000
vt -10.9752 2.8133 0.0000
vt -10.9730 2.8080 0.0000
vt -10.9599 2.8103 0.0000
vt -10.9592 2.8159 0.0000
vt -10.9793 2.8079 0.0000
vt -10.9775 2.8028 0.0000
vt -10.9747 2.8034 0.0000
vt -10.9753 2.8088 0.0000
vt -10.9586 2.7993 0.0000
vt -10.9580 2.8045 0.0000
vt -10.9638 2.7550 0.0000
vt -10.9634 2.7496 0.0000
vt -10.9580 2.7496 0.0000
vt -10.9577 2.7550 0.0000
vt 0.0344 -0.0041 0.0000
vt 0.0405 -0.0041 0.0000
vt 0.0359 -0.0009 0.0000
vt 0.0414 0.0042 0.0000
vt 0.0355 0.0042 0.0000
vt 0.0359 0.0053 0.0000
vt 0.0410 0.0053 0.0000
vt 0.0370 0.0002 0.0000
vt 0.0399 0.0002 0.0000
vt 0.0370 0.0053 0.0000
vt 0.0399 0.0053 0.0000
vt 0.0386 -0.0001 0.0000
vt -10.9562 2.8171 0.0000
vt -10.9576 2.8174 0.0000
vt -10.9584 2.8118 0.0000
vt -10.9877 2.8055 0.0000
vt -10.9856 2.8003 0.0000
vt -10.9842 2.8007 0.0000
vt -10.9849 2.8063 0.0000
vt -10.9566 2.8121 0.0000
vt -10.9572 2.8067 0.0000
vt -10.9526 2.8112 0.0000
vt -10.9916 2.7963 0.0000
vt -10.9901 2.7913 0.0000
vt -10.9861 2.7921 0.0000
vt -10.9866 2.7973 0.0000
vt -10.9567 2.7890 0.0000
vt -10.9516 2.7883 0.0000
vt -10.9563 2.7940 0.0000
vt 0.0415 -0.0051 0.0000
vt 0.0415 -0.0041 0.0000
vt 0.0354 -0.0041 0.0000
vt 0.0414 -0.0026 0.0000
vt 0.0415 0.0012 0.0000
vt 0.0354 0.0012 0.0000
vt 0.0343 0.0041 0.0000
vt 0.0394 0.0041 0.0000
vt 0.0398 0.0092 0.0000
vt 0.0339 0.0092 0.0000
vt 0.0343 0.0124 0.0000
vt 0.0348 0.0071 0.0000
vt 0.0389 0.0071 0.0000
vt 0.0394 0.0124 0.0000
vt 0.0348 0.0142 0.0000
vt 0.0354 0.0087 0.0000
vt 0.0383 0.0087 0.0000
vt 0.0389 0.0142 0.0000
vt 0.0361 0.0143 0.0000
vt 0.0370 0.0098 0.0000
vt 0.0376 0.0143 0.0000
vt -10.9848 2.8074 0.0000
vt -10.9864 2.8074 0.0000
vt -10.9856 2.8017 0.0000
vt -10.9871 2.8133 0.0000
vt -10.9841 2.8133 0.0000
vt -10.9878 2.8034 0.0000
vt -10.9841 2.7980 0.0000
vt -10.9834 2.8034 0.0000
vt -10.9883 2.8090 0.0000
vt -10.9829 2.8090 0.0000
vt -10.9883 2.7838 0.0000
vt -10.9829 2.7838 0.0000
vt -10.9825 2.7888 0.0000
vt -10.9886 2.7888 0.0000
vt 0.0338 -0.0051 0.0000
vt 0.0298 0.0139 0.0000
vt 0.0302 0.0189 0.0000
vt 0.0353 0.0189 0.0000
vt 0.0307 0.0220 0.0000
vt 0.0313 0.0165 0.0000
vt 0.0342 0.0165 0.0000
vt 0.0348 0.0220 0.0000
vt 0.0313 0.0235 0.0000
vt 0.0320 0.0178 0.0000
vt 0.0335 0.0178 0.0000
vt 0.0342 0.0235 0.0000
vt 0.0329 0.0189 0.0000
vt -10.9808 2.8024 0.0000
vt -10.9967 2.7980 0.0000
vt -10.9959 2.7924 0.0000
vt -10.9944 2.7924 0.0000
vt -10.9936 2.7980 0.0000
vt -10.9793 2.8041 0.0000
vt -10.9799 2.7986 0.0000
vt -10.9771 2.7980 0.0000
vt -10.9979 2.7911 0.0000
vt -10.9973 2.7859 0.0000
vt -10.9930 2.7859 0.0000
vt -10.9925 2.7911 0.0000
vt -10.9982 2.7965 0.0000
vt 0.0298 0.0023 0.0000
vt 0.0357 0.0023 0.0000
vt 0.0297 0.0061 0.0000
vt -11.0023 2.7709 0.0000
vt -11.0084 2.7709 0.0000
vt -10.9989 2.7837 0.0000
vt -11.0049 2.7837 0.0000
vt -11.0084 2.7562 0.0000
vt -11.0023 2.7562 0.0000
vt -10.9980 2.7590 0.0000
vt -10.9919 2.7590 0.0000
vt -10.9052 2.7562 0.0000
vt -10.8991 2.7562 0.0000
vt -10.9027 2.7838 0.0000
vt -10.9088 2.7838 0.0000
vt -10.9156 2.7555 0.0000
vt -10.9095 2.7555 0.0000
vt -10.9095 2.7602 0.0000
vt -10.9156 2.7602 0.0000
vt -10.9825 2.7939 0.0000
vt -10.9921 2.7555 0.0000
vt -10.9921 2.7603 0.0000
vt -10.9982 2.7603 0.0000
vt -10.9982 2.7555 0.0000
vt -10.9111 2.7555 0.0000
vt -10.9370 2.7598 0.0000
vt -10.9310 2.7598 0.0000
vt -10.9698 2.7598 0.0000
vt -10.9699 2.7550 0.0000
vt -10.9641 2.7597 0.0000
vt -10.9577 2.7597 0.0000
vt -10.9876 2.7553 0.0000
vt -10.9876 2.7600 0.0000
vt -10.9933 2.7601 0.0000
vt -10.9934 2.7553 0.0000
vt -10.9883 2.7622 0.0000
vt -10.9822 2.7622 0.0000
vt -10.9682 2.7577 0.0000
vt -10.9624 2.7624 0.0000
vt -10.9681 2.7625 0.0000
vt -10.9573 2.7624 0.0000
vt -10.9428 2.7576 0.0000
vt -10.9370 2.7623 0.0000
vt -10.9428 2.7624 0.0000
vt -10.9306 2.7623 0.0000
vt -10.9227 2.7619 0.0000
vt -10.9227 2.7572 0.0000
vt -10.9170 2.7619 0.0000
vt -10.9154 2.7619 0.0000
vt -10.9133 2.7613 0.0000
vt -10.9134 2.7565 0.0000
# 898 texture coords

g Layer0_001
usemtl skp_front_default
s off
f 1/1/1 2/1/1 3/1/2 4/1/2 
f 5/1/3 6/1/4 7/1/4 8/1/3 
f 6/1/4 9/1/5 10/1/5 7/1/4 
f 11/1/6 5/1/3 8/1/3 12/1/6 
f 13/1/7 11/1/6 12/1/6 14/1/7 
f 15/1/8 13/1/7 14/1/7 16/1/8 
f 17/1/9 18/1/9 15/1/8 16/1/8 
f 19/1/10 20/1/10 18/1/9 17/1/9 
f 21/1/11 22/1/11 20/1/10 19/1/10 
f 23/1/12 22/1/11 21/1/11 24/1/12 
f 25/1/13 23/1/12 24/1/12 26/1/13 
f 3/1/2 25/1/13 26/1/13 4/1/2 
f 9/1/5 27/1/14 28/1/14 10/1/5 
f 28/1/14 27/1/14 29/1/15 30/1/15 
f 30/1/15 29/1/15 31/1/16 32/1/16 
f 32/1/16 31/1/16 33/1/17 34/1/17 
f 33/1/17 35/1/18 36/1/18 34/1/17 
f 35/1/18 37/1/19 38/1/19 36/1/18 
f 37/1/19 39/1/20 40/1/20 38/1/19 
f 40/1/20 39/1/20 41/1/21 42/1/21 
f 42/1/21 41/1/21 43/1/22 44/1/22 
f 44/1/22 43/1/22 45/1/23 46/1/23 
f 46/1/23 45/1/23 47/1/24 48/1/24 
f 48/1/24 47/1/24 2/1/1 1/1/1 
f 49/1/25 50/1/25 51/1/25 52/1/25 
f 53/1/25 49/1/25 52/1/25 54/1/25 
f 55/1/25 53/1/25 54/1/25 56/1/25 
f 57/1/25 55/1/25 56/1/25 58/1/25 
f 59/1/25 57/1/25 58/1/25 60/1/25 
f 61/1/25 59/1/25 60/1/25 62/1/25 
f 63/1/25 61/1/25 62/1/25 64/1/25 
f 65/1/25 63/1/25 64/1/25 66/1/25 
f 67/1/25 65/1/25 66/1/25 68/1/25 
f 69/1/25 67/1/25 68/1/25 70/1/25 
f 71/1/25 69/1/25 70/1/25 72/1/25 
f 12/1/26 8/1/26 7/1/26 14/1/26 
f 14/1/26 7/1/26 10/1/26 16/1/26 
f 16/1/26 10/1/26 28/1/26 17/1/26 
f 17/1/26 28/1/26 30/1/26 19/1/26 
f 19/1/26 30/1/26 32/1/26 21/1/26 
f 21/1/26 32/1/26 34/1/26 24/1/26 
f 24/1/26 34/1/26 36/1/26 26/1/26 
f 26/1/26 36/1/26 38/1/26 4/1/26 
f 4/1/26 38/1/26 40/1/26 1/1/26 
f 1/1/26 40/1/26 42/1/26 48/1/26 
f 48/1/26 42/1/26 44/1/26 46/1/26 
f 73/1/27 74/1/28 25/1/28 3/1/27 
f 75/1/29 73/1/27 3/1/27 2/1/29 
f 76/1/30 75/1/29 2/1/29 47/1/30 
f 77/1/31 76/1/30 47/1/30 45/1/31 
f 43/1/32 78/1/32 77/1/31 45/1/31 
f 41/1/33 79/1/33 78/1/32 43/1/32 
f 39/1/34 80/1/34 79/1/33 41/1/33 
f 37/1/35 81/1/35 80/1/34 39/1/34 
f 35/1/36 82/1/36 81/1/35 37/1/35 
f 33/1/37 83/1/37 82/1/36 35/1/36 
f 33/1/37 31/1/38 84/1/38 83/1/37 
f 31/1/38 29/1/39 85/1/39 84/1/38 
f 29/1/39 27/1/40 86/1/40 85/1/39 
f 27/1/40 9/1/41 87/1/41 86/1/40 
f 9/1/41 6/1/42 88/1/42 87/1/41 
f 6/1/42 5/1/43 89/1/43 88/1/42 
f 89/1/43 5/1/43 11/1/44 90/1/44 
f 90/1/44 11/1/44 13/1/45 91/1/45 
f 91/1/45 13/1/45 15/1/46 92/1/46 
f 92/1/46 15/1/46 18/1/47 93/1/47 
f 93/1/47 18/1/47 20/1/48 94/1/48 
f 94/1/48 20/1/48 22/1/49 95/1/49 
f 95/1/49 22/1/49 23/1/50 96/1/50 
f 74/1/28 96/1/50 23/1/50 25/1/28 
usemtl _Translucent_Glass_Sky_Reflection_1
f 97/2/51 98/3/52 99/4/53 100/5/54 
f 101/6/55 102/7/56 97/8/51 100/9/54 
f 103/10/57 104/11/58 102/12/56 101/13/55 
f 105/14/59 106/15/60 104/16/58 103/17/57 
f 107/18/61 108/18/62 106/16/60 105/17/59 
f 109/19/59 110/20/63 111/21/60 
f 109/22/59 111/23/60 112/24/58 113/25/57 
f 113/26/57 112/27/58 114/28/56 115/29/55 
f 115/30/55 114/31/56 116/32/51 117/23/54 
f 116/33/51 118/34/64 119/35/65 117/36/54 
f 120/37/66 121/38/67 71/39/6 72/40/3 
f 98/41/52 121/42/67 120/43/66 99/44/53 
f 122/45/68 123/46/69 98/47/52 97/48/51 
f 102/49/56 124/50/70 122/51/68 97/52/51 
f 104/53/58 125/54/71 124/55/70 102/56/56 
f 106/57/60 126/58/72 125/59/71 104/60/58 
f 108/61/62 127/61/73 126/59/72 106/60/60 
f 111/62/60 110/63/63 128/64/72 
f 111/62/60 128/64/72 129/65/71 112/66/58 
f 112/67/58 129/68/71 130/69/70 114/70/56 
f 114/71/56 130/72/70 131/73/68 116/74/51 
f 131/73/68 132/75/74 118/76/64 116/74/51 
f 121/77/67 133/78/75 69/79/7 71/80/6 
f 123/81/69 133/82/75 121/83/67 98/84/52 
f 134/85/76 135/86/77 123/87/69 122/88/68 
f 124/89/70 136/90/78 134/91/76 122/92/68 
f 125/93/71 137/94/79 136/95/78 124/96/70 
f 126/97/72 138/98/80 137/99/79 125/100/71 
f 127/101/73 139/101/81 138/99/80 126/100/72 
f 128/70/72 110/102/63 140/103/80 
f 128/104/72 140/105/80 141/106/79 129/107/71 
f 129/108/71 141/109/79 142/69/78 130/110/70 
f 130/111/70 142/107/78 143/112/76 131/113/68 
f 143/114/76 144/115/82 132/116/74 131/117/68 
f 133/118/75 145/119/83 67/120/8 69/121/7 
f 135/122/77 145/123/83 133/124/75 123/125/69 
f 135/126/77 134/127/76 146/128/84 147/129/85 
f 136/130/78 148/131/86 146/132/84 134/133/76 
f 137/134/79 149/135/87 148/136/86 136/137/78 
f 138/138/80 150/139/88 149/140/87 137/141/79 
f 139/142/81 151/142/89 150/140/88 138/141/80 
f 140/143/80 110/144/63 152/145/88 
f 140/146/80 152/147/88 153/148/87 141/149/79 
f 141/150/79 153/143/87 154/151/86 142/152/78 
f 142/149/78 154/148/86 155/153/84 143/102/76 
f 144/103/82 143/102/76 155/153/84 156/154/90 
f 67/155/8 145/156/83 157/157/91 65/158/9 
f 145/159/83 135/160/77 147/161/85 157/162/91 
f 147/163/85 146/164/84 158/165/92 159/166/93 
f 148/167/86 160/168/94 158/169/92 146/170/84 
f 149/171/87 161/172/95 160/173/94 148/174/86 
f 150/175/88 162/176/96 161/177/95 149/178/87 
f 151/179/89 163/179/97 162/177/96 150/178/88 
f 152/180/88 110/105/63 164/181/96 
f 152/182/88 164/183/96 165/184/95 153/185/87 
f 153/186/87 165/187/95 166/188/94 154/189/86 
f 154/190/86 166/191/94 167/192/92 155/193/84 
f 156/194/90 155/195/84 167/196/92 168/188/98 
f 65/197/9 157/198/91 169/199/99 63/200/10 
f 157/201/91 147/202/85 159/203/93 169/204/99 
f 159/205/93 158/206/92 170/207/100 171/208/101 
f 160/209/94 172/210/102 170/211/100 158/212/92 
f 161/213/95 173/214/103 172/215/102 160/216/94 
f 162/217/96 174/218/104 173/219/103 161/220/95 
f 163/221/97 175/221/105 174/219/104 162/220/96 
f 164/222/96 110/223/63 176/224/104 
f 164/222/96 176/224/104 177/191/103 165/225/95 
f 165/226/95 177/227/103 178/191/102 166/225/94 
f 166/225/94 178/191/102 179/228/100 167/229/92 
f 168/230/98 167/231/92 179/232/100 180/233/106 
f 63/234/10 169/235/99 181/236/107 61/237/11 
f 169/238/99 159/239/93 171/240/101 181/241/107 
f 170/242/100 182/243/108 183/244/109 171/245/101 
f 184/244/110 182/246/108 170/247/100 172/245/102 
f 185/248/111 184/249/110 172/250/102 173/251/103 
f 186/252/112 185/253/111 173/254/103 174/255/104 
f 187/256/113 186/253/112 174/254/104 175/256/105 
f 176/257/104 110/258/63 188/259/112 
f 188/260/112 189/261/111 177/262/103 176/263/104 
f 189/264/111 190/265/110 178/266/102 177/267/103 
f 190/268/110 191/269/108 179/270/100 178/271/102 
f 179/270/100 191/269/108 192/272/114 180/273/106 
f 181/274/107 193/275/115 59/276/12 61/277/11 
f 171/278/101 183/279/109 193/280/115 181/281/107 
f 182/282/108 194/281/116 195/242/117 183/283/109 
f 196/284/118 194/245/116 182/285/108 184/283/110 
f 197/286/119 196/287/118 184/288/110 185/289/111 
f 198/290/120 197/291/119 185/292/111 186/293/112 
f 199/294/121 198/291/120 186/292/112 187/294/113 
f 110/295/63 200/257/120 188/257/112 
f 200/296/120 201/297/119 189/298/111 188/299/112 
f 201/300/119 202/301/118 190/302/110 189/267/111 
f 202/303/118 203/304/116 191/305/108 190/306/110 
f 191/307/108 203/308/116 204/309/122 192/310/114 
f 193/311/115 205/274/123 57/277/13 59/312/12 
f 183/313/109 195/314/117 205/315/123 193/316/115 
f 194/317/116 206/318/124 207/319/125 195/320/117 
f 208/321/126 206/322/124 194/323/116 196/324/118 
f 209/282/127 208/325/126 196/326/118 197/327/119 
f 210/282/128 209/283/127 197/326/119 198/327/120 
f 211/282/129 210/283/128 198/328/120 199/329/121 
f 110/330/63 212/331/128 200/332/120 
f 212/296/128 213/333/127 201/297/119 200/296/120 
f 213/334/127 214/335/126 202/336/118 201/337/119 
f 214/338/126 215/339/124 203/304/116 202/303/118 
f 203/304/116 215/339/124 216/340/130 204/341/122 
f 205/342/123 217/343/131 55/344/2 57/345/13 
f 195/346/117 207/347/125 217/318/131 205/317/123 
f 218/318/132 207/348/125 206/349/124 219/350/133 
f 220/350/134 219/351/133 206/348/124 208/346/126 
f 221/352/135 220/351/134 208/317/126 209/353/127 
f 222/352/136 221/354/135 209/317/127 210/353/128 
f 223/355/137 222/313/136 210/317/128 211/355/129 
f 110/330/63 224/356/136 212/331/128 
f 224/357/136 225/358/135 213/359/127 212/360/128 
f 225/361/135 226/362/134 214/335/126 213/334/127 
f 226/363/134 227/364/133 215/365/124 214/366/126 
f 228/367/138 216/368/130 215/369/124 227/370/133 
f 55/371/2 217/372/131 229/373/139 53/374/1 
f 229/375/139 217/376/131 207/345/125 218/374/132 
f 230/377/140 218/353/132 219/378/133 231/379/141 
f 232/380/142 231/344/141 219/381/133 220/382/134 
f 233/383/143 232/344/142 220/384/134 221/385/135 
f 234/386/144 233/387/143 221/388/135 222/389/136 
f 235/386/145 234/390/144 222/391/136 223/386/137 
f 110/392/63 236/393/144 224/394/136 
f 236/395/144 237/396/143 225/397/135 224/398/136 
f 237/393/143 238/399/142 226/400/134 225/401/135 
f 238/402/142 239/403/141 227/404/133 226/405/134 
f 240/406/146 228/407/138 227/404/133 239/403/141 
f 53/345/1 229/342/139 241/343/147 49/344/24 
f 241/377/147 229/353/139 218/342/132 230/343/140 
f 242/408/148 230/387/140 231/386/141 243/409/149 
f 244/410/150 243/411/149 231/383/141 232/412/142 
f 245/413/151 244/409/150 232/414/142 233/415/143 
f 246/416/152 245/410/151 233/412/143 234/417/144 
f 247/416/153 246/418/152 234/419/144 235/416/145 
f 110/420/63 248/421/152 236/422/144 
f 248/423/152 249/424/151 237/425/143 236/426/144 
f 249/421/151 250/427/150 238/428/142 237/422/143 
f 250/424/150 251/429/149 239/430/141 238/425/142 
f 252/431/154 240/432/146 239/425/141 251/433/149 
f 49/374/24 241/373/147 253/434/155 50/435/23 
f 253/434/155 241/373/147 230/380/140 242/436/148 
f 254/437/156 242/411/148 243/438/149 255/439/157 
f 255/439/157 243/438/149 244/440/150 256/441/158 
f 256/442/158 244/443/150 245/444/151 257/445/159 
f 257/446/159 245/447/151 246/448/152 258/449/160 
f 258/445/160 246/444/152 247/450/153 259/450/161 
f 110/451/63 260/452/160 248/453/152 
f 261/454/159 249/455/151 248/456/152 260/457/160 
f 262/458/158 250/459/150 249/460/151 261/461/159 
f 263/462/157 251/463/149 250/455/150 262/454/158 
f 264/464/162 252/465/154 251/463/149 263/462/157 
f 50/435/23 253/434/155 265/235/163 51/234/22 
f 265/466/163 253/408/155 242/411/148 254/437/156 
f 254/467/156 255/468/157 266/469/164 267/470/165 
f 266/469/164 255/468/157 256/471/158 268/472/166 
f 268/472/166 256/471/158 257/473/159 269/474/167 
f 269/475/167 257/476/159 258/477/160 270/478/168 
f 270/474/168 258/473/160 259/479/161 271/479/169 
f 110/462/63 272/480/168 260/464/160 
f 273/481/167 261/482/159 260/464/160 272/480/168 
f 274/483/166 262/484/158 261/485/159 273/486/167 
f 275/487/164 263/488/157 262/484/158 274/483/166 
f 264/489/162 263/490/157 275/491/164 276/492/170 
f 51/493/22 265/494/163 277/495/171 52/496/21 
f 265/497/163 254/498/156 267/499/165 277/500/171 
f 267/501/165 266/502/164 278/503/172 279/504/173 
f 278/505/172 266/506/164 268/507/166 280/508/174 
f 280/508/174 268/507/166 269/509/167 281/510/175 
f 281/511/175 269/512/167 270/513/168 282/514/176 
f 282/515/176 270/516/168 271/517/169 283/517/177 
f 110/518/63 284/519/176 272/520/168 
f 285/521/175 273/522/167 272/523/168 284/524/176 
f 286/520/174 274/525/166 273/526/167 285/527/175 
f 287/528/172 275/529/164 274/482/166 286/481/174 
f 276/530/170 275/529/164 287/528/172 288/531/178 
f 52/532/21 277/533/171 289/534/179 54/535/20 
f 277/536/171 267/537/165 279/538/173 289/539/179 
f 278/540/172 290/541/180 291/542/181 279/543/173 
f 290/544/180 278/545/172 280/546/174 292/547/182 
f 292/547/182 280/546/174 281/548/175 293/549/183 
f 293/550/183 281/551/175 282/552/176 294/553/184 
f 294/554/184 282/555/176 283/556/177 295/556/185 
f 110/557/63 296/558/184 284/559/176 
f 297/560/183 285/561/175 284/562/176 296/563/184 
f 298/564/182 286/565/174 285/566/175 297/567/183 
f 299/568/180 287/569/172 286/570/174 298/571/182 
f 287/572/172 299/573/180 300/574/186 288/575/178 
f 289/576/179 301/577/187 56/578/19 54/579/20 
f 279/580/173 291/581/181 301/582/187 289/583/179 
f 290/584/180 302/585/188 303/586/189 291/587/181 
f 302/588/188 290/589/180 292/590/182 304/591/190 
f 304/591/190 292/590/182 293/592/183 305/593/191 
f 305/594/191 293/595/183 294/596/184 306/597/192 
f 306/593/192 294/592/184 295/598/185 307/598/193 
f 110/599/63 308/600/192 296/601/184 
f 309/602/191 297/603/183 296/604/184 308/605/192 
f 310/606/190 298/607/182 297/608/183 309/609/191 
f 311/610/188 299/611/180 298/612/182 310/613/190 
f 299/611/180 311/610/188 312/614/194 300/615/186 
f 301/616/187 313/617/195 58/618/18 56/619/19 
f 291/620/181 303/621/189 313/622/195 301/623/187 
f 302/624/188 314/625/196 315/626/197 303/627/189 
f 314/625/196 302/624/188 304/628/190 316/629/198 
f 316/629/198 304/628/190 305/630/191 317/631/199 
f 317/632/199 305/633/191 306/634/192 318/635/200 
f 318/631/200 306/630/192 307/636/193 319/636/201 
f 110/637/63 320/638/200 308/639/192 
f 321/640/199 309/641/191 308/642/192 320/643/200 
f 322/644/198 310/645/190 309/646/191 321/647/199 
f 323/648/196 311/649/188 310/650/190 322/651/198 
f 311/652/188 323/653/196 324/654/202 312/655/194 
f 313/656/195 325/37/203 60/40/17 58/657/18 
f 303/658/189 315/659/197 325/660/203 313/661/195 
f 315/662/197 314/663/196 326/664/204 327/665/205 
f 326/664/204 314/663/196 316/666/198 328/667/206 
f 328/668/206 316/669/198 317/670/199 329/671/207 
f 329/672/207 317/673/199 318/674/200 330/675/208 
f 330/671/208 318/670/200 319/674/201 331/674/209 
f 332/676/208 320/677/200 110/678/63 
f 333/679/207 321/680/199 320/681/200 332/682/208 
f 334/683/206 322/684/198 321/685/199 333/686/207 
f 335/687/204 323/688/196 322/689/198 334/690/206 
f 324/691/202 323/692/196 335/693/204 336/694/210 
f 60/695/17 325/696/203 337/697/211 62/698/16 
f 325/696/203 315/662/197 327/665/205 337/697/211 
f 327/697/205 326/665/204 338/699/212 339/700/213 
f 326/701/204 328/702/206 340/703/214 338/704/212 
f 328/705/206 329/706/207 341/707/215 340/699/214 
f 329/702/207 330/708/208 342/709/216 341/703/215 
f 330/710/208 331/709/209 343/709/217 342/711/216 
f 344/712/216 332/713/208 110/714/63 
f 333/715/207 332/716/208 344/717/216 345/718/215 
f 334/678/206 333/719/207 345/720/215 346/721/214 
f 335/722/204 334/723/206 346/724/214 347/725/212 
f 336/726/210 335/727/204 347/728/212 348/729/218 
f 62/698/16 337/697/211 349/700/219 64/730/15 
f 337/698/211 327/701/205 339/704/213 349/730/219 
f 339/731/213 338/732/212 350/733/220 351/734/221 
f 338/731/212 340/735/214 352/736/222 350/734/220 
f 340/737/214 341/704/215 353/738/223 352/739/222 
f 341/730/215 342/699/216 354/740/224 353/741/223 
f 342/700/216 343/699/217 355/740/225 354/742/224 
f 356/743/224 344/744/216 110/745/63 
f 345/718/215 344/717/216 356/746/224 357/747/223 
f 346/748/214 345/749/215 357/750/223 358/751/222 
f 347/725/212 346/724/214 358/752/222 359/753/220 
f 348/754/218 347/755/212 359/756/220 360/757/226 
f 64/758/15 349/732/219 361/733/227 66/759/14 
f 349/731/219 339/732/213 351/733/221 361/734/227 
f 350/760/220 362/734/228 363/761/229 351/762/221 
f 350/763/220 352/760/222 364/734/230 362/764/228 
f 352/763/222 353/765/223 365/766/231 364/764/230 
f 353/767/223 354/765/224 366/766/232 365/768/231 
f 354/767/224 355/769/225 367/769/233 366/768/232 
f 368/770/232 356/771/224 110/772/63 
f 357/773/223 356/774/224 368/775/232 369/776/231 
f 358/777/222 357/778/223 369/685/231 370/779/230 
f 359/780/220 358/781/222 370/782/230 371/783/228 
f 359/784/220 371/785/228 372/726/234 360/786/226 
f 361/732/227 373/787/235 68/788/5 66/789/14 
f 351/737/221 363/790/229 373/791/235 361/792/227 
f 362/793/228 374/794/236 375/795/237 363/796/229 
f 362/797/228 364/798/230 376/799/238 374/800/236 
f 364/801/230 365/802/231 377/803/239 376/804/238 
f 365/801/231 366/802/232 378/803/240 377/804/239 
f 366/805/232 367/806/233 379/806/241 378/807/240 
f 380/808/240 368/809/232 110/810/63 
f 369/811/231 368/809/232 380/808/240 381/812/239 
f 370/813/230 369/783/231 381/814/239 382/815/238 
f 371/816/228 370/813/230 382/815/238 383/817/236 
f 371/818/228 383/819/236 384/820/242 372/821/234 
f 373/822/235 385/733/243 70/759/4 68/758/5 
f 363/731/229 375/734/237 385/794/243 373/793/235 
f 374/42/236 100/802/54 99/801/53 375/823/237 
f 374/824/236 376/823/238 101/801/55 100/825/54 
f 376/826/238 377/827/239 103/828/57 101/829/55 
f 377/830/239 378/831/240 105/832/59 103/833/57 
f 378/830/240 379/834/241 107/834/61 105/833/59 
f 109/748/59 380/748/240 110/835/63 
f 381/836/239 380/837/240 109/838/59 113/839/57 
f 382/840/238 381/841/239 113/842/57 115/750/55 
f 383/843/236 382/844/238 115/845/55 117/846/54 
f 383/843/236 117/846/54 119/780/65 384/847/242 
f 385/38/243 120/700/66 72/789/3 70/39/4 
f 375/848/237 99/849/53 120/763/66 385/850/243 
f 132/116/74 144/115/82 67/851/244 69/852/245 
f 119/35/65 118/34/64 71/853/246 72/854/247 
f 118/855/64 132/856/74 69/114/245 71/117/246 
f 67/103/244 144/67/82 156/153/90 65/154/248 
f 65/857/248 156/194/90 168/188/98 63/858/249 
f 52/487/250 51/488/251 264/489/162 276/492/170 
f 54/491/252 52/490/250 276/859/170 288/860/178 
f 288/575/178 300/574/186 56/861/253 54/862/252 
f 300/863/186 312/864/194 58/865/254 56/866/253 
f 384/820/242 70/867/255 68/22/256 372/821/234 
f 119/868/65 72/869/247 70/870/255 384/871/242 
f 312/872/194 324/859/202 60/490/257 58/460/254 
f 60/873/257 324/691/202 336/694/210 62/874/258 
f 62/875/258 336/876/210 348/754/218 64/877/259 
f 64/877/259 348/754/218 360/757/226 66/878/260 
f 372/879/234 68/880/256 66/881/260 360/882/226 
f 63/883/249 168/230/98 180/233/106 61/884/261 
f 180/885/106 192/310/114 59/886/262 61/887/261 
f 192/310/114 204/309/122 57/888/263 59/886/262 
f 204/889/122 216/368/130 55/890/264 57/891/263 
f 55/890/264 216/368/130 228/367/138 53/892/265 
f 53/893/265 228/894/138 240/430/146 49/895/266 
f 49/896/266 240/432/146 252/431/154 50/465/267 
f 50/897/267 252/898/154 264/463/162 51/461/251 
f 75/344/268 76/342/269 70/342/269 68/344/268 
f 76/434/269 77/373/270 72/373/270 70/434/269 
f 73/373/271 75/371/268 68/371/268 66/373/271 
f 66/342/271 64/344/272 74/344/272 73/342/271 
f 64/311/272 62/274/273 96/277/273 74/312/272 
f 62/277/273 60/276/274 95/276/274 96/277/273 
f 95/234/274 60/234/274 58/237/275 94/237/275 
f 94/197/275 58/197/275 56/200/276 93/200/276 
f 93/155/276 56/155/276 54/158/277 92/158/277 
f 52/120/278 91/120/278 92/121/277 54/121/277 
f 51/79/279 90/79/279 91/80/278 52/80/278 
f 51/40/279 50/39/280 89/39/280 90/40/279 
f 50/39/280 49/789/281 88/789/281 89/39/280 
f 49/758/281 53/759/282 87/759/282 88/758/281 
f 53/789/282 55/788/283 86/788/283 87/789/282 
f 86/758/283 55/758/283 57/759/284 85/759/284 
f 85/697/284 57/697/284 59/700/285 84/700/285 
f 84/695/285 59/696/285 61/697/286 83/697/286 
f 61/656/286 63/37/287 82/37/287 83/656/286 
f 63/616/287 65/617/288 81/617/288 82/616/287 
f 65/576/288 67/577/289 80/577/289 81/576/288 
f 80/533/289 67/533/289 69/534/290 79/534/290 
f 78/434/291 71/434/291 72/235/270 77/234/270 
f 79/494/290 69/494/290 71/495/291 78/495/291 
# 382 polygons - 24 triangles

