# Made in Blockbench 5.0.5
mtllib model.mtl

o cube
v 0.375 0.21882625 0.440625
v 0.375 0.21882625 0.0625
v 0.375 0.10945125 0.440625
v 0.375 0.10945125 0.0625
v -0.375 0.21882625 0.440625
v -0.375 0.21882625 0.0625
v -0.375 0.10945125 0.440625
v -0.375 0.10945125 0.0625
v 0.375 0.684203125 0.059751874999999996
v 0.375 0.192015625 0.059751874999999996
v 0.375 0.192015625 -0.09024812500000001
v 0.375 0.684203125 -0.09024812500000001
v -0.375 0.192015625 -0.09024812500000001
v -0.375 0.192015625 0.059751874999999996
v -0.375 0.684203125 0.059751874999999996
v -0.375 0.684203125 -0.09024812500000001
v 0.28125 0.192015625 0.403501875
v 0.28125 0.629515625 0.403501875
v -0.28125 0.629515625 0.403501875
v -0.28125 0.192015625 0.403501875
v -0.28125 0.684203125 -0.183998125
v 0.28125 0.684203125 -0.183998125
v 0.28125 0.192015625 -0.183998125
v -0.28125 0.192015625 -0.183998125
v 0.28125 0.109984375 -0.09024812500000001
v 0.28125 0.164671875 0.034751875
v -0.28125 0.164671875 0.034751875
v -0.28125 0.109984375 -0.09024812500000001
v -0.28125 0.766234375 0.059751874999999996
v 0.28125 0.766234375 0.059751874999999996
v 0.28125 0.766234375 -0.09024812500000001
v -0.28125 0.766234375 -0.09024812500000001
v 0.1271325 0.492796875 -0.583998125
v 0.118455 0.656859375 -0.55823
v 0.398103125 0.656859375 -0.423000625
v 0.4296225 0.492796875 -0.43405125
v 0.1097775 0.164671875 -0.48558749999999995
v 0.118455 0.328734375 -0.5660425
v 0.405915625 0.328734375 -0.423000625
v 0.382208125 0.164671875 -0.41194937499999995
v -0.131941875 0.492796875 -0.583998125
v -0.123264375 0.656859375 -0.55823
v -0.1145875 0.164671875 -0.48558749999999995
v -0.123264375 0.328734375 -0.5660425
v -0.434431875 0.492796875 -0.44967625
v -0.4029125 0.656859375 -0.430813125
v -0.387018125 0.164671875 -0.41194937499999995
v -0.410725 0.328734375 -0.430813125
v 0.1097775 0.820921875 -0.48558749999999995
v -0.1145875 0.820921875 -0.48558749999999995
v -0.371393125 0.820921875 -0.41194937499999995
v 0.366583125 0.820921875 -0.41194937499999995
v 0.4375 0.820921875 -0.496498125
v 0.375 0.820921875 -0.496498125
v 0.375 0.820921875 -0.371498125
v 0.4375 0.820921875 -0.371498125
v 0.4375 0.164671875 -0.371498125
v 0.375 0.164671875 -0.371498125
v 0.375 0.164671875 -0.496498125
v 0.4375 0.164671875 -0.496498125
v 0.4375 0.109984375 -0.371498125
v 0.4375 0.875609375 -0.371498125
v 0.4375 0.875609375 0.066001875
v 0.4375 0.109984375 0.253501875
v -0.4375 0.109984375 0.253501875
v -0.4375 0.875609375 0.066001875
v -0.4375 0.875609375 -0.371498125
v -0.4375 0.109984375 -0.371498125
v 0.4375 0.164671875 -0.496498125
v 0.4375 0.164671875 -0.371498125
v -0.4375 0.164671875 -0.371498125
v -0.4375 0.164671875 -0.496498125
v 0.4375 0.820921875 -0.496498125
v 0.4375 0.875609375 -0.496498125
v 0.4375 0.820921875 -0.371498125
v -0.4375 0.820921875 -0.371498125
v -0.4375 0.875609375 -0.496498125
v -0.4375 0.820921875 -0.496498125
v -0.375 0.820921875 -0.496498125
v -0.4375 0.820921875 -0.496498125
v -0.4375 0.820921875 -0.371498125
v -0.375 0.820921875 -0.371498125
v -0.375 0.164671875 -0.371498125
v -0.4375 0.164671875 -0.371498125
v -0.4375 0.164671875 -0.496498125
v -0.375 0.164671875 -0.496498125
v 0.265625 0.111351875 0.058189375
v -0.265625 0.111351875 0.058189375
v 0.4375 0.0006093750000000023 -0.371498125
v 0.4375 0.0006093750000000023 0.253501875
v -0.4375 0.0006093750000000023 0.253501875
v -0.4375 0.0006093750000000023 -0.371498125
v -0.4375 0.0006093750000000023 0.441001875
v 0.4375 0.0006093750000000023 0.441001875
v 0.4375 0.109984375 0.441001875
v -0.4375 0.109984375 0.441001875
v 0.4375 0.0006093750000000023 -0.496498125
v -0.4375 0.0006093750000000023 -0.496498125
v -0.4375 0.109984375 -0.496498125
v 0.4375 0.109984375 -0.496498125
vt 0.859375 0.671875
vt 0.859375 0.703125
vt 0.765625 0.703125
vt 0.765625 0.671875
vt 0.859375 0.625
vt 0.859375 0.65625
vt 0.765625 0.65625
vt 0.765625 0.625
vt 0.65625 0.5
vt 0.65625 0.59375
vt 0.46875 0.59375
vt 0.46875 0.5
vt 0.65625 0.390625
vt 0.65625 0.484375
vt 0.46875 0.484375
vt 0.46875 0.390625
vt 0.34375 0.25
vt 0.34375 0.28125
vt 0.15625 0.28125
vt 0.15625 0.25
vt 0.90625 0.78125
vt 0.90625 0.8125
vt 0.71875 0.8125
vt 0.71875 0.78125
vt 0.140625 0.28125
vt 0.140625 0.390625
vt 0 0.390625
vt 0 0.28125
vt 0.375 0.421875
vt 0.234375 0.421875
vt 0.234375 0.296875
vt 0.375 0.296875
vt 0.75 0.234375
vt 0.75 0.265625
vt 0.609375 0.265625
vt 0.609375 0.234375
vt 0.390625 0.361328125
vt 0.390625 0.25
vt 0.484375 0.25
vt 0.484375 0.375
vt 0.5 0.25
vt 0.59375 0.25
vt 0.59375 0.361328125
vt 0.5 0.375
vt 0 0.65625
vt 0.140625 0.65625
vt 0.140625 0.75
vt 0 0.75
vt 0.140625 0.109375
vt 0.171875 0.109375
vt 0.171875 0.234375
vt 0.140625 0.234375
vt 0.1875 0.234375
vt 0.1875 0.109375
vt 0.21875 0.109375
vt 0.21875 0.234375
vt 0.7783203125 0.31239250500001214
vt 0.6376953125 0.31239250500001214
vt 0.6376953125 0.28125031750001217
vt 0.7783203125 0.28125031750001217
vt 0.7001953125 0.45312468249998783
vt 0.7001953125 0.42198249499998786
vt 0.8408203125 0.42198249499998786
vt 0.8408203125 0.45312468249998783
vt 0.6376953125 0.31239250500001214
vt 0.6096324232291064 0.29475487515662857
vt 0.6376953125 0.28125
vt 0.7783203125 0.31239250500001214
vt 0.7783203125 0.28125
vt 0.8063832017708936 0.29475487515662846
vt 0.7001953125 0.4219821774999757
vt 0.7001953125 0.45312468249998783
vt 0.6721324232291064 0.43961980734335937
vt 0.8408203125 0.42198249499998786
vt 0.8688832017708936 0.43962012484337154
vt 0.8408203125 0.453125
vt 0.4700153044095563 0.234375
vt 0.5549204610760476 0.20416750421477559
vt 0.5625 0.234375
vt 0.45208249578522447 0.7043903044095563
vt 0.45208249578522447 0.796875
vt 0.421875 0.7892954610760476
vt 0.5533919271405725 0.7099888164308523
vt 0.5502448311052028 0.7514454125671044
vt 0.47270582397723315 0.747151438196684
vt 0.4691151771393022 0.7054562985538426
vt 0.5509920916809936 0.6232240435792953
vt 0.5555652993968919 0.6687287953507851
vt 0.4754116233756236 0.6644031405881846
vt 0.48160239743537236 0.6253080707895928
vt 0.618165252502129 0.7099890625
vt 0.615994940002129 0.7515078125
vt 0.555565252502129 0.7515078125
vt 0.553396502502129 0.7099890625
vt 0.6138261900021289 0.623046875
vt 0.615994940002129 0.6687296875
vt 0.555565252502129 0.6687296875
vt 0.557735565002129 0.623046875
vt 0.7008066978606978 0.7059684142494622
vt 0.6975507246633088 0.7478732191260037
vt 0.6208085215299954 0.7514725195874372
vt 0.6181652947901568 0.7099898664292033
vt 0.6898301120561537 0.6233113288837623
vt 0.695310903062528 0.6646597929805955
vt 0.615994940002129 0.6687296875
vt 0.6203525464976196 0.6248596791200217
vt 0.553396502502129 0.7099890625
vt 0.555565252502129 0.6687296875
vt 0.615994940002129 0.6687296875
vt 0.618165252502129 0.7099890625
vt 0.6181652947901568 0.7099898664292033
vt 0.615994940002129 0.6687296875
vt 0.695310903062528 0.6646597929805955
vt 0.700791252757841 0.705969165830876
vt 0.4691151771393022 0.7054562985538426
vt 0.4754116233756236 0.6644031405881846
vt 0.5555652993968919 0.6687287953507851
vt 0.553396502502129 0.7099890625
vt 0.557735565002129 0.7963640624999999
vt 0.555565252502129 0.7515078125
vt 0.615994940002129 0.7515078125
vt 0.6138261900021289 0.7963640624999999
vt 0.628446482904085 0.795727339964593
vt 0.6208085215299954 0.7514725195874372
vt 0.6975507246633088 0.7478732191260037
vt 0.6942479017782037 0.788779122052021
vt 0.47629603883448257 0.788854378387515
vt 0.47270582397723315 0.747151438196684
vt 0.5502448311052028 0.7514454125671044
vt 0.5419196496243327 0.7941144239170304
vt 0.21875 0.875
vt 0.203125 0.875
vt 0.203125 0.84375
vt 0.21875 0.84375
vt 0.25 0.875
vt 0.234375 0.875
vt 0.234375 0.84375
vt 0.25 0.84375
vt 0.03125 0.265625
vt 0 0.265625
vt 0 0.09375
vt 0.03125 0.09375
vt 0.078125 0.265625
vt 0.046875 0.265625
vt 0.046875 0.09375
vt 0.078125 0.09375
vt 0.78125 0.265625
vt 0.765625 0.265625
vt 0.765625 0.109375
vt 0.78125 0.109375
vt 0 0.828125
vt 0.015625 0.828125
vt 0.015625 1
vt 0 1
vt 0.390625 0.68359375
vt 0.390625 0.875
vt 0.28125 0.875
vt 0.234375 0.68359375
vt 0.1875 0.8085921875
vt 0.140625 1
vt 0.031250000000000014 1
vt 0.031250000000000014 0.8085921875
vt 0.40625 0.890625
vt 0.40625 1
vt 0.1875 1
vt 0.1875 0.890625
vt 0.21875 0.4375
vt 0.21875 0.59375
vt 0 0.59375
vt 0 0.4375
vt 0.453125 0.4375
vt 0.453125 0.640625
vt 0.234375 0.640625
vt 0.234375 0.4375
vt 0.640625 0.8125
vt 0.640625 1
vt 0.421875 1
vt 0.421875 0.8125
vt 0.1875 0.734375
vt 0.1875 0.75
vt 0.15625 0.75
vt 0.15625 0.734375
vt 0.1875 0.703125
vt 0.1875 0.71875
vt 0.15625 0.71875
vt 0.15625 0.703125
vt 0.875 0.96875
vt 0.875 1
vt 0.65625 1
vt 0.65625 0.96875
vt 0.875 0.921875
vt 0.875 0.953125
vt 0.65625 0.953125
vt 0.65625 0.921875
vt 0.890625 0.390625
vt 0.890625 0.40625
vt 0.671875 0.40625
vt 0.671875 0.390625
vt 0.453125 0.21875
vt 0.453125 0.234375
vt 0.234375 0.234375
vt 0.234375 0.21875
vt 0.421875 0.40625
vt 0.421875 0.421875
vt 0.390625 0.421875
vt 0.390625 0.40625
vt 0.1875 0.375
vt 0.1875 0.390625
vt 0.15625 0.390625
vt 0.15625 0.375
vt 0.875 0.875
vt 0.875 0.90625
vt 0.65625 0.90625
vt 0.65625 0.875
vt 0.875 0.828125
vt 0.875 0.859375
vt 0.65625 0.859375
vt 0.65625 0.828125
vt 0.984375 0.75
vt 0.984375 0.765625
vt 0.765625 0.765625
vt 0.765625 0.75
vt 0.984375 0.71875
vt 0.984375 0.734375
vt 0.765625 0.734375
vt 0.765625 0.71875
vt 0.21875 0.75
vt 0.203125 0.75
vt 0.203125 0.71875
vt 0.21875 0.71875
vt 0.171875 0.6875
vt 0.15625 0.6875
vt 0.15625 0.65625
vt 0.171875 0.65625
vt 0.125 0.265625
vt 0.09375 0.265625
vt 0.09375 0.09375
vt 0.125 0.09375
vt 0.75 0.765625
vt 0.71875 0.765625
vt 0.71875 0.609375
vt 0.75 0.609375
vt 0.625 0.21875
vt 0.609375 0.21875
vt 0.609375 0.0625
vt 0.625 0.0625
vt 0.578125 0.0625
vt 0.59375 0.0625
vt 0.59375 0.234375
vt 0.578125 0.234375
vt 0.23828125 0.1875
vt 0.37109375 0.1875
vt 0.375 0.203125
vt 0.234375 0.203125
vt 0.234375 0.65625
vt 0.390625 0.65625
vt 0.390625 0.68359375
vt 0.234375 0.68359375
vt 0.671875 0.5625
vt 0.890625 0.5625
vt 0.890625 0.59375
vt 0.671875 0.59375
vt 0.031250000000000014 0.7812484375
vt 0.1875 0.7812484375
vt 0.1875 0.8085921875
vt 0.031250000000000014 0.8085921875
vt 0.671875 0.515625
vt 0.890625 0.515625
vt 0.890625 0.546875
vt 0.671875 0.546875
vt 0.21875 0.640625
vt 0 0.640625
vt 0 0.59375
vt 0.21875 0.59375
vt 0.1875 0.68359375
vt 0.1875 0.65625
vt 0.234375 0.65625
vt 0.234375 0.68359375
vt 0.609375 0.328125
vt 0.828125 0.328125
vt 0.828125 0.375
vt 0.609375 0.375
vt 0.234375 0.7812484375
vt 0.234375 0.80859375
vt 0.1875 0.8085921875
vt 0.1875 0.7812484375
vt 0 0.40625
vt 0.21875 0.40625
vt 0.21875 0.4375
vt 0 0.4375
vt 0 0.8085921875
vt 0 0.7812484375
vt 0.031250000000000014 0.7812484375
vt 0.031250000000000014 0.8085921875
vt 0.890625 0.5
vt 0.671875 0.5
vt 0.671875 0.46875
vt 0.890625 0.46875
vt 0.421875 0.65625
vt 0.421875 0.68359375
vt 0.390625 0.68359375
vt 0.390625 0.65625
vn 1 0 0
vn -1 0 0
vn 0 1 0
vn 0 -1 0
vn 0 0 1
vn 0 0 -1
vn 0 0 1
vn 0 0 -1
vn 0 -0.9161573349021893 0.4008188340197078
vn 0.9647638212377323 0 0.2631174057921088
vn -0.9647638212377323 0 0.2631174057921088
vn 0 0.9292031216573713 0.3695694233864545
vn 0.7071067811865476 0 -0.7071067811865476
vn -0.7071067811865476 0 -0.7071067811865476
vn 0 -0.7525766947068778 -0.6585046078685182
vn 0 0.7525766947068778 -0.6585046078685182
vn 0.5499719409228704 -0.628539361054709 -0.5499719409228704
vn -0.5499719409228704 -0.628539361054709 -0.5499719409228704
vn 0.5499719409228704 0.628539361054709 -0.5499719409228704
vn -0.5499719409228704 0.628539361054709 -0.5499719409228704
vn 0.6308509192083943 0.7209724790953078 0.28675041782199745
vn -0.6308509192083943 0.7209724790953078 0.28675041782199745
vn 0.4295730980358996 0.16224554501093125 -0.8883374001852816
vn 0.4043296889748646 -0.41985455390345455 -0.812551325258916
vn 0 0.15516070693407674 -0.987889242285651
vn 0 -0.44029931546501705 -0.8978510526813662
vn -0.4077568966896385 0.18123160732043378 -0.8949242524985496
vn -0.41996181428842283 -0.16332861798931278 -0.8927238302438651
vn 0 -0.10879418352361508 -0.9940642965278605
vn -0.4225679070062939 -0.12065961825032617 -0.8982636698052558
vn 0.4420748616753088 -0.12371897245264682 -0.8884049935305507
vn 0 0.40486208895058284 -0.9143777605183597
vn -0.38161095723452737 0.3910230781899774 -0.8375404644800053
vn 0.4308795100361303 0.1428017792369443 -0.8910390000879802
vn 0 1 0
vn 0 -1 0
vn -1 0 0
vn 1 0 0
vn 0 0 1
vn 0 0 -1
vn 1 0 0
vn -1 0 0
vn 0 1 0
vn 0 -1 0
vn 0 0.23786872937925857 0.9712973116319725
vn 0 0 -1
vn 1 0 0
vn -1 0 0
vn 0 1 0
vn 0 -1 0
vn 0 0 1
vn 0 0 -1
vn 1 0 0
vn -1 0 0
vn 0 1 0
vn 0 -1 0
vn 0 0 1
vn 0 0 -1
vn 0 1 0
vn 0 -1 0
vn -1 0 0
vn 1 0 0
vn 0 0 1
vn 0 0 -1
vn 0 -0.402403430879582 -0.9154624398719706
vn 1 0 0
vn 0 0 1
vn -1 0 0
vn 0 0 -1
vn 0 -1 0
vn 1 0 0
vn 0 1 0
vn -1 0 0
vn 0 -1 0
vn -1 0 0
vn 0 1 0
vn 1 0 0
usemtl m_4dfb3522-676e-abe5-34d2-8066d7642ba6
f 4/1/1 2/2/1 1/3/1 3/4/1
f 7/5/2 5/6/2 6/7/2 8/8/2
f 1/9/3 2/10/3 6/11/3 5/12/3
f 4/13/4 3/14/4 7/15/4 8/16/4
f 3/17/5 1/18/5 5/19/5 7/20/5
f 8/21/6 6/22/6 2/23/6 4/24/6
f 17/25/7 18/26/7 19/27/7 20/28/7
f 21/29/8 22/30/8 23/31/8 24/32/8
f 25/33/9 26/34/9 27/35/9 28/36/9
f 18/37/10 17/38/10 10/39/10 9/40/10
f 14/41/11 20/42/11 19/43/11 15/44/11
f 19/45/12 18/46/12 30/47/12 29/48/12
f 11/49/13 23/50/13 22/51/13 12/52/13
f 21/53/14 24/54/14 13/55/14 16/56/14
f 24/57/15 23/58/15 25/59/15 28/60/15
f 31/61/16 22/62/16 21/63/16 32/64/16
f 23/65/17 11/66/17 25/67/17
f 24/68/18 28/69/18 13/70/18
f 22/71/19 31/72/19 12/73/19
f 21/74/20 16/75/20 32/76/20
f 18/77/21 9/78/21 30/79/21
f 19/80/22 29/81/22 15/82/22
f 33/83/23 34/84/23 35/85/23 36/86/23
f 37/87/24 38/88/24 39/89/24 40/90/24
f 41/91/25 42/92/25 34/93/25 33/94/25
f 43/95/26 44/96/26 38/97/26 37/98/26
f 45/99/27 46/100/27 42/101/27 41/102/27
f 47/103/28 48/104/28 44/105/28 43/106/28
f 33/107/29 38/108/29 44/109/29 41/110/29
f 41/111/30 44/112/30 48/113/30 45/114/30
f 36/115/31 39/116/31 38/117/31 33/118/31
f 49/119/32 34/120/32 42/121/32 50/122/32
f 50/123/33 42/124/33 46/125/33 51/126/33
f 52/127/34 35/128/34 34/129/34 49/130/34
f 53/131/35 54/132/35 55/133/35 56/134/35
f 57/135/36 58/136/36 59/137/36 60/138/36
f 55/139/37 54/140/37 59/141/37 58/142/37
f 53/143/38 56/144/38 57/145/38 60/146/38
f 56/147/39 55/148/39 58/149/39 57/150/39
f 60/151/40 59/152/40 54/153/40 53/154/40
f 61/155/41 62/156/41 63/157/41 64/158/41
f 65/159/42 66/160/42 67/161/42 68/162/42
f 63/163/43 62/164/43 67/165/43 66/166/43
f 89/167/44 90/168/44 91/169/44 92/170/44
f 64/171/45 63/172/45 66/173/45 65/174/45
f 68/175/46 67/176/46 62/177/46 61/178/46
f 100/179/47 69/180/47 70/181/47 61/182/47
f 68/183/48 71/184/48 72/185/48 99/186/48
f 70/187/49 69/188/49 72/189/49 71/190/49
f 100/191/50 61/192/50 68/193/50 99/194/50
f 61/195/51 70/196/51 71/197/51 68/198/51
f 99/199/52 72/200/52 69/201/52 100/202/52
f 73/203/53 74/204/53 62/205/53 75/206/53
f 76/207/54 67/208/54 77/209/54 78/210/54
f 62/211/55 74/212/55 77/213/55 67/214/55
f 73/215/56 75/216/56 76/217/56 78/218/56
f 75/219/57 62/220/57 67/221/57 76/222/57
f 78/223/58 77/224/58 74/225/58 73/226/58
f 79/227/59 80/228/59 81/229/59 82/230/59
f 83/231/60 84/232/60 85/233/60 86/234/60
f 81/235/61 80/236/61 85/237/61 84/238/61
f 79/239/62 82/240/62 83/241/62 86/242/62
f 82/243/63 81/244/63 84/245/63 83/246/63
f 86/247/64 85/248/64 80/249/64 79/250/64
f 87/251/65 88/252/65 27/253/65 26/254/65
f 90/255/66 89/256/66 61/257/66 64/258/66
f 93/259/67 94/260/67 95/261/67 96/262/67
f 92/263/68 91/264/68 65/265/68 68/266/68
f 97/267/69 98/268/69 99/269/69 100/270/69
f 94/271/70 93/272/70 91/273/70 90/274/70
f 95/275/71 94/276/71 90/277/71 64/278/71
f 96/279/72 95/280/72 64/281/72 65/282/72
f 93/283/73 96/284/73 65/285/73 91/286/73
f 98/287/74 97/288/74 89/289/74 92/290/74
f 99/291/75 98/292/75 92/293/75 68/294/75
f 100/295/76 99/296/76 68/297/76 61/298/76
f 97/299/77 100/300/77 61/301/77 89/302/77